M48
; DRILL file KiCad 10.0.1-10.0.1~ubuntu24.04.1 date 2026-05-03T22:38:23
; FORMAT={-:-/ absolute / metric / decimal}
; #@! TF.CreationDate,2026-05-03T22:38:23-04:00
; #@! TF.GenerationSoftware,Kicad,Pcbnew,10.0.1-10.0.1~ubuntu24.04.1
; #@! TF.FileFunction,Plated,1,4,PTH
FMAT,2
METRIC
; #@! TA.AperFunction,Plated,PTH,ViaDrill
T1C0.300
; #@! TA.AperFunction,Plated,PTH,ComponentDrill
T2C0.714
; #@! TA.AperFunction,Plated,PTH,ComponentDrill
T3C0.750
; #@! TA.AperFunction,Plated,PTH,ComponentDrill
T4C0.800
; #@! TA.AperFunction,Plated,PTH,ComponentDrill
T5C0.900
; #@! TA.AperFunction,Plated,PTH,ComponentDrill
T6C0.950
; #@! TA.AperFunction,Plated,PTH,ComponentDrill
T7C1.000
; #@! TA.AperFunction,Plated,PTH,ComponentDrill
T8C1.190
; #@! TA.AperFunction,Plated,PTH,ComponentDrill
T9C2.200
%
G90
G05
T1
X86.75Y-120.5
X90.375Y-118.875
X91.8Y-118.875
X93.25Y-118.875
T2
X113.685Y-105.175
X116.225Y-102.635
X116.225Y-107.715
T3
X54.48Y-126.11
X55.75Y-124.84
X57.02Y-126.11
T4
X54.5Y-120.0
X57.0Y-120.0
X59.09Y-82.0
X59.09Y-87.304
X66.5Y-103.25
X66.67Y-120.5
X68.0Y-106.67
X68.0Y-116.83
X69.0Y-103.25
X69.25Y-82.0
X69.25Y-87.304
X71.25Y-106.67
X71.25Y-116.83
X74.5Y-106.67
X74.5Y-116.83
X76.83Y-120.5
X77.75Y-106.67
X77.75Y-116.83
X81.0Y-103.0
X81.0Y-106.67
X81.0Y-116.83
X83.42Y-83.75
X83.5Y-103.0
X84.2Y-107.95
X84.2Y-110.49
X84.2Y-113.03
X84.2Y-115.57
X90.0Y-89.92
X90.0Y-100.08
X91.1Y-87.0
X91.82Y-107.95
X91.82Y-110.49
X91.82Y-113.03
X91.82Y-115.57
X93.58Y-83.75
X93.6Y-87.0
X95.0Y-106.67
X95.0Y-116.83
X96.17Y-83.75
X96.17Y-87.0
X98.25Y-106.67
X98.25Y-116.83
X101.725Y-113.525
X101.725Y-116.025
X101.75Y-106.675
X101.75Y-109.175
X105.25Y-106.67
X105.25Y-116.83
X106.33Y-83.75
X106.33Y-87.0
X108.75Y-106.67
X108.75Y-116.83
X109.25Y-84.75
X109.25Y-87.25
X111.25Y-89.92
X111.25Y-100.08
X112.5Y-87.0
X114.5Y-89.92
X114.5Y-100.08
X115.0Y-87.0
T5
X53.975Y-82.0
X54.005Y-87.304
X56.515Y-82.0
X56.545Y-87.304
X74.225Y-124.5
X76.765Y-124.5
T6
X59.282Y-94.0
X59.282Y-96.5
X59.282Y-99.0
T7
X64.0Y-109.21
X64.0Y-111.75
X64.0Y-114.29
X70.8Y-78.2
X73.34Y-78.2
X75.88Y-78.2
X76.75Y-86.55
X76.75Y-89.09
X76.75Y-91.63
X76.75Y-94.17
X76.75Y-96.71
X76.75Y-99.25
X78.42Y-78.2
X79.29Y-86.55
X79.29Y-89.09
X79.29Y-91.63
X79.29Y-94.17
X79.29Y-96.71
X79.29Y-99.25
X79.94Y-126.46
X80.96Y-78.2
X82.48Y-126.46
X83.5Y-78.2
X85.02Y-126.46
X86.04Y-78.2
X87.56Y-126.46
X88.58Y-78.2
X90.1Y-126.46
X91.12Y-78.2
X92.64Y-126.46
X93.5Y-93.75
X93.5Y-96.25
X93.5Y-98.75
X93.66Y-78.2
X95.18Y-126.46
X97.72Y-78.2
X97.72Y-126.46
X100.26Y-78.2
X102.8Y-78.2
X102.8Y-120.25
X102.8Y-126.46
X105.34Y-78.2
X105.34Y-120.25
X105.34Y-126.46
X107.88Y-78.2
X107.88Y-120.25
X107.88Y-126.46
X108.0Y-93.75
X108.0Y-98.75
X110.42Y-78.2
X110.42Y-126.46
X112.96Y-78.2
X112.96Y-126.46
X115.5Y-78.2
X115.5Y-126.46
T8
X55.52Y-109.21
X55.52Y-111.75
X55.52Y-114.29
T9
X101.0Y-90.65
X101.0Y-101.85
M30
