%TF.GenerationSoftware,KiCad,Pcbnew,10.0.1-10.0.1~ubuntu24.04.1*%
%TF.CreationDate,2026-05-03T22:38:04-04:00*%
%TF.ProjectId,analog_shield,616e616c-6f67-45f7-9368-69656c642e6b,rev?*%
%TF.SameCoordinates,Original*%
%TF.FileFunction,Legend,Bot*%
%TF.FilePolarity,Positive*%
%FSLAX46Y46*%
G04 Gerber Fmt 4.6, Leading zero omitted, Abs format (unit mm)*
G04 Created by KiCad (PCBNEW 10.0.1-10.0.1~ubuntu24.04.1) date 2026-05-03 22:38:04*
%MOMM*%
%LPD*%
G01*
G04 APERTURE LIST*
%ADD10C,0.050000*%
%ADD11C,0.200000*%
%ADD12C,0.400000*%
%ADD13C,0.120000*%
%ADD14C,0.010000*%
G04 APERTURE END LIST*
D10*
X88250000Y-123250000D02*
X88750000Y-123250000D01*
X88750000Y-125150000D01*
X88250000Y-125150000D01*
X88250000Y-123250000D01*
G36*
X88250000Y-123250000D02*
G01*
X88750000Y-123250000D01*
X88750000Y-125150000D01*
X88250000Y-125150000D01*
X88250000Y-123250000D01*
G37*
X89250000Y-123250000D02*
X90250000Y-123250000D01*
X90250000Y-125150000D01*
X89250000Y-125150000D01*
X89250000Y-123250000D01*
G36*
X89250000Y-123250000D02*
G01*
X90250000Y-123250000D01*
X90250000Y-125150000D01*
X89250000Y-125150000D01*
X89250000Y-123250000D01*
G37*
X94500000Y-123200000D02*
X95500000Y-123200000D01*
X95500000Y-125100000D01*
X94500000Y-125100000D01*
X94500000Y-123200000D01*
G36*
X94500000Y-123200000D02*
G01*
X95500000Y-123200000D01*
X95500000Y-125100000D01*
X94500000Y-125100000D01*
X94500000Y-123200000D01*
G37*
X96000000Y-123200000D02*
X96500000Y-123200000D01*
X96500000Y-125100000D01*
X96000000Y-125100000D01*
X96000000Y-123200000D01*
G36*
X96000000Y-123200000D02*
G01*
X96500000Y-123200000D01*
X96500000Y-125100000D01*
X96000000Y-125100000D01*
X96000000Y-123200000D01*
G37*
D11*
G36*
X99713042Y-124761111D02*
G01*
X96511973Y-124761111D01*
X96511973Y-124650000D01*
X96623084Y-124650000D01*
X96825989Y-124650000D01*
X97229722Y-123987674D01*
X97229722Y-124650000D01*
X97417545Y-124650000D01*
X97612390Y-124650000D01*
X97814623Y-124650000D01*
X97814623Y-123645673D01*
X97911465Y-123645673D01*
X98270136Y-124650000D01*
X98485985Y-124650000D01*
X98692113Y-124071632D01*
X98901748Y-124071632D01*
X98901748Y-124247487D01*
X99164736Y-124247487D01*
X99164736Y-124505408D01*
X99339614Y-124505408D01*
X99339614Y-124247487D01*
X99601931Y-124247487D01*
X99601931Y-124071632D01*
X99339614Y-124071632D01*
X99339614Y-123813712D01*
X99164736Y-123813712D01*
X99164736Y-124071632D01*
X98901748Y-124071632D01*
X98692113Y-124071632D01*
X98843923Y-123645673D01*
X98624654Y-123645673D01*
X98371191Y-124388171D01*
X98125971Y-123645673D01*
X97911465Y-123645673D01*
X97814623Y-123645673D01*
X97612390Y-123645673D01*
X97612390Y-124650000D01*
X97417545Y-124650000D01*
X97417545Y-123645673D01*
X97220807Y-123645673D01*
X96810968Y-124318012D01*
X96810968Y-123645673D01*
X96623084Y-123645673D01*
X96623084Y-124650000D01*
X96511973Y-124650000D01*
X96511973Y-123534562D01*
X99713042Y-123534562D01*
X99713042Y-124761111D01*
G37*
G36*
X88150006Y-124780650D02*
G01*
X84293145Y-124780650D01*
X84293145Y-123645673D01*
X84404256Y-123645673D01*
X84762927Y-124650000D01*
X84978776Y-124650000D01*
X85085213Y-124351352D01*
X85395760Y-124351352D01*
X85401871Y-124415403D01*
X85419760Y-124473465D01*
X85449495Y-124526854D01*
X85492114Y-124576482D01*
X85542994Y-124617058D01*
X85599132Y-124645862D01*
X85661594Y-124663459D01*
X85731838Y-124669539D01*
X85798925Y-124664216D01*
X85853806Y-124650000D01*
X86210188Y-124650000D01*
X86402101Y-124650000D01*
X86402101Y-124458513D01*
X86210188Y-124458513D01*
X86210188Y-124650000D01*
X85853806Y-124650000D01*
X85858006Y-124648912D01*
X85910459Y-124624112D01*
X85957335Y-124589610D01*
X85997123Y-124546859D01*
X86027480Y-124498386D01*
X86048876Y-124443320D01*
X86061138Y-124380416D01*
X85875331Y-124356908D01*
X85865367Y-124404733D01*
X85849222Y-124441770D01*
X85827520Y-124470176D01*
X85799568Y-124492015D01*
X85768507Y-124504914D01*
X85733242Y-124509316D01*
X85695582Y-124504271D01*
X85662648Y-124489463D01*
X85633164Y-124464192D01*
X85611206Y-124431863D01*
X85597432Y-124391948D01*
X85593391Y-124351352D01*
X86562264Y-124351352D01*
X86568375Y-124415403D01*
X86586264Y-124473465D01*
X86615999Y-124526854D01*
X86658617Y-124576482D01*
X86709498Y-124617058D01*
X86765636Y-124645862D01*
X86828097Y-124663459D01*
X86898342Y-124669539D01*
X86965429Y-124664216D01*
X87024510Y-124648912D01*
X87076963Y-124624112D01*
X87123839Y-124589610D01*
X87163627Y-124546859D01*
X87193984Y-124498386D01*
X87215380Y-124443320D01*
X87227642Y-124380416D01*
X87041834Y-124356908D01*
X87031871Y-124404733D01*
X87015726Y-124441770D01*
X86994024Y-124470176D01*
X86966072Y-124492015D01*
X86935011Y-124504914D01*
X86899746Y-124509316D01*
X86862086Y-124504271D01*
X86829152Y-124489463D01*
X86799668Y-124464192D01*
X86777710Y-124431863D01*
X86763936Y-124391948D01*
X86759001Y-124342376D01*
X86763728Y-124295491D01*
X86776919Y-124257830D01*
X86797958Y-124227398D01*
X86826124Y-124203614D01*
X86857383Y-124189694D01*
X86892907Y-124184961D01*
X86931244Y-124188208D01*
X86981018Y-124199310D01*
X86963569Y-124071632D01*
X87338712Y-124071632D01*
X87338712Y-124247487D01*
X87601700Y-124247487D01*
X87601700Y-124505408D01*
X87776578Y-124505408D01*
X87776578Y-124247487D01*
X88038895Y-124247487D01*
X88038895Y-124071632D01*
X87776578Y-124071632D01*
X87776578Y-123813712D01*
X87601700Y-123813712D01*
X87601700Y-124071632D01*
X87338712Y-124071632D01*
X86963569Y-124071632D01*
X86959830Y-124044277D01*
X86909048Y-124040968D01*
X86870378Y-124029370D01*
X86841006Y-124010694D01*
X86818350Y-123984538D01*
X86804730Y-123953460D01*
X86799973Y-123915928D01*
X86803558Y-123883673D01*
X86813668Y-123857415D01*
X86830076Y-123835816D01*
X86851764Y-123819489D01*
X86877958Y-123809448D01*
X86909943Y-123805896D01*
X86941384Y-123809719D01*
X86969094Y-123820906D01*
X86994024Y-123839785D01*
X87013378Y-123864457D01*
X87027667Y-123896797D01*
X87036339Y-123938764D01*
X87213293Y-123908967D01*
X87197888Y-123848879D01*
X87179136Y-123800840D01*
X87157606Y-123762909D01*
X87129985Y-123729542D01*
X87095678Y-123700963D01*
X87053802Y-123676997D01*
X87008437Y-123659837D01*
X86958917Y-123649300D01*
X86904509Y-123645673D01*
X86835039Y-123651722D01*
X86775184Y-123669001D01*
X86723154Y-123696933D01*
X86677668Y-123735921D01*
X86646191Y-123775083D01*
X86624497Y-123815526D01*
X86611648Y-123857817D01*
X86607326Y-123902739D01*
X86612824Y-123952219D01*
X86629011Y-123997034D01*
X86656316Y-124038414D01*
X86696294Y-124077100D01*
X86751491Y-124113276D01*
X86697165Y-124131048D01*
X86651767Y-124158523D01*
X86613860Y-124196074D01*
X86585480Y-124241299D01*
X86568238Y-124292524D01*
X86562264Y-124351352D01*
X85593391Y-124351352D01*
X85592497Y-124342376D01*
X85597224Y-124295491D01*
X85610415Y-124257830D01*
X85631454Y-124227398D01*
X85659620Y-124203614D01*
X85690879Y-124189694D01*
X85726403Y-124184961D01*
X85764741Y-124188208D01*
X85814514Y-124199310D01*
X85793326Y-124044277D01*
X85742544Y-124040968D01*
X85703874Y-124029370D01*
X85674502Y-124010694D01*
X85651846Y-123984538D01*
X85638226Y-123953460D01*
X85633469Y-123915928D01*
X85637054Y-123883673D01*
X85647164Y-123857415D01*
X85663572Y-123835816D01*
X85685260Y-123819489D01*
X85711454Y-123809448D01*
X85743439Y-123805896D01*
X85774880Y-123809719D01*
X85802591Y-123820906D01*
X85827520Y-123839785D01*
X85846874Y-123864457D01*
X85861163Y-123896797D01*
X85869835Y-123938764D01*
X86046789Y-123908967D01*
X86031384Y-123848879D01*
X86012632Y-123800840D01*
X85991102Y-123762909D01*
X85963481Y-123729542D01*
X85929174Y-123700963D01*
X85887298Y-123676997D01*
X85841933Y-123659837D01*
X85792413Y-123649300D01*
X85738005Y-123645673D01*
X85668536Y-123651722D01*
X85608680Y-123669001D01*
X85556651Y-123696933D01*
X85511164Y-123735921D01*
X85479687Y-123775083D01*
X85457994Y-123815526D01*
X85445144Y-123857817D01*
X85440823Y-123902739D01*
X85446320Y-123952219D01*
X85462507Y-123997034D01*
X85489812Y-124038414D01*
X85529790Y-124077100D01*
X85584987Y-124113276D01*
X85530661Y-124131048D01*
X85485264Y-124158523D01*
X85447356Y-124196074D01*
X85418977Y-124241299D01*
X85401734Y-124292524D01*
X85395760Y-124351352D01*
X85085213Y-124351352D01*
X85336714Y-123645673D01*
X85117445Y-123645673D01*
X84863982Y-124388171D01*
X84618762Y-123645673D01*
X84404256Y-123645673D01*
X84293145Y-123645673D01*
X84293145Y-123534562D01*
X88150006Y-123534562D01*
X88150006Y-124780650D01*
G37*
G36*
X91922720Y-123811421D02*
G01*
X91951983Y-123828061D01*
X91974733Y-123856292D01*
X91994359Y-123907562D01*
X92008115Y-123994611D01*
X92014142Y-124157972D01*
X92008594Y-124320266D01*
X91996374Y-124399834D01*
X91981760Y-124442997D01*
X91966712Y-124470830D01*
X91951616Y-124487517D01*
X91922686Y-124503862D01*
X91889823Y-124509316D01*
X91856883Y-124503786D01*
X91827663Y-124487151D01*
X91804866Y-124458913D01*
X91785226Y-124407650D01*
X91771481Y-124321199D01*
X91765442Y-124157972D01*
X91770992Y-123995632D01*
X91783211Y-123916111D01*
X91805315Y-123857287D01*
X91827968Y-123828061D01*
X91856933Y-123811435D01*
X91889823Y-123805896D01*
X91922720Y-123811421D01*
G37*
G36*
X94310006Y-124780650D02*
G01*
X90453145Y-124780650D01*
X90453145Y-123645673D01*
X90564256Y-123645673D01*
X90922927Y-124650000D01*
X91138776Y-124650000D01*
X91314133Y-124157972D01*
X91564614Y-124157972D01*
X91569673Y-124278779D01*
X91583530Y-124376713D01*
X91604479Y-124455342D01*
X91631229Y-124517847D01*
X91662982Y-124566957D01*
X91707248Y-124611529D01*
X91758730Y-124643164D01*
X91818862Y-124662684D01*
X91889823Y-124669539D01*
X91960438Y-124662280D01*
X91996520Y-124650000D01*
X92370188Y-124650000D01*
X92562101Y-124650000D01*
X92562101Y-124458513D01*
X92370188Y-124458513D01*
X92370188Y-124650000D01*
X91996520Y-124650000D01*
X92022098Y-124641295D01*
X92076721Y-124606676D01*
X92125517Y-124557065D01*
X92153665Y-124513100D01*
X92177865Y-124454643D01*
X92197179Y-124378318D01*
X92205955Y-124312028D01*
X92704495Y-124312028D01*
X92709083Y-124373612D01*
X92722562Y-124430860D01*
X92744833Y-124484572D01*
X92776241Y-124535389D01*
X92818750Y-124584062D01*
X92866265Y-124621082D01*
X92919421Y-124647570D01*
X92979312Y-124663873D01*
X93047412Y-124669539D01*
X93116330Y-124664490D01*
X93176035Y-124650104D01*
X93228035Y-124627075D01*
X93273520Y-124595472D01*
X93312490Y-124555659D01*
X93342723Y-124509829D01*
X93364642Y-124457107D01*
X93378056Y-124396231D01*
X93186752Y-124376448D01*
X93177310Y-124417945D01*
X93161092Y-124451745D01*
X93138270Y-124479274D01*
X93109628Y-124500535D01*
X93078954Y-124512951D01*
X93045336Y-124517131D01*
X93007579Y-124511638D01*
X92974107Y-124495328D01*
X92943609Y-124467001D01*
X92921805Y-124431098D01*
X92907328Y-124382025D01*
X92901904Y-124315753D01*
X92907235Y-124253845D01*
X92921532Y-124207736D01*
X92943242Y-124173726D01*
X92973495Y-124147449D01*
X93008817Y-124131777D01*
X93050831Y-124126343D01*
X93090162Y-124130764D01*
X93127465Y-124144032D01*
X93163587Y-124166812D01*
X93199087Y-124200593D01*
X93354853Y-124177695D01*
X93334800Y-124071632D01*
X93498712Y-124071632D01*
X93498712Y-124247487D01*
X93761700Y-124247487D01*
X93761700Y-124505408D01*
X93936578Y-124505408D01*
X93936578Y-124247487D01*
X94198895Y-124247487D01*
X94198895Y-124071632D01*
X93936578Y-124071632D01*
X93936578Y-123813712D01*
X93761700Y-123813712D01*
X93761700Y-124071632D01*
X93498712Y-124071632D01*
X93334800Y-124071632D01*
X93256484Y-123657397D01*
X92748886Y-123657397D01*
X92748886Y-123837159D01*
X93110976Y-123837159D01*
X93141018Y-124005687D01*
X93097328Y-123987863D01*
X93053769Y-123977398D01*
X93009860Y-123973935D01*
X92947950Y-123979907D01*
X92892033Y-123997369D01*
X92840796Y-124026378D01*
X92793338Y-124067969D01*
X92755119Y-124117436D01*
X92727563Y-124173672D01*
X92710472Y-124237966D01*
X92704495Y-124312028D01*
X92205955Y-124312028D01*
X92210168Y-124280203D01*
X92214971Y-124155896D01*
X92209921Y-124035732D01*
X92196081Y-123938210D01*
X92175146Y-123859807D01*
X92148390Y-123797386D01*
X92116602Y-123748255D01*
X92072336Y-123703680D01*
X92020863Y-123672045D01*
X91960751Y-123652526D01*
X91889823Y-123645673D01*
X91818959Y-123652592D01*
X91758731Y-123672328D01*
X91706983Y-123704386D01*
X91662311Y-123749659D01*
X91630858Y-123798180D01*
X91604307Y-123860242D01*
X91583471Y-123938649D01*
X91569663Y-124036670D01*
X91564614Y-124157972D01*
X91314133Y-124157972D01*
X91496714Y-123645673D01*
X91277445Y-123645673D01*
X91023982Y-124388171D01*
X90778762Y-123645673D01*
X90564256Y-123645673D01*
X90453145Y-123645673D01*
X90453145Y-123534562D01*
X94310006Y-123534562D01*
X94310006Y-124780650D01*
G37*
G36*
X90293082Y-120935408D02*
G01*
X90293082Y-120677487D01*
X90555399Y-120677487D01*
X90555399Y-120501632D01*
X90293082Y-120501632D01*
X90293082Y-120243712D01*
X90118204Y-120243712D01*
X90118204Y-120501632D01*
X89855216Y-120501632D01*
X89855216Y-120677487D01*
X90118204Y-120677487D01*
X90118204Y-120935408D01*
X90293082Y-120935408D01*
G37*
G36*
X89439453Y-121080000D02*
G01*
X89797391Y-120075673D01*
X89578122Y-120075673D01*
X89324659Y-120818171D01*
X89079439Y-120075673D01*
X88864933Y-120075673D01*
X89223604Y-121080000D01*
X89439453Y-121080000D01*
G37*
G36*
X88768091Y-121080000D02*
G01*
X88768091Y-120075673D01*
X88565858Y-120075673D01*
X88565858Y-121080000D01*
X88768091Y-121080000D01*
G37*
G36*
X88010509Y-120064750D02*
G01*
X88082039Y-120078232D01*
X88145577Y-120099792D01*
X88190542Y-120122533D01*
X88233626Y-120152503D01*
X88275086Y-120190345D01*
X88327960Y-120255381D01*
X88368265Y-120328159D01*
X88392678Y-120399124D01*
X88408414Y-120484196D01*
X88414061Y-120585957D01*
X88408133Y-120683092D01*
X88391268Y-120767686D01*
X88364461Y-120841541D01*
X88328156Y-120906176D01*
X88282231Y-120962763D01*
X88227055Y-121011111D01*
X88165080Y-121048844D01*
X88095345Y-121076385D01*
X88016533Y-121093547D01*
X87927040Y-121099539D01*
X87838796Y-121093552D01*
X87760829Y-121076375D01*
X87691585Y-121048750D01*
X87629795Y-121010814D01*
X87574537Y-120962091D01*
X87528720Y-120905302D01*
X87492430Y-120840201D01*
X87465581Y-120765570D01*
X87448662Y-120679835D01*
X87442707Y-120581133D01*
X87442995Y-120576371D01*
X87651718Y-120576371D01*
X87657461Y-120665450D01*
X87673239Y-120737028D01*
X87697434Y-120794278D01*
X87729265Y-120839787D01*
X87770979Y-120878373D01*
X87817241Y-120905459D01*
X87869009Y-120921910D01*
X87927712Y-120927592D01*
X87986369Y-120921890D01*
X88038313Y-120905349D01*
X88084943Y-120878059D01*
X88127197Y-120839115D01*
X88159640Y-120793151D01*
X88184124Y-120736154D01*
X88199981Y-120665777D01*
X88205722Y-120579118D01*
X88200039Y-120490658D01*
X88184447Y-120419763D01*
X88160574Y-120363231D01*
X88129212Y-120318450D01*
X88088110Y-120280756D01*
X88041629Y-120254055D01*
X87988689Y-120237686D01*
X87927712Y-120231988D01*
X87866629Y-120237646D01*
X87813840Y-120253866D01*
X87767730Y-120280253D01*
X87727189Y-120317412D01*
X87696307Y-120361634D01*
X87672753Y-120417668D01*
X87657342Y-120488166D01*
X87651718Y-120576371D01*
X87442995Y-120576371D01*
X87448718Y-120481580D01*
X87465787Y-120395223D01*
X87492856Y-120320160D01*
X87529424Y-120254785D01*
X87575575Y-120197855D01*
X87631249Y-120148984D01*
X87693421Y-120110941D01*
X87763004Y-120083249D01*
X87841258Y-120066038D01*
X87929727Y-120060041D01*
X88010509Y-120064750D01*
G37*
G36*
X96693326Y-120935408D02*
G01*
X96693326Y-120677487D01*
X96955643Y-120677487D01*
X96955643Y-120501632D01*
X96693326Y-120501632D01*
X96693326Y-120243712D01*
X96518448Y-120243712D01*
X96518448Y-120501632D01*
X96255460Y-120501632D01*
X96255460Y-120677487D01*
X96518448Y-120677487D01*
X96518448Y-120935408D01*
X96693326Y-120935408D01*
G37*
G36*
X96134804Y-120826231D02*
G01*
X95943500Y-120806448D01*
X95934058Y-120847945D01*
X95917840Y-120881745D01*
X95895018Y-120909274D01*
X95866376Y-120930535D01*
X95835702Y-120942951D01*
X95802084Y-120947131D01*
X95764327Y-120941638D01*
X95730855Y-120925328D01*
X95700357Y-120897001D01*
X95678553Y-120861098D01*
X95664076Y-120812025D01*
X95658652Y-120745753D01*
X95663983Y-120683845D01*
X95678280Y-120637736D01*
X95699990Y-120603726D01*
X95730243Y-120577449D01*
X95765565Y-120561777D01*
X95807579Y-120556343D01*
X95846910Y-120560764D01*
X95884213Y-120574032D01*
X95920335Y-120596812D01*
X95955835Y-120630593D01*
X96111601Y-120607695D01*
X96013232Y-120087397D01*
X95505634Y-120087397D01*
X95505634Y-120267159D01*
X95867724Y-120267159D01*
X95897766Y-120435687D01*
X95854076Y-120417863D01*
X95810517Y-120407398D01*
X95766608Y-120403935D01*
X95704698Y-120409907D01*
X95648781Y-120427369D01*
X95597544Y-120456378D01*
X95550086Y-120497969D01*
X95511867Y-120547436D01*
X95484311Y-120603672D01*
X95467220Y-120667966D01*
X95461243Y-120742028D01*
X95465831Y-120803612D01*
X95479310Y-120860860D01*
X95501581Y-120914572D01*
X95532989Y-120965389D01*
X95575498Y-121014062D01*
X95623013Y-121051082D01*
X95676169Y-121077570D01*
X95736060Y-121093873D01*
X95804160Y-121099539D01*
X95873078Y-121094490D01*
X95932783Y-121080104D01*
X95984783Y-121057075D01*
X96030268Y-121025472D01*
X96069238Y-120985659D01*
X96099471Y-120939829D01*
X96121390Y-120887107D01*
X96134804Y-120826231D01*
G37*
G36*
X95062028Y-121080000D02*
G01*
X95419966Y-120075673D01*
X95200697Y-120075673D01*
X94947234Y-120818171D01*
X94702014Y-120075673D01*
X94487508Y-120075673D01*
X94846178Y-121080000D01*
X95062028Y-121080000D01*
G37*
G36*
X82351439Y-112745000D02*
G01*
X82351439Y-111238510D01*
X81897513Y-111238510D01*
X81624938Y-112266161D01*
X81355478Y-111238510D01*
X80900453Y-111238510D01*
X80900453Y-112745000D01*
X81182279Y-112745000D01*
X81182279Y-111559170D01*
X81480408Y-112745000D01*
X81772492Y-112745000D01*
X82069613Y-111559170D01*
X82069613Y-112745000D01*
X82351439Y-112745000D01*
G37*
G36*
X80751709Y-112745000D02*
G01*
X80429950Y-112745000D01*
X80305935Y-112405013D01*
X79705556Y-112405013D01*
X79574398Y-112745000D01*
X79244395Y-112745000D01*
X79480774Y-112152955D01*
X79802826Y-112152955D01*
X80212696Y-112152955D01*
X80009822Y-111590219D01*
X79802826Y-112152955D01*
X79480774Y-112152955D01*
X79845874Y-111238510D01*
X80166625Y-111238510D01*
X80751709Y-112745000D01*
G37*
G36*
X78881236Y-112745000D02*
G01*
X78881236Y-112110915D01*
X79431516Y-111238510D01*
X79075867Y-111238510D01*
X78722418Y-111835683D01*
X78376020Y-111238510D01*
X78026600Y-111238510D01*
X78578986Y-112113021D01*
X78578986Y-112745000D01*
X78881236Y-112745000D01*
G37*
G36*
X76422199Y-112475355D02*
G01*
X76422199Y-112745000D01*
X77431441Y-112745000D01*
X77413345Y-112646409D01*
X77380761Y-112551184D01*
X77333073Y-112458411D01*
X77271588Y-112371792D01*
X77168231Y-112254653D01*
X77009298Y-112099191D01*
X76835549Y-111929992D01*
X76770612Y-111853910D01*
X76736579Y-111792587D01*
X76717358Y-111734399D01*
X76711169Y-111678147D01*
X76717554Y-111616141D01*
X76735143Y-111567979D01*
X76762918Y-111530502D01*
X76800400Y-111502557D01*
X76847167Y-111485104D01*
X76905892Y-111478845D01*
X76963708Y-111485312D01*
X77010712Y-111503550D01*
X77049323Y-111533158D01*
X77077638Y-111572902D01*
X77098812Y-111630928D01*
X77110781Y-111713318D01*
X77397644Y-111684650D01*
X77375858Y-111565854D01*
X77340906Y-111472129D01*
X77294471Y-111398799D01*
X77236810Y-111342374D01*
X77166938Y-111297959D01*
X77088359Y-111265636D01*
X76999557Y-111245527D01*
X76898656Y-111238510D01*
X76787854Y-111246845D01*
X76694605Y-111270312D01*
X76615855Y-111307458D01*
X76549236Y-111358036D01*
X76493337Y-111421852D01*
X76454119Y-111491683D01*
X76430367Y-111568845D01*
X76422199Y-111655249D01*
X76431350Y-111754259D01*
X76458561Y-111847773D01*
X76503636Y-111938105D01*
X76573874Y-112039199D01*
X76638255Y-112111137D01*
X76762369Y-112230258D01*
X76935018Y-112395671D01*
X76993911Y-112475355D01*
X76422199Y-112475355D01*
G37*
G36*
X75847795Y-111248790D02*
G01*
X75937963Y-111278067D01*
X76015173Y-111325520D01*
X76081572Y-111392383D01*
X76129253Y-111466080D01*
X76169387Y-111559711D01*
X76200791Y-111677315D01*
X76221550Y-111823599D01*
X76229125Y-112003845D01*
X76221921Y-112190305D01*
X76202438Y-112337478D01*
X76173466Y-112451965D01*
X76137167Y-112539650D01*
X76094945Y-112605598D01*
X76021751Y-112680014D01*
X75939815Y-112731943D01*
X75847326Y-112763420D01*
X75741403Y-112774309D01*
X75634961Y-112764027D01*
X75544764Y-112734746D01*
X75467541Y-112687293D01*
X75401142Y-112620436D01*
X75353512Y-112546771D01*
X75313387Y-112453013D01*
X75281964Y-112335070D01*
X75261178Y-112188169D01*
X75253589Y-112006959D01*
X75554832Y-112006959D01*
X75563890Y-112251798D01*
X75584508Y-112381475D01*
X75613967Y-112458370D01*
X75648163Y-112500726D01*
X75691993Y-112525679D01*
X75741403Y-112533974D01*
X75790698Y-112525793D01*
X75834093Y-112501276D01*
X75856736Y-112476246D01*
X75879309Y-112434496D01*
X75901229Y-112369751D01*
X75919560Y-112250399D01*
X75927882Y-112006959D01*
X75918841Y-111761917D01*
X75898207Y-111631344D01*
X75868768Y-111554438D01*
X75834643Y-111512092D01*
X75790749Y-111487132D01*
X75741403Y-111478845D01*
X75692068Y-111487153D01*
X75648621Y-111512092D01*
X75614641Y-111555931D01*
X75581485Y-111644166D01*
X75563157Y-111763449D01*
X75554832Y-112006959D01*
X75253589Y-112006959D01*
X75261163Y-111825006D01*
X75281876Y-111677974D01*
X75313129Y-111560363D01*
X75352956Y-111467270D01*
X75400135Y-111394489D01*
X75467143Y-111326579D01*
X75544765Y-111278493D01*
X75635107Y-111248888D01*
X75741403Y-111238510D01*
X75847795Y-111248790D01*
G37*
G36*
X74089192Y-112475355D02*
G01*
X74089192Y-112745000D01*
X75098434Y-112745000D01*
X75080338Y-112646409D01*
X75047754Y-112551184D01*
X75000065Y-112458411D01*
X74938580Y-112371792D01*
X74835223Y-112254653D01*
X74676290Y-112099191D01*
X74502542Y-111929992D01*
X74437604Y-111853910D01*
X74403572Y-111792587D01*
X74384350Y-111734399D01*
X74378162Y-111678147D01*
X74384547Y-111616141D01*
X74402135Y-111567979D01*
X74429911Y-111530502D01*
X74467392Y-111502557D01*
X74514159Y-111485104D01*
X74572884Y-111478845D01*
X74630700Y-111485312D01*
X74677704Y-111503550D01*
X74716316Y-111533158D01*
X74744630Y-111572902D01*
X74765805Y-111630928D01*
X74777773Y-111713318D01*
X75064637Y-111684650D01*
X75042850Y-111565854D01*
X75007898Y-111472129D01*
X74961463Y-111398799D01*
X74903803Y-111342374D01*
X74833930Y-111297959D01*
X74755351Y-111265636D01*
X74666549Y-111245527D01*
X74565648Y-111238510D01*
X74454846Y-111246845D01*
X74361597Y-111270312D01*
X74282848Y-111307458D01*
X74216229Y-111358036D01*
X74160329Y-111421852D01*
X74121111Y-111491683D01*
X74097359Y-111568845D01*
X74089192Y-111655249D01*
X74098343Y-111754259D01*
X74125553Y-111847773D01*
X74170628Y-111938105D01*
X74240867Y-112039199D01*
X74305247Y-112111137D01*
X74429361Y-112230258D01*
X74602010Y-112395671D01*
X74660903Y-112475355D01*
X74089192Y-112475355D01*
G37*
G36*
X73905368Y-112340625D02*
G01*
X73626657Y-112305362D01*
X73611712Y-112377099D01*
X73587494Y-112432655D01*
X73554941Y-112475264D01*
X73513014Y-112508023D01*
X73466421Y-112527371D01*
X73413524Y-112533974D01*
X73357034Y-112526407D01*
X73307633Y-112504195D01*
X73263407Y-112466288D01*
X73230470Y-112417794D01*
X73209809Y-112357922D01*
X73202407Y-112283564D01*
X73209498Y-112213236D01*
X73229283Y-112156745D01*
X73260842Y-112111098D01*
X73303091Y-112075422D01*
X73349980Y-112054541D01*
X73403266Y-112047442D01*
X73460772Y-112052313D01*
X73535432Y-112068966D01*
X73503650Y-111836416D01*
X73427477Y-111831453D01*
X73369472Y-111814055D01*
X73325414Y-111786041D01*
X73291430Y-111746807D01*
X73271000Y-111700191D01*
X73263865Y-111643892D01*
X73269242Y-111595510D01*
X73284408Y-111556122D01*
X73309019Y-111523724D01*
X73341551Y-111499234D01*
X73380842Y-111484172D01*
X73428820Y-111478845D01*
X73475981Y-111484579D01*
X73517547Y-111501359D01*
X73554941Y-111529678D01*
X73583972Y-111566685D01*
X73605405Y-111615195D01*
X73618414Y-111678147D01*
X73883845Y-111633450D01*
X73860737Y-111543319D01*
X73832609Y-111471260D01*
X73800314Y-111414364D01*
X73758883Y-111364313D01*
X73707422Y-111321445D01*
X73644609Y-111285496D01*
X73576560Y-111259755D01*
X73502280Y-111243950D01*
X73420669Y-111238510D01*
X73316464Y-111247583D01*
X73226681Y-111273502D01*
X73148637Y-111315400D01*
X73080408Y-111373881D01*
X73033192Y-111432624D01*
X73000651Y-111493289D01*
X72981377Y-111556726D01*
X72974895Y-111624108D01*
X72983141Y-111698328D01*
X73007422Y-111765551D01*
X73048380Y-111827621D01*
X73108347Y-111885651D01*
X73191141Y-111939914D01*
X73109652Y-111966573D01*
X73041556Y-112007785D01*
X72984695Y-112064112D01*
X72942126Y-112131949D01*
X72916262Y-112208786D01*
X72907301Y-112297028D01*
X72916468Y-112393104D01*
X72943301Y-112480198D01*
X72987904Y-112560282D01*
X73051831Y-112634724D01*
X73128152Y-112695587D01*
X73212359Y-112738793D01*
X73306051Y-112765189D01*
X73411418Y-112774309D01*
X73512049Y-112766325D01*
X73600670Y-112743368D01*
X73679349Y-112706168D01*
X73749664Y-112654416D01*
X73809346Y-112590288D01*
X73854881Y-112517579D01*
X73886976Y-112434980D01*
X73905368Y-112340625D01*
G37*
G36*
X82521310Y-114995000D02*
G01*
X82217960Y-114995000D01*
X82217960Y-114367784D01*
X82156502Y-114367784D01*
X82059096Y-114372845D01*
X82003820Y-114384728D01*
X81958107Y-114407946D01*
X81912595Y-114447102D01*
X81862289Y-114509726D01*
X81752769Y-114667653D01*
X81533500Y-114995000D01*
X81170799Y-114995000D01*
X81354165Y-114701908D01*
X81459969Y-114541655D01*
X81526905Y-114458001D01*
X81597518Y-114393680D01*
X81689296Y-114331880D01*
X81590957Y-114310715D01*
X81510468Y-114279869D01*
X81444956Y-114240350D01*
X81392175Y-114192387D01*
X81349290Y-114134381D01*
X81318425Y-114069239D01*
X81299350Y-113995616D01*
X81294144Y-113929887D01*
X81605216Y-113929887D01*
X81613342Y-113994368D01*
X81635990Y-114044284D01*
X81672352Y-114083082D01*
X81720987Y-114108764D01*
X81795246Y-114121138D01*
X81993562Y-114127449D01*
X82217960Y-114127449D01*
X82217960Y-113740568D01*
X81981289Y-113740568D01*
X81759913Y-113745789D01*
X81693162Y-113767674D01*
X81645699Y-113805598D01*
X81623786Y-113839202D01*
X81610093Y-113880000D01*
X81605216Y-113929887D01*
X81294144Y-113929887D01*
X81292707Y-113911752D01*
X81300245Y-113824399D01*
X81322184Y-113745664D01*
X81358286Y-113673890D01*
X81407543Y-113610852D01*
X81465429Y-113563116D01*
X81533042Y-113529176D01*
X81607876Y-113508914D01*
X81720550Y-113494252D01*
X81882920Y-113488510D01*
X82521310Y-113488510D01*
X82521310Y-114995000D01*
G37*
G36*
X81007035Y-114995000D02*
G01*
X81007035Y-113488510D01*
X79893196Y-113488510D01*
X79893196Y-113740568D01*
X80703777Y-113740568D01*
X80703777Y-114074692D01*
X79949616Y-114074692D01*
X79949616Y-114326751D01*
X80703777Y-114326751D01*
X80703777Y-114742941D01*
X79864528Y-114742941D01*
X79864528Y-114995000D01*
X81007035Y-114995000D01*
G37*
G36*
X79224306Y-114995000D02*
G01*
X79761213Y-113488510D01*
X79432309Y-113488510D01*
X79052115Y-114602257D01*
X78684285Y-113488510D01*
X78362526Y-113488510D01*
X78900532Y-114995000D01*
X79224306Y-114995000D01*
G37*
G36*
X76663603Y-114438126D02*
G01*
X76369504Y-114531915D01*
X76411467Y-114653438D01*
X76463294Y-114753065D01*
X76524273Y-114833986D01*
X76594452Y-114898646D01*
X76675546Y-114949628D01*
X76767730Y-114986936D01*
X76872930Y-115010268D01*
X76993514Y-115018447D01*
X77111871Y-115009833D01*
X77218557Y-114984870D01*
X77315455Y-114944217D01*
X77404071Y-114887637D01*
X77485450Y-114814016D01*
X77552541Y-114729640D01*
X77605601Y-114633492D01*
X77644779Y-114523871D01*
X77669413Y-114398583D01*
X77678066Y-114255035D01*
X77669208Y-114102299D01*
X77644131Y-113970436D01*
X77604522Y-113856469D01*
X77551273Y-113757860D01*
X77484442Y-113672608D01*
X77402799Y-113598440D01*
X77312507Y-113541092D01*
X77212350Y-113499608D01*
X77100599Y-113473963D01*
X76975104Y-113465062D01*
X76839026Y-113476036D01*
X76721014Y-113507397D01*
X76617905Y-113557937D01*
X76527315Y-113628003D01*
X76467339Y-113697747D01*
X76415842Y-113788544D01*
X76373626Y-113904699D01*
X76673861Y-113975041D01*
X76698715Y-113901235D01*
X76735688Y-113840475D01*
X76785053Y-113790669D01*
X76844528Y-113753499D01*
X76912281Y-113730850D01*
X76990491Y-113722983D01*
X77071692Y-113730822D01*
X77142676Y-113753438D01*
X77205517Y-113790536D01*
X77261601Y-113843242D01*
X77303253Y-113905113D01*
X77335769Y-113987086D01*
X77357497Y-114094198D01*
X77365557Y-114232504D01*
X77357436Y-114380257D01*
X77335730Y-114492808D01*
X77303626Y-114577203D01*
X77263066Y-114639351D01*
X77207648Y-114692621D01*
X77145780Y-114729973D01*
X77076122Y-114752673D01*
X76996628Y-114760526D01*
X76918993Y-114751698D01*
X76850383Y-114725932D01*
X76788625Y-114682766D01*
X76739009Y-114625492D01*
X76696926Y-114545872D01*
X76663603Y-114438126D01*
G37*
D12*
G36*
X82500000Y-110617500D02*
G01*
X82017360Y-110617500D01*
X81831339Y-110107520D01*
X80930770Y-110107520D01*
X80734032Y-110617500D01*
X80239028Y-110617500D01*
X80593596Y-109729433D01*
X81076674Y-109729433D01*
X81691479Y-109729433D01*
X81387168Y-108885329D01*
X81076674Y-109729433D01*
X80593596Y-109729433D01*
X81141246Y-108357765D01*
X81622374Y-108357765D01*
X82500000Y-110617500D01*
G37*
G36*
X79995030Y-110617500D02*
G01*
X79995030Y-108357765D01*
X78450255Y-108357765D01*
X78450255Y-108735853D01*
X79540005Y-108735853D01*
X79540005Y-109281003D01*
X78599319Y-109281003D01*
X78599319Y-109659091D01*
X79540005Y-109659091D01*
X79540005Y-110617500D01*
X79995030Y-110617500D01*
G37*
G36*
X78074640Y-110617500D02*
G01*
X78074640Y-108357765D01*
X76403881Y-108357765D01*
X76403881Y-108735853D01*
X77619753Y-108735853D01*
X77619753Y-109237039D01*
X76488511Y-109237039D01*
X76488511Y-109615127D01*
X77619753Y-109615127D01*
X77619753Y-110239412D01*
X76360879Y-110239412D01*
X76360879Y-110617500D01*
X78074640Y-110617500D01*
G37*
G36*
X75215762Y-109896495D02*
G01*
X74773102Y-109852531D01*
X74734505Y-109992215D01*
X74679933Y-110096424D01*
X74610986Y-110172504D01*
X74524099Y-110227339D01*
X74416060Y-110262074D01*
X74281258Y-110274583D01*
X74137184Y-110262733D01*
X74029571Y-110230978D01*
X73950019Y-110182946D01*
X73886355Y-110115957D01*
X73850462Y-110045383D01*
X73838599Y-109968623D01*
X73850561Y-109895064D01*
X73885447Y-109834671D01*
X73944048Y-109786470D01*
X74049212Y-109738500D01*
X74413424Y-109638483D01*
X74655410Y-109564213D01*
X74820256Y-109488384D01*
X74926838Y-109413031D01*
X75019005Y-109312313D01*
X75082920Y-109204009D01*
X75121223Y-109086219D01*
X75134292Y-108956083D01*
X75123518Y-108843313D01*
X75091326Y-108735806D01*
X75036747Y-108631714D01*
X74963277Y-108540195D01*
X74870422Y-108463700D01*
X74755379Y-108401591D01*
X74630467Y-108359232D01*
X74483921Y-108332204D01*
X74312033Y-108322594D01*
X74096896Y-108336409D01*
X73923502Y-108374410D01*
X73784354Y-108432755D01*
X73673323Y-108509577D01*
X73579434Y-108610013D01*
X73511171Y-108724693D01*
X73467132Y-108856229D01*
X73448146Y-109008428D01*
X73903170Y-109026013D01*
X73932492Y-108914847D01*
X73974750Y-108833960D01*
X74028467Y-108776656D01*
X74096821Y-108737027D01*
X74190321Y-108710598D01*
X74316567Y-108700682D01*
X74446667Y-108711004D01*
X74548177Y-108739161D01*
X74627060Y-108782427D01*
X74667573Y-108821750D01*
X74691206Y-108867688D01*
X74699326Y-108922561D01*
X74682857Y-108996110D01*
X74631731Y-109059810D01*
X74566988Y-109099589D01*
X74438363Y-109149812D01*
X74213664Y-109211897D01*
X73905065Y-109299376D01*
X73722644Y-109375525D01*
X73623294Y-109439004D01*
X73540865Y-109515157D01*
X73473700Y-109604823D01*
X73425114Y-109705515D01*
X73394541Y-109824046D01*
X73383712Y-109964226D01*
X73395597Y-110090397D01*
X73431112Y-110210809D01*
X73491285Y-110327476D01*
X73572279Y-110430025D01*
X73672830Y-110513553D01*
X73795597Y-110579169D01*
X73929312Y-110622888D01*
X74091044Y-110651245D01*
X74285929Y-110661463D01*
X74501595Y-110647307D01*
X74678623Y-110608027D01*
X74823687Y-110547104D01*
X74942225Y-110466099D01*
X75042040Y-110361311D01*
X75121104Y-110234193D01*
X75179574Y-110080959D01*
X75215762Y-109896495D01*
G37*
G36*
X72573955Y-108357765D02*
G01*
X72573955Y-109185244D01*
X72460495Y-109074043D01*
X72340943Y-108998120D01*
X72213302Y-108953249D01*
X72074417Y-108938086D01*
X71930644Y-108952411D01*
X71805414Y-108993727D01*
X71697741Y-109059146D01*
X71624751Y-109136060D01*
X71573730Y-109227084D01*
X71541769Y-109327851D01*
X71526128Y-109447467D01*
X71519513Y-109654145D01*
X71519513Y-110617500D01*
X71951456Y-110617500D01*
X71951456Y-109751002D01*
X71959638Y-109516181D01*
X71976048Y-109423610D01*
X72009996Y-109361307D01*
X72062877Y-109313151D01*
X72130723Y-109283056D01*
X72218948Y-109272210D01*
X72321685Y-109285587D01*
X72411014Y-109324692D01*
X72483205Y-109389259D01*
X72534800Y-109483098D01*
X72562538Y-109601822D01*
X72573955Y-109795790D01*
X72573955Y-110617500D01*
X73005898Y-110617500D01*
X73005898Y-108357765D01*
X72573955Y-108357765D01*
G37*
G36*
X71080837Y-108753438D02*
G01*
X71080837Y-108357765D01*
X70649031Y-108357765D01*
X70649031Y-108753438D01*
X71080837Y-108753438D01*
G37*
G36*
X71080837Y-110617500D02*
G01*
X71080837Y-108982049D01*
X70649031Y-108982049D01*
X70649031Y-110617500D01*
X71080837Y-110617500D01*
G37*
G36*
X69741194Y-108953089D02*
G01*
X69880869Y-108996594D01*
X70006289Y-109068256D01*
X70119955Y-109170269D01*
X70209342Y-109291525D01*
X70275321Y-109435723D01*
X70317174Y-109607356D01*
X70332080Y-109812139D01*
X70321022Y-109983704D01*
X70289489Y-110133564D01*
X70239169Y-110264942D01*
X70170651Y-110380508D01*
X70082481Y-110479425D01*
X69978272Y-110556494D01*
X69855730Y-110613089D01*
X69711338Y-110648801D01*
X69540596Y-110661463D01*
X69365138Y-110646383D01*
X69217550Y-110603760D01*
X69092578Y-110535617D01*
X68985967Y-110441332D01*
X68898688Y-110320684D01*
X68830445Y-110169070D01*
X69260740Y-110098728D01*
X69306978Y-110206539D01*
X69365291Y-110273209D01*
X69440928Y-110313302D01*
X69535925Y-110327339D01*
X69630707Y-110315274D01*
X69712612Y-110280142D01*
X69784870Y-110220864D01*
X69838952Y-110144188D01*
X69874433Y-110046749D01*
X69889421Y-109922873D01*
X68807364Y-109922873D01*
X68814031Y-109714424D01*
X68822310Y-109659091D01*
X69236147Y-109659091D01*
X69881727Y-109659091D01*
X69871335Y-109543267D01*
X69840524Y-109450702D01*
X69791052Y-109376349D01*
X69723844Y-109318322D01*
X69647027Y-109284007D01*
X69557357Y-109272210D01*
X69473483Y-109283227D01*
X69399606Y-109315616D01*
X69333005Y-109370853D01*
X69283578Y-109442089D01*
X69250481Y-109535995D01*
X69236147Y-109659091D01*
X68822310Y-109659091D01*
X68839997Y-109540886D01*
X68882277Y-109396985D01*
X68938849Y-109278108D01*
X69008773Y-109180436D01*
X69121997Y-109075602D01*
X69252940Y-109000708D01*
X69405115Y-108954357D01*
X69583598Y-108938086D01*
X69741194Y-108953089D01*
G37*
G36*
X68456204Y-110617500D02*
G01*
X68456204Y-108357765D01*
X68024398Y-108357765D01*
X68024398Y-110617500D01*
X68456204Y-110617500D01*
G37*
G36*
X66516168Y-109165598D02*
G01*
X66624076Y-109063414D01*
X66737545Y-108993467D01*
X66858434Y-108952072D01*
X66989602Y-108938086D01*
X67134236Y-108952125D01*
X67262590Y-108992887D01*
X67378067Y-109060181D01*
X67482957Y-109156256D01*
X67563803Y-109269666D01*
X67624652Y-109409718D01*
X67663972Y-109582036D01*
X67678183Y-109793592D01*
X67663931Y-109999231D01*
X67624070Y-110170542D01*
X67561604Y-110313381D01*
X67477599Y-110432440D01*
X67369286Y-110534943D01*
X67254347Y-110605391D01*
X67130842Y-110647262D01*
X66995784Y-110661463D01*
X66859818Y-110643968D01*
X66721423Y-110589610D01*
X66636102Y-110535095D01*
X66557636Y-110465029D01*
X66485530Y-110377760D01*
X66485530Y-110617500D01*
X66084361Y-110617500D01*
X66084361Y-109811590D01*
X66514656Y-109811590D01*
X66528236Y-109980295D01*
X66564533Y-110105787D01*
X66619207Y-110198058D01*
X66695905Y-110271393D01*
X66779353Y-110313300D01*
X66872823Y-110327339D01*
X66961536Y-110316513D01*
X67038042Y-110285094D01*
X67105305Y-110232413D01*
X67164770Y-110154919D01*
X67201210Y-110071448D01*
X67226996Y-109947361D01*
X67237035Y-109769137D01*
X67223607Y-109606824D01*
X67187656Y-109485920D01*
X67133308Y-109396820D01*
X67057269Y-109326678D01*
X66972593Y-109285999D01*
X66875846Y-109272210D01*
X66776322Y-109286339D01*
X66691030Y-109327676D01*
X66616185Y-109398468D01*
X66564289Y-109488906D01*
X66528473Y-109621734D01*
X66514656Y-109811590D01*
X66084361Y-109811590D01*
X66084361Y-108357765D01*
X66516168Y-108357765D01*
X66516168Y-109165598D01*
G37*
D11*
G36*
X52504376Y-89551077D02*
G01*
X52449666Y-89556526D01*
X52456932Y-89730488D01*
X52449986Y-90132375D01*
X52504269Y-90147335D01*
X52521202Y-90042599D01*
X52536647Y-89994637D01*
X52559245Y-89961265D01*
X52587831Y-89939179D01*
X52642281Y-89924494D01*
X52799912Y-89910354D01*
X53146475Y-89903702D01*
X53444818Y-89908511D01*
X53566396Y-89916365D01*
X53644960Y-89927531D01*
X53729641Y-89955456D01*
X53795423Y-89996328D01*
X53845746Y-90050071D01*
X53882287Y-90118483D01*
X53915826Y-90221064D01*
X53934869Y-90315297D01*
X53940951Y-90402400D01*
X53936095Y-90480663D01*
X53919580Y-90582133D01*
X53889745Y-90683854D01*
X53842644Y-90780458D01*
X53800332Y-90836945D01*
X53750324Y-90878258D01*
X53691549Y-90906121D01*
X53557974Y-90937359D01*
X53322533Y-90961637D01*
X52942166Y-90971624D01*
X52785869Y-90968644D01*
X52691802Y-90961472D01*
X52614593Y-90946944D01*
X52571482Y-90929309D01*
X52541277Y-90903487D01*
X52526602Y-90873316D01*
X52518481Y-90761544D01*
X52464198Y-90756095D01*
X52456932Y-90879407D01*
X52463984Y-91228292D01*
X52525213Y-91228292D01*
X52532497Y-91150306D01*
X52542630Y-91113849D01*
X52561556Y-91090490D01*
X52592319Y-91078053D01*
X52748329Y-91069290D01*
X53148078Y-91058498D01*
X53435308Y-91040546D01*
X53544919Y-91027113D01*
X53636518Y-91009985D01*
X53720237Y-90986650D01*
X53780240Y-90961259D01*
X53842482Y-90918154D01*
X53895180Y-90861389D01*
X53938921Y-90789006D01*
X53985827Y-90670710D01*
X54012545Y-90553602D01*
X54025768Y-90437281D01*
X54029856Y-90337859D01*
X54017271Y-90180132D01*
X53980809Y-90038769D01*
X53940580Y-89952554D01*
X53886448Y-89878259D01*
X53817532Y-89814477D01*
X53737182Y-89767304D01*
X53640567Y-89737708D01*
X53523678Y-89727176D01*
X53286243Y-89730168D01*
X52996876Y-89733160D01*
X52691184Y-89722849D01*
X52554171Y-89700996D01*
X52532443Y-89689873D01*
X52521900Y-89674389D01*
X52504376Y-89551077D01*
G37*
G36*
X53988823Y-91305443D02*
G01*
X53948431Y-91302664D01*
X53922679Y-91398942D01*
X53907800Y-91424459D01*
X53893507Y-91437196D01*
X53848734Y-91449912D01*
X53685031Y-91462949D01*
X53488415Y-91466582D01*
X53361290Y-91463788D01*
X53300882Y-91457713D01*
X53258396Y-91442862D01*
X53237944Y-91420741D01*
X53227042Y-91385569D01*
X53215718Y-91310037D01*
X53193278Y-91306191D01*
X53140598Y-91446386D01*
X53097535Y-91536145D01*
X53072424Y-91592031D01*
X53079829Y-91607880D01*
X53107579Y-91617890D01*
X53214756Y-91622913D01*
X53153340Y-91745448D01*
X53116449Y-91834808D01*
X53093418Y-91919814D01*
X53086101Y-91998405D01*
X53092826Y-92075078D01*
X53110637Y-92130441D01*
X53137392Y-92169803D01*
X53193997Y-92213643D01*
X53261025Y-92236588D01*
X53339005Y-92245730D01*
X53451015Y-92249304D01*
X53733116Y-92249304D01*
X53881430Y-92255018D01*
X53913169Y-92263836D01*
X53932617Y-92323783D01*
X53948859Y-92386721D01*
X54003142Y-92389392D01*
X53992616Y-92292849D01*
X53988823Y-92177817D01*
X54002821Y-91934078D01*
X53955270Y-91934078D01*
X53935092Y-92005820D01*
X53912293Y-92047703D01*
X53888057Y-92069465D01*
X53837926Y-92082608D01*
X53721469Y-92093614D01*
X53522930Y-92100239D01*
X53350143Y-92091370D01*
X53287210Y-92074459D01*
X53235807Y-92042644D01*
X53210651Y-92012872D01*
X53194599Y-91972596D01*
X53188683Y-91918370D01*
X53204391Y-91803179D01*
X53228048Y-91724147D01*
X53274809Y-91622913D01*
X53595485Y-91615753D01*
X53867968Y-91620455D01*
X53910070Y-91631247D01*
X53921981Y-91643371D01*
X53935074Y-91669929D01*
X53955056Y-91777320D01*
X54002821Y-91774542D01*
X53995662Y-91695682D01*
X53988823Y-91570339D01*
X53988823Y-91305443D01*
G37*
G36*
X54002607Y-92488448D02*
G01*
X53948111Y-92493898D01*
X53931742Y-92583499D01*
X53914344Y-92608768D01*
X53831531Y-92619133D01*
X53657034Y-92626934D01*
X53542698Y-92629926D01*
X53329947Y-92624583D01*
X53287907Y-92615879D01*
X53266688Y-92604494D01*
X53255896Y-92544655D01*
X53246078Y-92497329D01*
X53237089Y-92488769D01*
X53219186Y-92494601D01*
X53209307Y-92512811D01*
X53174888Y-92604212D01*
X53125241Y-92696740D01*
X53058746Y-92791065D01*
X53064623Y-92819061D01*
X53209413Y-92798118D01*
X53405708Y-92784333D01*
X53587791Y-92778990D01*
X53757372Y-92783158D01*
X53858849Y-92789874D01*
X53906223Y-92797904D01*
X53931655Y-92820237D01*
X53940738Y-92876229D01*
X53948111Y-92962035D01*
X53988716Y-92979132D01*
X54002607Y-92488448D01*
G37*
G36*
X52573191Y-92669356D02*
G01*
X52534843Y-92676606D01*
X52504483Y-92697886D01*
X52484222Y-92729158D01*
X52477448Y-92766061D01*
X52484548Y-92802735D01*
X52505765Y-92833060D01*
X52536727Y-92853496D01*
X52573191Y-92860308D01*
X52609715Y-92853617D01*
X52640725Y-92833594D01*
X52661783Y-92803643D01*
X52668935Y-92766061D01*
X52661904Y-92729248D01*
X52640725Y-92697886D01*
X52609575Y-92676443D01*
X52573191Y-92669356D01*
G37*
G36*
X54057211Y-93462122D02*
G01*
X54057211Y-93420021D01*
X53913297Y-93380610D01*
X53730338Y-93319576D01*
X53378246Y-93182907D01*
X53232017Y-93117991D01*
X53201079Y-93099986D01*
X53171800Y-93059167D01*
X53143804Y-93012899D01*
X53110892Y-93012899D01*
X53113457Y-93143049D01*
X53113457Y-93452826D01*
X53167846Y-93447376D01*
X53185157Y-93339451D01*
X53196064Y-93323358D01*
X53209841Y-93318614D01*
X53279652Y-93330675D01*
X53477516Y-93390208D01*
X53677351Y-93459422D01*
X53781415Y-93501018D01*
X53651743Y-93573223D01*
X53488095Y-93646556D01*
X53327493Y-93702400D01*
X53244890Y-93715799D01*
X53197814Y-93706507D01*
X53173617Y-93682353D01*
X53161129Y-93645110D01*
X53154382Y-93587571D01*
X53102664Y-93593021D01*
X53099779Y-93680109D01*
X53113457Y-93792094D01*
X53109728Y-93865759D01*
X53098924Y-93933038D01*
X53139636Y-93933038D01*
X53172176Y-93882329D01*
X53224801Y-93838470D01*
X53284762Y-93804065D01*
X53332191Y-93783225D01*
X53378246Y-93762923D01*
X53430178Y-93738880D01*
X53903658Y-93523885D01*
X54057211Y-93462122D01*
G37*
G36*
X53694743Y-93988544D02*
G01*
X53794036Y-94020615D01*
X53885279Y-94074088D01*
X53942653Y-94127220D01*
X53982926Y-94188548D01*
X54007566Y-94259689D01*
X54016178Y-94343259D01*
X54008523Y-94420160D01*
X53983934Y-94506673D01*
X53939143Y-94605044D01*
X53869892Y-94717576D01*
X53837194Y-94691824D01*
X53882445Y-94616024D01*
X53908040Y-94554941D01*
X53922677Y-94495012D01*
X53927274Y-94441246D01*
X53914415Y-94361307D01*
X53875618Y-94289074D01*
X53806633Y-94221656D01*
X53741880Y-94181192D01*
X53681504Y-94158184D01*
X53613571Y-94145551D01*
X53509359Y-94136385D01*
X53378994Y-94734139D01*
X53328024Y-94731361D01*
X53322467Y-94695243D01*
X53299493Y-94676223D01*
X53221013Y-94632987D01*
X53164213Y-94582831D01*
X53121617Y-94524545D01*
X53096894Y-94468067D01*
X53083541Y-94409747D01*
X53079263Y-94355227D01*
X53088745Y-94308531D01*
X53161328Y-94308531D01*
X53171095Y-94375271D01*
X53199583Y-94431629D01*
X53240764Y-94478962D01*
X53283892Y-94512305D01*
X53327332Y-94535379D01*
X53348327Y-94540622D01*
X53357500Y-94537193D01*
X53364996Y-94525128D01*
X53385085Y-94447764D01*
X53403358Y-94363241D01*
X53422805Y-94290686D01*
X53455717Y-94138950D01*
X53352595Y-94154340D01*
X53255896Y-94184043D01*
X53201556Y-94215970D01*
X53171533Y-94256581D01*
X53161328Y-94308531D01*
X53088745Y-94308531D01*
X53089691Y-94303872D01*
X53131408Y-94215993D01*
X53171047Y-94159311D01*
X53225690Y-94104391D01*
X53297890Y-94051007D01*
X53377253Y-94011466D01*
X53471839Y-93986486D01*
X53585013Y-93977597D01*
X53694743Y-93988544D01*
G37*
G36*
X54002607Y-94817380D02*
G01*
X53962002Y-94820158D01*
X53938494Y-94903934D01*
X53921445Y-94922856D01*
X53884424Y-94942188D01*
X53835989Y-94954935D01*
X53754808Y-94963987D01*
X53487881Y-94969436D01*
X53357769Y-94964590D01*
X53300134Y-94954370D01*
X53275179Y-94939870D01*
X53259985Y-94916164D01*
X53254293Y-94879677D01*
X53264979Y-94800390D01*
X53214008Y-94805946D01*
X53029040Y-95120638D01*
X53232067Y-95125660D01*
X53162076Y-95248438D01*
X53151284Y-95265108D01*
X53133973Y-95295027D01*
X53099352Y-95352302D01*
X53058212Y-95418553D01*
X53064196Y-95430307D01*
X53076057Y-95446550D01*
X53095290Y-95480108D01*
X53115807Y-95503931D01*
X53141909Y-95519258D01*
X53180883Y-95524982D01*
X53225143Y-95515220D01*
X53260811Y-95485659D01*
X53285399Y-95442609D01*
X53298532Y-95387885D01*
X53256669Y-95382721D01*
X53230998Y-95369613D01*
X53214875Y-95348231D01*
X53209200Y-95318322D01*
X53214846Y-95282463D01*
X53234738Y-95234867D01*
X53282824Y-95161564D01*
X53308639Y-95136711D01*
X53325459Y-95127263D01*
X53410196Y-95120959D01*
X53625084Y-95113799D01*
X53836890Y-95121859D01*
X53913169Y-95137414D01*
X53934967Y-95159534D01*
X53938921Y-95203452D01*
X53936463Y-95234440D01*
X53934006Y-95380512D01*
X53988823Y-95377734D01*
X53990853Y-95299195D01*
X53992777Y-95206016D01*
X54002607Y-94817380D01*
G37*
G36*
X53728628Y-95588989D02*
G01*
X53731513Y-95639425D01*
X53757425Y-95646716D01*
X53805137Y-95677680D01*
X53851000Y-95721418D01*
X53894362Y-95781116D01*
X53924160Y-95849050D01*
X53934113Y-95922915D01*
X53928415Y-95977737D01*
X53910925Y-96033190D01*
X53890427Y-96062761D01*
X53858415Y-96081119D01*
X53810373Y-96088008D01*
X53758555Y-96081389D01*
X53715323Y-96062372D01*
X53678619Y-96030626D01*
X53632250Y-95969092D01*
X53591638Y-95898658D01*
X53549644Y-95809006D01*
X53505536Y-95735159D01*
X53462556Y-95682595D01*
X53411234Y-95647144D01*
X53345014Y-95634937D01*
X53289609Y-95644257D01*
X53227579Y-95674901D01*
X53172474Y-95722639D01*
X53126172Y-95790306D01*
X53096390Y-95869650D01*
X53086101Y-95961169D01*
X53105656Y-96155327D01*
X53311782Y-96196039D01*
X53311782Y-96147420D01*
X53272163Y-96130013D01*
X53233884Y-96097945D01*
X53201007Y-96056861D01*
X53172869Y-96008186D01*
X53153213Y-95957938D01*
X53147651Y-95920564D01*
X53157328Y-95863520D01*
X53184943Y-95820119D01*
X53226868Y-95791449D01*
X53279832Y-95781651D01*
X53321923Y-95788895D01*
X53352708Y-95809327D01*
X53380929Y-95845094D01*
X53422485Y-95917358D01*
X53458923Y-95990127D01*
X53512674Y-96084360D01*
X53570801Y-96160670D01*
X53618089Y-96199836D01*
X53676173Y-96223850D01*
X53748289Y-96232370D01*
X53791253Y-96228166D01*
X53839117Y-96214739D01*
X53881358Y-96191859D01*
X53908146Y-96161418D01*
X53963562Y-96064496D01*
X53990639Y-95996752D01*
X54004667Y-95931148D01*
X54009339Y-95864357D01*
X54003142Y-95795756D01*
X53993204Y-95733352D01*
X53975680Y-95670948D01*
X53957407Y-95610574D01*
X53888164Y-95620618D01*
X53808556Y-95610467D01*
X53728628Y-95588989D01*
G37*
G36*
X54002607Y-96395112D02*
G01*
X53948111Y-96400562D01*
X53931742Y-96490163D01*
X53914344Y-96515433D01*
X53831531Y-96525798D01*
X53657034Y-96533598D01*
X53542698Y-96536590D01*
X53329947Y-96531247D01*
X53287907Y-96522544D01*
X53266688Y-96511158D01*
X53255896Y-96451319D01*
X53246078Y-96403993D01*
X53237089Y-96395433D01*
X53219186Y-96401265D01*
X53209307Y-96419476D01*
X53174888Y-96510877D01*
X53125241Y-96603405D01*
X53058746Y-96697729D01*
X53064623Y-96725726D01*
X53209413Y-96704782D01*
X53405708Y-96690997D01*
X53587791Y-96685655D01*
X53757372Y-96689822D01*
X53858849Y-96696539D01*
X53906223Y-96704568D01*
X53931655Y-96726901D01*
X53940738Y-96782894D01*
X53948111Y-96868699D01*
X53988716Y-96885796D01*
X54002607Y-96395112D01*
G37*
G36*
X52573191Y-96576020D02*
G01*
X52534843Y-96583270D01*
X52504483Y-96604551D01*
X52484222Y-96635822D01*
X52477448Y-96672725D01*
X52484548Y-96709400D01*
X52505765Y-96739724D01*
X52536727Y-96760160D01*
X52573191Y-96766972D01*
X52609715Y-96760281D01*
X52640725Y-96740258D01*
X52661783Y-96710307D01*
X52668935Y-96672725D01*
X52661904Y-96635912D01*
X52640725Y-96604551D01*
X52609575Y-96583107D01*
X52573191Y-96576020D01*
G37*
G36*
X53653294Y-97078031D02*
G01*
X53188683Y-97084015D01*
X53181845Y-96954719D01*
X53155344Y-96958459D01*
X53087569Y-97056405D01*
X53030109Y-97122162D01*
X52859994Y-97267273D01*
X53083644Y-97254878D01*
X53092940Y-97475963D01*
X53090482Y-97607397D01*
X53173937Y-97604832D01*
X53181845Y-97473613D01*
X53180028Y-97426810D01*
X53174578Y-97300185D01*
X53178425Y-97267807D01*
X53193064Y-97253702D01*
X53236555Y-97248146D01*
X53305798Y-97245047D01*
X53673276Y-97239063D01*
X53773325Y-97244477D01*
X53846063Y-97262999D01*
X53882128Y-97287212D01*
X53904894Y-97327268D01*
X53913596Y-97389837D01*
X53909820Y-97430743D01*
X53896606Y-97486435D01*
X53843819Y-97622998D01*
X53862839Y-97626951D01*
X53875555Y-97629195D01*
X53919679Y-97574687D01*
X53970230Y-97473078D01*
X54005558Y-97362304D01*
X54016178Y-97270372D01*
X54010052Y-97219762D01*
X53992102Y-97174990D01*
X53961788Y-97134558D01*
X53921417Y-97105404D01*
X53861457Y-97085636D01*
X53774683Y-97078031D01*
X53653294Y-97078031D01*
G37*
G36*
X53160687Y-97646827D02*
G01*
X53119440Y-97646827D01*
X53129859Y-97714520D01*
X53133973Y-97814057D01*
X53130473Y-97937248D01*
X53119868Y-98062925D01*
X53160794Y-98058544D01*
X53184089Y-97987271D01*
X53201311Y-97972559D01*
X53233029Y-97966861D01*
X53308741Y-97976282D01*
X53483393Y-98018152D01*
X53671105Y-98073817D01*
X53853543Y-98137510D01*
X53719866Y-98212737D01*
X53622763Y-98264969D01*
X53475806Y-98334446D01*
X53330134Y-98391849D01*
X53264231Y-98404758D01*
X53233809Y-98397050D01*
X53207647Y-98372481D01*
X53184790Y-98323555D01*
X53167633Y-98237421D01*
X53113243Y-98256441D01*
X53127134Y-98506164D01*
X53127134Y-98628194D01*
X53181417Y-98625523D01*
X53189338Y-98593047D01*
X53203216Y-98566111D01*
X53251622Y-98519094D01*
X53335931Y-98471116D01*
X53602965Y-98340751D01*
X53778957Y-98249816D01*
X54175180Y-98058116D01*
X54316756Y-98000238D01*
X54419454Y-97964938D01*
X54679542Y-97896870D01*
X54679542Y-97636141D01*
X54625472Y-97636141D01*
X54601865Y-97711265D01*
X54571403Y-97764155D01*
X54529886Y-97808015D01*
X54472241Y-97849533D01*
X54281716Y-97944849D01*
X54076231Y-98037600D01*
X53628824Y-97912364D01*
X53445065Y-97853649D01*
X53314346Y-97803691D01*
X53254080Y-97778107D01*
X53217641Y-97755820D01*
X53190394Y-97730939D01*
X53178105Y-97711475D01*
X53160687Y-97646827D01*
G37*
G36*
X53654096Y-99315448D02*
G01*
X53742340Y-99341785D01*
X53816143Y-99383775D01*
X53880610Y-99440380D01*
X53931114Y-99503951D01*
X53968841Y-99575261D01*
X54004756Y-99689294D01*
X54016178Y-99796026D01*
X54008386Y-99888761D01*
X53985784Y-99971835D01*
X53948752Y-100047032D01*
X53898624Y-100114557D01*
X53839473Y-100170453D01*
X53770516Y-100215651D01*
X53694866Y-100248811D01*
X53616178Y-100268611D01*
X53533402Y-100275276D01*
X53438656Y-100265964D01*
X53351532Y-100238518D01*
X53272341Y-100194845D01*
X53205032Y-100137966D01*
X53149847Y-100069178D01*
X53107686Y-99989222D01*
X53081311Y-99902098D01*
X53072424Y-99809170D01*
X53077500Y-99749330D01*
X53133973Y-99749330D01*
X53141171Y-99813276D01*
X53162683Y-99873326D01*
X53199476Y-99930879D01*
X53273802Y-100003649D01*
X53369270Y-100060068D01*
X53475355Y-100095368D01*
X53583090Y-100106978D01*
X53687461Y-100096560D01*
X53777034Y-100066693D01*
X53853800Y-100018670D01*
X53908574Y-99959089D01*
X53943079Y-99888067D01*
X53954629Y-99809170D01*
X53946987Y-99748876D01*
X53923915Y-99691682D01*
X53883783Y-99636062D01*
X53804178Y-99566978D01*
X53701914Y-99513391D01*
X53589845Y-99480290D01*
X53478798Y-99469474D01*
X53384569Y-99478730D01*
X53301951Y-99505484D01*
X53230451Y-99549246D01*
X53178318Y-99605395D01*
X53145145Y-99672996D01*
X53133973Y-99749330D01*
X53077500Y-99749330D01*
X53081090Y-99707018D01*
X53106511Y-99613088D01*
X53148063Y-99526974D01*
X53203750Y-99453018D01*
X53272737Y-99391908D01*
X53353990Y-99345200D01*
X53444596Y-99316146D01*
X53547934Y-99306090D01*
X53654096Y-99315448D01*
G37*
G36*
X53175006Y-100445392D02*
G01*
X53099779Y-100445392D01*
X53097428Y-100604394D01*
X52901704Y-100615150D01*
X52768097Y-100640404D01*
X52653503Y-100684553D01*
X52567421Y-100741490D01*
X52509424Y-100799737D01*
X52454474Y-100873671D01*
X52408331Y-100953958D01*
X52375294Y-101031071D01*
X52353623Y-101106755D01*
X52347511Y-101161328D01*
X52353784Y-101230719D01*
X52372943Y-101300776D01*
X52394097Y-101343942D01*
X52414437Y-101364387D01*
X52434813Y-101370339D01*
X52456085Y-101365033D01*
X52493477Y-101343198D01*
X52523992Y-101314190D01*
X52532159Y-101289877D01*
X52499461Y-101193599D01*
X52471328Y-101097965D01*
X52463771Y-101035772D01*
X52470255Y-100975912D01*
X52488570Y-100926834D01*
X52518267Y-100886174D01*
X52558489Y-100854792D01*
X52620931Y-100825616D01*
X52713066Y-100799941D01*
X52866606Y-100777705D01*
X53099779Y-100765533D01*
X53099779Y-101090590D01*
X53179601Y-101090590D01*
X53181845Y-100765533D01*
X53515770Y-100760724D01*
X53814540Y-100764251D01*
X53899574Y-100772801D01*
X53925243Y-100783485D01*
X53935074Y-100817786D01*
X53941058Y-100966316D01*
X54002714Y-100966316D01*
X53997371Y-100723111D01*
X53995662Y-100437057D01*
X53941165Y-100437057D01*
X53934613Y-100498562D01*
X53925350Y-100533869D01*
X53908728Y-100560612D01*
X53882822Y-100579282D01*
X53848622Y-100590509D01*
X53794238Y-100597875D01*
X53629572Y-100602043D01*
X53234311Y-100604394D01*
X53198379Y-100601556D01*
X53188683Y-100596486D01*
X53179917Y-100561695D01*
X53175006Y-100445392D01*
G37*
G36*
X52710502Y-101899385D02*
G01*
X52699389Y-101852261D01*
X52413334Y-101955591D01*
X52449452Y-102001753D01*
X52461313Y-102052082D01*
X52467537Y-102152177D01*
X52470609Y-102399579D01*
X52470609Y-103004492D01*
X52468152Y-103150244D01*
X52465587Y-103291401D01*
X52459069Y-103357011D01*
X52427333Y-103394624D01*
X52461313Y-103429459D01*
X52579421Y-103391701D01*
X52709113Y-103362353D01*
X52717447Y-103304010D01*
X52603004Y-103314161D01*
X52579098Y-103276046D01*
X52556842Y-103209015D01*
X52544363Y-103124293D01*
X52538997Y-102972221D01*
X52540814Y-102815036D01*
X52549576Y-102768874D01*
X52581526Y-102758081D01*
X52742772Y-102750922D01*
X52954775Y-102743763D01*
X53191248Y-102741305D01*
X53526563Y-102738954D01*
X53779598Y-102742480D01*
X53847526Y-102750040D01*
X53889660Y-102762356D01*
X53921230Y-102783406D01*
X53939028Y-102811937D01*
X53961468Y-102927235D01*
X53971027Y-102975076D01*
X53980809Y-102983975D01*
X54013400Y-102980449D01*
X54016178Y-102931402D01*
X54009339Y-102803388D01*
X54002501Y-102674520D01*
X54007552Y-102556325D01*
X54023765Y-102420416D01*
X54036694Y-102336213D01*
X54033656Y-102318691D01*
X54025581Y-102308003D01*
X53983160Y-102290051D01*
X53962964Y-102367735D01*
X53928770Y-102486773D01*
X53910713Y-102517378D01*
X53891904Y-102531653D01*
X53866711Y-102538094D01*
X53821807Y-102540843D01*
X53686740Y-102553772D01*
X53544621Y-102554413D01*
X53332619Y-102556337D01*
X53182699Y-102557512D01*
X52817358Y-102555696D01*
X52647456Y-102548002D01*
X52555133Y-102529836D01*
X52545836Y-102306293D01*
X52554171Y-102106686D01*
X52566088Y-102040406D01*
X52581419Y-101997692D01*
X52602535Y-101963703D01*
X52623734Y-101943730D01*
X52710502Y-101899385D01*
G37*
G36*
X53654096Y-103283661D02*
G01*
X53742340Y-103309998D01*
X53816143Y-103351988D01*
X53880610Y-103408593D01*
X53931114Y-103472165D01*
X53968841Y-103543475D01*
X54004756Y-103657508D01*
X54016178Y-103764240D01*
X54008386Y-103856975D01*
X53985784Y-103940049D01*
X53948752Y-104015245D01*
X53898624Y-104082771D01*
X53839473Y-104138666D01*
X53770516Y-104183864D01*
X53694866Y-104217025D01*
X53616178Y-104236824D01*
X53533402Y-104243490D01*
X53438656Y-104234178D01*
X53351532Y-104206731D01*
X53272341Y-104163058D01*
X53205032Y-104106180D01*
X53149847Y-104037392D01*
X53107686Y-103957436D01*
X53081311Y-103870312D01*
X53072424Y-103777383D01*
X53077500Y-103717544D01*
X53133973Y-103717544D01*
X53141171Y-103781489D01*
X53162683Y-103841539D01*
X53199476Y-103899092D01*
X53273802Y-103971863D01*
X53369270Y-104028282D01*
X53475355Y-104063582D01*
X53583090Y-104075191D01*
X53687461Y-104064773D01*
X53777034Y-104034907D01*
X53853800Y-103986883D01*
X53908574Y-103927302D01*
X53943079Y-103856280D01*
X53954629Y-103777383D01*
X53946987Y-103717089D01*
X53923915Y-103659896D01*
X53883783Y-103604276D01*
X53804178Y-103535191D01*
X53701914Y-103481605D01*
X53589845Y-103448503D01*
X53478798Y-103437687D01*
X53384569Y-103446944D01*
X53301951Y-103473698D01*
X53230451Y-103517460D01*
X53178318Y-103573608D01*
X53145145Y-103641210D01*
X53133973Y-103717544D01*
X53077500Y-103717544D01*
X53081090Y-103675231D01*
X53106511Y-103581302D01*
X53148063Y-103495188D01*
X53203750Y-103421231D01*
X53272737Y-103360121D01*
X53353990Y-103313413D01*
X53444596Y-103284360D01*
X53547934Y-103274304D01*
X53654096Y-103283661D01*
G37*
G36*
X54002607Y-104234407D02*
G01*
X53962002Y-104237185D01*
X53938494Y-104320961D01*
X53921445Y-104339884D01*
X53884424Y-104359215D01*
X53835989Y-104371962D01*
X53754808Y-104381014D01*
X53487881Y-104386464D01*
X53357769Y-104381618D01*
X53300134Y-104371397D01*
X53275179Y-104356897D01*
X53259985Y-104333191D01*
X53254293Y-104296704D01*
X53264979Y-104217417D01*
X53214008Y-104222974D01*
X53029040Y-104537665D01*
X53232067Y-104542687D01*
X53162076Y-104665465D01*
X53151284Y-104682135D01*
X53133973Y-104712055D01*
X53099352Y-104769330D01*
X53058212Y-104835580D01*
X53064196Y-104847335D01*
X53076057Y-104863577D01*
X53095290Y-104897135D01*
X53115807Y-104920959D01*
X53141909Y-104936285D01*
X53180883Y-104942009D01*
X53225143Y-104932247D01*
X53260811Y-104902686D01*
X53285399Y-104859637D01*
X53298532Y-104804913D01*
X53256669Y-104799748D01*
X53230998Y-104786640D01*
X53214875Y-104765258D01*
X53209200Y-104735349D01*
X53214846Y-104699490D01*
X53234738Y-104651895D01*
X53282824Y-104578591D01*
X53308639Y-104553738D01*
X53325459Y-104544290D01*
X53410196Y-104537986D01*
X53625084Y-104530826D01*
X53836890Y-104538886D01*
X53913169Y-104554442D01*
X53934967Y-104576561D01*
X53938921Y-104620479D01*
X53936463Y-104651467D01*
X53934006Y-104797540D01*
X53988823Y-104794761D01*
X53990853Y-104716222D01*
X53992777Y-104623043D01*
X54002607Y-104234407D01*
G37*
G36*
X53654096Y-105027555D02*
G01*
X53742340Y-105053892D01*
X53816143Y-105095882D01*
X53880610Y-105152487D01*
X53931114Y-105216059D01*
X53968841Y-105287369D01*
X54004756Y-105401402D01*
X54016178Y-105508134D01*
X54008386Y-105600869D01*
X53985784Y-105683943D01*
X53948752Y-105759139D01*
X53898624Y-105826665D01*
X53839473Y-105882560D01*
X53770516Y-105927758D01*
X53694866Y-105960919D01*
X53616178Y-105980718D01*
X53533402Y-105987384D01*
X53438656Y-105978072D01*
X53351532Y-105950625D01*
X53272341Y-105906952D01*
X53205032Y-105850074D01*
X53149847Y-105781286D01*
X53107686Y-105701330D01*
X53081311Y-105614206D01*
X53072424Y-105521277D01*
X53077500Y-105461437D01*
X53133973Y-105461437D01*
X53141171Y-105525383D01*
X53162683Y-105585433D01*
X53199476Y-105642986D01*
X53273802Y-105715757D01*
X53369270Y-105772175D01*
X53475355Y-105807476D01*
X53583090Y-105819085D01*
X53687461Y-105808667D01*
X53777034Y-105778801D01*
X53853800Y-105730777D01*
X53908574Y-105671196D01*
X53943079Y-105600174D01*
X53954629Y-105521277D01*
X53946987Y-105460983D01*
X53923915Y-105403790D01*
X53883783Y-105348170D01*
X53804178Y-105279085D01*
X53701914Y-105225499D01*
X53589845Y-105192397D01*
X53478798Y-105181581D01*
X53384569Y-105190838D01*
X53301951Y-105217592D01*
X53230451Y-105261354D01*
X53178318Y-105317502D01*
X53145145Y-105385104D01*
X53133973Y-105461437D01*
X53077500Y-105461437D01*
X53081090Y-105419125D01*
X53106511Y-105325196D01*
X53148063Y-105239082D01*
X53203750Y-105165125D01*
X53272737Y-105104015D01*
X53353990Y-105057307D01*
X53444596Y-105028254D01*
X53547934Y-105018198D01*
X53654096Y-105027555D01*
G37*
G36*
X53988823Y-106101186D02*
G01*
X53948431Y-106098408D01*
X53922679Y-106194685D01*
X53907800Y-106220203D01*
X53893507Y-106232940D01*
X53848734Y-106245655D01*
X53685031Y-106258692D01*
X53488415Y-106262325D01*
X53361290Y-106259531D01*
X53300882Y-106253456D01*
X53258396Y-106238605D01*
X53237944Y-106216484D01*
X53227042Y-106181312D01*
X53215718Y-106105781D01*
X53193278Y-106101934D01*
X53140598Y-106242129D01*
X53097535Y-106331888D01*
X53072424Y-106387774D01*
X53079829Y-106403623D01*
X53107579Y-106413633D01*
X53214756Y-106418656D01*
X53153340Y-106541191D01*
X53116449Y-106630552D01*
X53093418Y-106715557D01*
X53086101Y-106794149D01*
X53092826Y-106870821D01*
X53110637Y-106926185D01*
X53137392Y-106965546D01*
X53193997Y-107009387D01*
X53261025Y-107032331D01*
X53339005Y-107041473D01*
X53451015Y-107045047D01*
X53733116Y-107045047D01*
X53881430Y-107050761D01*
X53913169Y-107059579D01*
X53932617Y-107119526D01*
X53948859Y-107182464D01*
X54003142Y-107185136D01*
X53992616Y-107088593D01*
X53988823Y-106973560D01*
X54002821Y-106729821D01*
X53955270Y-106729821D01*
X53935092Y-106801563D01*
X53912293Y-106843446D01*
X53888057Y-106865208D01*
X53837926Y-106878351D01*
X53721469Y-106889357D01*
X53522930Y-106895983D01*
X53350143Y-106887114D01*
X53287210Y-106870202D01*
X53235807Y-106838387D01*
X53210651Y-106808615D01*
X53194599Y-106768339D01*
X53188683Y-106714113D01*
X53204391Y-106598922D01*
X53228048Y-106519890D01*
X53274809Y-106418656D01*
X53595485Y-106411496D01*
X53867968Y-106416198D01*
X53910070Y-106426991D01*
X53921981Y-106439114D01*
X53935074Y-106465672D01*
X53955056Y-106573063D01*
X54002821Y-106570285D01*
X53995662Y-106491425D01*
X53988823Y-106366082D01*
X53988823Y-106101186D01*
G37*
G36*
X53653294Y-107378973D02*
G01*
X53188683Y-107384957D01*
X53181845Y-107255661D01*
X53155344Y-107259401D01*
X53087569Y-107357347D01*
X53030109Y-107423104D01*
X52859994Y-107568215D01*
X53083644Y-107555820D01*
X53092940Y-107776905D01*
X53090482Y-107908339D01*
X53173937Y-107905774D01*
X53181845Y-107774555D01*
X53180028Y-107727752D01*
X53174578Y-107601127D01*
X53178425Y-107568750D01*
X53193064Y-107554644D01*
X53236555Y-107549088D01*
X53305798Y-107545989D01*
X53673276Y-107540005D01*
X53773325Y-107545420D01*
X53846063Y-107563941D01*
X53882128Y-107588154D01*
X53904894Y-107628210D01*
X53913596Y-107690779D01*
X53909820Y-107731685D01*
X53896606Y-107787377D01*
X53843819Y-107923940D01*
X53862839Y-107927893D01*
X53875555Y-107930137D01*
X53919679Y-107875629D01*
X53970230Y-107774020D01*
X54005558Y-107663246D01*
X54016178Y-107571314D01*
X54010052Y-107520705D01*
X53992102Y-107475932D01*
X53961788Y-107435500D01*
X53921417Y-107406346D01*
X53861457Y-107386578D01*
X53774683Y-107378973D01*
X53653294Y-107378973D01*
G37*
G36*
X53654096Y-108022949D02*
G01*
X53742340Y-108049287D01*
X53816143Y-108091277D01*
X53880610Y-108147881D01*
X53931114Y-108211453D01*
X53968841Y-108282763D01*
X54004756Y-108396796D01*
X54016178Y-108503528D01*
X54008386Y-108596263D01*
X53985784Y-108679337D01*
X53948752Y-108754533D01*
X53898624Y-108822059D01*
X53839473Y-108877954D01*
X53770516Y-108923152D01*
X53694866Y-108956313D01*
X53616178Y-108976112D01*
X53533402Y-108982778D01*
X53438656Y-108973466D01*
X53351532Y-108946020D01*
X53272341Y-108902346D01*
X53205032Y-108845468D01*
X53149847Y-108776680D01*
X53107686Y-108696724D01*
X53081311Y-108609600D01*
X53072424Y-108516671D01*
X53077500Y-108456832D01*
X53133973Y-108456832D01*
X53141171Y-108520777D01*
X53162683Y-108580827D01*
X53199476Y-108638381D01*
X53273802Y-108711151D01*
X53369270Y-108767570D01*
X53475355Y-108802870D01*
X53583090Y-108814480D01*
X53687461Y-108804061D01*
X53777034Y-108774195D01*
X53853800Y-108726171D01*
X53908574Y-108666591D01*
X53943079Y-108595569D01*
X53954629Y-108516671D01*
X53946987Y-108456378D01*
X53923915Y-108399184D01*
X53883783Y-108343564D01*
X53804178Y-108274479D01*
X53701914Y-108220893D01*
X53589845Y-108187792D01*
X53478798Y-108176975D01*
X53384569Y-108186232D01*
X53301951Y-108212986D01*
X53230451Y-108256748D01*
X53178318Y-108312896D01*
X53145145Y-108380498D01*
X53133973Y-108456832D01*
X53077500Y-108456832D01*
X53081090Y-108414520D01*
X53106511Y-108320590D01*
X53148063Y-108234476D01*
X53203750Y-108160519D01*
X53272737Y-108099409D01*
X53353990Y-108052701D01*
X53444596Y-108023648D01*
X53547934Y-108013592D01*
X53654096Y-108022949D01*
G37*
G36*
X57004958Y-89669580D02*
G01*
X57002821Y-89757523D01*
X56999081Y-89891414D01*
X56996517Y-89997843D01*
X56995662Y-90080870D01*
X56999081Y-90172766D01*
X57002501Y-90267334D01*
X56990392Y-90442398D01*
X56955394Y-90599631D01*
X56898636Y-90741776D01*
X56819358Y-90871980D01*
X56724884Y-90977891D01*
X56614399Y-91062238D01*
X56490142Y-91124531D01*
X56357893Y-91161875D01*
X56215291Y-91174544D01*
X56096795Y-91166140D01*
X55988938Y-91141698D01*
X55890020Y-91101775D01*
X55798192Y-91047181D01*
X55716544Y-90980768D01*
X55644251Y-90901847D01*
X55582658Y-90813738D01*
X55531211Y-90717215D01*
X55489843Y-90611411D01*
X55460294Y-90501597D01*
X55442440Y-90387915D01*
X55436415Y-90269685D01*
X55438313Y-90237414D01*
X55497965Y-90237414D01*
X55507083Y-90352144D01*
X55534602Y-90465558D01*
X55581419Y-90578927D01*
X55645506Y-90682908D01*
X55727002Y-90773770D01*
X55827509Y-90852586D01*
X55940246Y-90911007D01*
X56068724Y-90947072D01*
X56216466Y-90959656D01*
X56335083Y-90951831D01*
X56449979Y-90928494D01*
X56562146Y-90889451D01*
X56665397Y-90833353D01*
X56755729Y-90758050D01*
X56834416Y-90661634D01*
X56879260Y-90581261D01*
X56912520Y-90488604D01*
X56933536Y-90381604D01*
X56940951Y-90257824D01*
X56936815Y-90164333D01*
X56925991Y-90095830D01*
X56873525Y-89913319D01*
X56781949Y-89911503D01*
X56619741Y-89907977D01*
X56529982Y-89906160D01*
X55956805Y-89912037D01*
X55655940Y-89921151D01*
X55559193Y-89929668D01*
X55525750Y-90022396D01*
X55505102Y-90124463D01*
X55497965Y-90237414D01*
X55438313Y-90237414D01*
X55446353Y-90100745D01*
X55463942Y-89868949D01*
X55470609Y-89558343D01*
X55525427Y-89561121D01*
X55529400Y-89626949D01*
X55543721Y-89667799D01*
X55565498Y-89691806D01*
X55622925Y-89709562D01*
X55778462Y-89724718D01*
X56300989Y-89733160D01*
X56673943Y-89727505D01*
X56839329Y-89715614D01*
X56893721Y-89703561D01*
X56920431Y-89680285D01*
X56939720Y-89633367D01*
X56947790Y-89549047D01*
X57002394Y-89549047D01*
X57004958Y-89669580D01*
G37*
G36*
X56694743Y-91367574D02*
G01*
X56794036Y-91399645D01*
X56885279Y-91453118D01*
X56942653Y-91506250D01*
X56982926Y-91567578D01*
X57007566Y-91638719D01*
X57016178Y-91722289D01*
X57008523Y-91799190D01*
X56983934Y-91885703D01*
X56939143Y-91984074D01*
X56869892Y-92096606D01*
X56837194Y-92070854D01*
X56882445Y-91995054D01*
X56908040Y-91933971D01*
X56922677Y-91874042D01*
X56927274Y-91820276D01*
X56914415Y-91740337D01*
X56875618Y-91668104D01*
X56806633Y-91600686D01*
X56741880Y-91560222D01*
X56681504Y-91537214D01*
X56613571Y-91524581D01*
X56509359Y-91515415D01*
X56378994Y-92113169D01*
X56328024Y-92110391D01*
X56322467Y-92074273D01*
X56299493Y-92055253D01*
X56221013Y-92012017D01*
X56164213Y-91961861D01*
X56121617Y-91903575D01*
X56096894Y-91847097D01*
X56083541Y-91788777D01*
X56079263Y-91734257D01*
X56088745Y-91687561D01*
X56161328Y-91687561D01*
X56171095Y-91754301D01*
X56199583Y-91810659D01*
X56240764Y-91857992D01*
X56283892Y-91891335D01*
X56327332Y-91914409D01*
X56348327Y-91919652D01*
X56357500Y-91916223D01*
X56364996Y-91904158D01*
X56385085Y-91826794D01*
X56403358Y-91742271D01*
X56422805Y-91669716D01*
X56455717Y-91517980D01*
X56352595Y-91533370D01*
X56255896Y-91563073D01*
X56201556Y-91595000D01*
X56171533Y-91635611D01*
X56161328Y-91687561D01*
X56088745Y-91687561D01*
X56089691Y-91682903D01*
X56131408Y-91595023D01*
X56171047Y-91538341D01*
X56225690Y-91483421D01*
X56297890Y-91430037D01*
X56377253Y-91390496D01*
X56471839Y-91365516D01*
X56585013Y-91356627D01*
X56694743Y-91367574D01*
G37*
G36*
X56244142Y-92209019D02*
G01*
X56221168Y-92298351D01*
X56234311Y-92331690D01*
X56268932Y-92360541D01*
X56313598Y-92378707D01*
X56536073Y-92388110D01*
X56889553Y-92390568D01*
X57038190Y-92388217D01*
X57366560Y-92382233D01*
X57510658Y-92371336D01*
X57575571Y-92357336D01*
X57599819Y-92343266D01*
X57615001Y-92326240D01*
X57624073Y-92301040D01*
X57631991Y-92242999D01*
X57679755Y-92245778D01*
X57667253Y-92493257D01*
X57665864Y-92678439D01*
X57661376Y-92722891D01*
X57654283Y-92730317D01*
X57639150Y-92733256D01*
X57618552Y-92725408D01*
X57611154Y-92700023D01*
X57606452Y-92612936D01*
X57595766Y-92559187D01*
X57583457Y-92547302D01*
X57556657Y-92538243D01*
X57450762Y-92532473D01*
X57236302Y-92532473D01*
X57105403Y-92534824D01*
X56976962Y-92537175D01*
X57001936Y-92633754D01*
X57009339Y-92710709D01*
X57005070Y-92761604D01*
X56988823Y-92845989D01*
X56961060Y-92935102D01*
X56915626Y-93032240D01*
X56852349Y-93120733D01*
X56765386Y-93195302D01*
X56697429Y-93231173D01*
X56616988Y-93253682D01*
X56521220Y-93261660D01*
X56445942Y-93255410D01*
X56374397Y-93236832D01*
X56305584Y-93205667D01*
X56214669Y-93140614D01*
X56145620Y-93059808D01*
X56111710Y-92997870D01*
X56092378Y-92938054D01*
X56086101Y-92879221D01*
X56099864Y-92788331D01*
X56106561Y-92769266D01*
X56181845Y-92769266D01*
X56195303Y-92842506D01*
X56240295Y-92926345D01*
X56308412Y-93001211D01*
X56401968Y-93065044D01*
X56472638Y-93096000D01*
X56547330Y-93114619D01*
X56627115Y-93120930D01*
X56699143Y-93114416D01*
X56758186Y-93096172D01*
X56806847Y-93067182D01*
X56866625Y-93008118D01*
X56904941Y-92942480D01*
X56927337Y-92872436D01*
X56934113Y-92813505D01*
X56925851Y-92756601D01*
X56890836Y-92640184D01*
X56853115Y-92532473D01*
X56249485Y-92534824D01*
X56192632Y-92713782D01*
X56181845Y-92769266D01*
X56106561Y-92769266D01*
X56153634Y-92635269D01*
X56192958Y-92536640D01*
X56020919Y-92508751D01*
X56065056Y-92463484D01*
X56117838Y-92384477D01*
X56160386Y-92304539D01*
X56168060Y-92280933D01*
X56214649Y-92197158D01*
X56244142Y-92209019D01*
G37*
G36*
X56653294Y-93532113D02*
G01*
X56188683Y-93538097D01*
X56181845Y-93408801D01*
X56155344Y-93412541D01*
X56087569Y-93510487D01*
X56030109Y-93576245D01*
X55859994Y-93721355D01*
X56083644Y-93708960D01*
X56092940Y-93930046D01*
X56090482Y-94061479D01*
X56173937Y-94058914D01*
X56181845Y-93927695D01*
X56180028Y-93880892D01*
X56174578Y-93754267D01*
X56178425Y-93721890D01*
X56193064Y-93707785D01*
X56236555Y-93702228D01*
X56305798Y-93699129D01*
X56673276Y-93693145D01*
X56773325Y-93698560D01*
X56846063Y-93717081D01*
X56882128Y-93741294D01*
X56904894Y-93781350D01*
X56913596Y-93843920D01*
X56909820Y-93884825D01*
X56896606Y-93940518D01*
X56843819Y-94077080D01*
X56862839Y-94081034D01*
X56875555Y-94083278D01*
X56919679Y-94028769D01*
X56970230Y-93927161D01*
X57005558Y-93816386D01*
X57016178Y-93724454D01*
X57010052Y-93673845D01*
X56992102Y-93629073D01*
X56961788Y-93588640D01*
X56921417Y-93559486D01*
X56861457Y-93539719D01*
X56774683Y-93532113D01*
X56653294Y-93532113D01*
G37*
G36*
X56886241Y-94166732D02*
G01*
X56869098Y-94173301D01*
X56846277Y-94199537D01*
X56810489Y-94246098D01*
X56749679Y-94289190D01*
X56733878Y-94305519D01*
X56728949Y-94324345D01*
X56733854Y-94343810D01*
X56748717Y-94358005D01*
X56776286Y-94369545D01*
X56826757Y-94414189D01*
X56849589Y-94445307D01*
X56865831Y-94472341D01*
X56886241Y-94477150D01*
X56904337Y-94471973D01*
X56920007Y-94455030D01*
X56953448Y-94407930D01*
X57013507Y-94361959D01*
X57037164Y-94342199D01*
X57043533Y-94324345D01*
X57037541Y-94304314D01*
X57016926Y-94284381D01*
X56960185Y-94247195D01*
X56923747Y-94194622D01*
X56906223Y-94172075D01*
X56886241Y-94166732D01*
G37*
G36*
X56654096Y-95261749D02*
G01*
X56742340Y-95288086D01*
X56816143Y-95330076D01*
X56880610Y-95386681D01*
X56931114Y-95450253D01*
X56968841Y-95521563D01*
X57004756Y-95635596D01*
X57016178Y-95742328D01*
X57008386Y-95835063D01*
X56985784Y-95918137D01*
X56948752Y-95993333D01*
X56898624Y-96060859D01*
X56839473Y-96116754D01*
X56770516Y-96161952D01*
X56694866Y-96195113D01*
X56616178Y-96214912D01*
X56533402Y-96221578D01*
X56438656Y-96212266D01*
X56351532Y-96184819D01*
X56272341Y-96141146D01*
X56205032Y-96084268D01*
X56149847Y-96015480D01*
X56107686Y-95935524D01*
X56081311Y-95848400D01*
X56072424Y-95755471D01*
X56077500Y-95695631D01*
X56133973Y-95695631D01*
X56141171Y-95759577D01*
X56162683Y-95819627D01*
X56199476Y-95877180D01*
X56273802Y-95949951D01*
X56369270Y-96006369D01*
X56475355Y-96041670D01*
X56583090Y-96053279D01*
X56687461Y-96042861D01*
X56777034Y-96012995D01*
X56853800Y-95964971D01*
X56908574Y-95905390D01*
X56943079Y-95834368D01*
X56954629Y-95755471D01*
X56946987Y-95695177D01*
X56923915Y-95637984D01*
X56883783Y-95582364D01*
X56804178Y-95513279D01*
X56701914Y-95459693D01*
X56589845Y-95426591D01*
X56478798Y-95415775D01*
X56384569Y-95425032D01*
X56301951Y-95451786D01*
X56230451Y-95495548D01*
X56178318Y-95551696D01*
X56145145Y-95619298D01*
X56133973Y-95695631D01*
X56077500Y-95695631D01*
X56081090Y-95653319D01*
X56106511Y-95559390D01*
X56148063Y-95473276D01*
X56203750Y-95399319D01*
X56272737Y-95338209D01*
X56353990Y-95291501D01*
X56444596Y-95262448D01*
X56547934Y-95252392D01*
X56654096Y-95261749D01*
G37*
G36*
X56175006Y-96391693D02*
G01*
X56099779Y-96391693D01*
X56097428Y-96550695D01*
X55901704Y-96561451D01*
X55768097Y-96586706D01*
X55653503Y-96630854D01*
X55567421Y-96687792D01*
X55509424Y-96746038D01*
X55454474Y-96819973D01*
X55408331Y-96900259D01*
X55375294Y-96977372D01*
X55353623Y-97053056D01*
X55347511Y-97107630D01*
X55353784Y-97177020D01*
X55372943Y-97247077D01*
X55394097Y-97290244D01*
X55414437Y-97310688D01*
X55434813Y-97316641D01*
X55456085Y-97311335D01*
X55493477Y-97289499D01*
X55523992Y-97260492D01*
X55532159Y-97236178D01*
X55499461Y-97139900D01*
X55471328Y-97044267D01*
X55463771Y-96982074D01*
X55470255Y-96922213D01*
X55488570Y-96873135D01*
X55518267Y-96832475D01*
X55558489Y-96801093D01*
X55620931Y-96771918D01*
X55713066Y-96746242D01*
X55866606Y-96724006D01*
X56099779Y-96711834D01*
X56099779Y-97036891D01*
X56179601Y-97036891D01*
X56181845Y-96711834D01*
X56515770Y-96707026D01*
X56814540Y-96710552D01*
X56899574Y-96719102D01*
X56925243Y-96729786D01*
X56935074Y-96764087D01*
X56941058Y-96912617D01*
X57002714Y-96912617D01*
X56997371Y-96669412D01*
X56995662Y-96383358D01*
X56941165Y-96383358D01*
X56934613Y-96444863D01*
X56925350Y-96480170D01*
X56908728Y-96506913D01*
X56882822Y-96525584D01*
X56848622Y-96536811D01*
X56794238Y-96544177D01*
X56629572Y-96548344D01*
X56234311Y-96550695D01*
X56198379Y-96547857D01*
X56188683Y-96542788D01*
X56179917Y-96507996D01*
X56175006Y-96391693D01*
G37*
G36*
X55521259Y-98035997D02*
G01*
X55534444Y-98065059D01*
X55554171Y-98084723D01*
X55598837Y-98100324D01*
X55728774Y-98111651D01*
X55899744Y-98120093D01*
X56048595Y-98125970D01*
X56184302Y-98127786D01*
X56346617Y-98128428D01*
X56779775Y-98121764D01*
X56894683Y-98110583D01*
X56917821Y-98100553D01*
X56934754Y-98078739D01*
X56976000Y-97958633D01*
X57015216Y-97958633D01*
X57023337Y-98006505D01*
X57016178Y-98067840D01*
X57006421Y-98148844D01*
X57002501Y-98272897D01*
X57006454Y-98400697D01*
X57016712Y-98526147D01*
X56948004Y-98528711D01*
X56939384Y-98428685D01*
X56929518Y-98376655D01*
X56911876Y-98338923D01*
X56887844Y-98318845D01*
X56853508Y-98308489D01*
X56789750Y-98301428D01*
X56643143Y-98298970D01*
X56435628Y-98296726D01*
X56445229Y-98368434D01*
X56448558Y-98447394D01*
X56440142Y-98585996D01*
X56416199Y-98706777D01*
X56378139Y-98812308D01*
X56324217Y-98910422D01*
X56262812Y-98987575D01*
X56193919Y-99046750D01*
X56115119Y-99091444D01*
X56034526Y-99117561D01*
X55950608Y-99126251D01*
X55867277Y-99116241D01*
X55778676Y-99084684D01*
X55695141Y-99033361D01*
X55613583Y-98957098D01*
X55545313Y-98862973D01*
X55489843Y-98743920D01*
X55464726Y-98657851D01*
X55448843Y-98559603D01*
X55444329Y-98468978D01*
X55504803Y-98468978D01*
X55512423Y-98563755D01*
X55534211Y-98646092D01*
X55569345Y-98718167D01*
X55617410Y-98782526D01*
X55673273Y-98833716D01*
X55737643Y-98873002D01*
X55844489Y-98910772D01*
X55958729Y-98923438D01*
X56057793Y-98915012D01*
X56138121Y-98891580D01*
X56203429Y-98854730D01*
X56260041Y-98804625D01*
X56303453Y-98748523D01*
X56334863Y-98685683D01*
X56363915Y-98584837D01*
X56373331Y-98486930D01*
X56366939Y-98396565D01*
X56346724Y-98296619D01*
X56092620Y-98294269D01*
X55991961Y-98296619D01*
X55830501Y-98300787D01*
X55641152Y-98305595D01*
X55517947Y-98308587D01*
X55504803Y-98468978D01*
X55444329Y-98468978D01*
X55443254Y-98447394D01*
X55445712Y-98370564D01*
X55451910Y-98295444D01*
X55456932Y-98165293D01*
X55449879Y-97937476D01*
X55504483Y-97937476D01*
X55521259Y-98035997D01*
G37*
G36*
X55553744Y-99236527D02*
G01*
X55502666Y-99236527D01*
X55483646Y-99272965D01*
X55369737Y-99504950D01*
X55347084Y-99545876D01*
X55368348Y-99589259D01*
X55481757Y-99570034D01*
X55617750Y-99556561D01*
X55973154Y-99542243D01*
X56209627Y-99535190D01*
X56121791Y-99759695D01*
X56099931Y-99847590D01*
X56092940Y-99929703D01*
X56101651Y-100004023D01*
X56125366Y-100059001D01*
X56162931Y-100099498D01*
X56239025Y-100142152D01*
X56333153Y-100165535D01*
X56441264Y-100174681D01*
X56596340Y-100178251D01*
X56655325Y-100177610D01*
X56731406Y-100175793D01*
X56821059Y-100172801D01*
X56867541Y-100170985D01*
X56910441Y-100177889D01*
X56932082Y-100194921D01*
X56942350Y-100230235D01*
X56947790Y-100335009D01*
X57002501Y-100332231D01*
X57002501Y-100251234D01*
X57003569Y-100103665D01*
X57004744Y-99970309D01*
X57016178Y-99918163D01*
X57010978Y-99906856D01*
X56992242Y-99902348D01*
X56978174Y-99907337D01*
X56968413Y-99924040D01*
X56953359Y-99963894D01*
X56931762Y-99989757D01*
X56899721Y-100006507D01*
X56841041Y-100018928D01*
X56627969Y-100026729D01*
X56469567Y-100021298D01*
X56362812Y-100007607D01*
X56294578Y-99989009D01*
X56252183Y-99964908D01*
X56221995Y-99930104D01*
X56202673Y-99882345D01*
X56195522Y-99817291D01*
X56201701Y-99746009D01*
X56221809Y-99662776D01*
X56268398Y-99539785D01*
X56377391Y-99535083D01*
X56661309Y-99524291D01*
X56710783Y-99523650D01*
X56760364Y-99521940D01*
X56863805Y-99526950D01*
X56906437Y-99537220D01*
X56921845Y-99546498D01*
X56932296Y-99564469D01*
X56948111Y-99686926D01*
X57009980Y-99686926D01*
X57002501Y-99516170D01*
X57005844Y-99380762D01*
X57016499Y-99226696D01*
X56962109Y-99229474D01*
X56944667Y-99300847D01*
X56931975Y-99331629D01*
X56912551Y-99350630D01*
X56876944Y-99364006D01*
X56722537Y-99376402D01*
X56403144Y-99385912D01*
X56070714Y-99390720D01*
X55844072Y-99393178D01*
X55694665Y-99389167D01*
X55608988Y-99379714D01*
X55564004Y-99364764D01*
X55541321Y-99343508D01*
X55533975Y-99315280D01*
X55553744Y-99236527D01*
G37*
G36*
X56160687Y-100324217D02*
G01*
X56119440Y-100324217D01*
X56129859Y-100391910D01*
X56133973Y-100491447D01*
X56130473Y-100614638D01*
X56119868Y-100740315D01*
X56160794Y-100735934D01*
X56184089Y-100664661D01*
X56201311Y-100649949D01*
X56233029Y-100644251D01*
X56308741Y-100653672D01*
X56483393Y-100695542D01*
X56671105Y-100751207D01*
X56853543Y-100814900D01*
X56719866Y-100890127D01*
X56622763Y-100942360D01*
X56475806Y-101011837D01*
X56330134Y-101069239D01*
X56264231Y-101082148D01*
X56233809Y-101074440D01*
X56207647Y-101049872D01*
X56184790Y-101000945D01*
X56167633Y-100914811D01*
X56113243Y-100933831D01*
X56127134Y-101183555D01*
X56127134Y-101305584D01*
X56181417Y-101302913D01*
X56189338Y-101270438D01*
X56203216Y-101243501D01*
X56251622Y-101196484D01*
X56335931Y-101148506D01*
X56602965Y-101018141D01*
X56778957Y-100927206D01*
X57175180Y-100735506D01*
X57316756Y-100677628D01*
X57419454Y-100642328D01*
X57679542Y-100574260D01*
X57679542Y-100313531D01*
X57625472Y-100313531D01*
X57601865Y-100388655D01*
X57571403Y-100441545D01*
X57529886Y-100485405D01*
X57472241Y-100526923D01*
X57281716Y-100622239D01*
X57076231Y-100714990D01*
X56628824Y-100589754D01*
X56445065Y-100531039D01*
X56314346Y-100481082D01*
X56254080Y-100455497D01*
X56217641Y-100433210D01*
X56190394Y-100408329D01*
X56178105Y-100388865D01*
X56160687Y-100324217D01*
G37*
G36*
X56728628Y-101309645D02*
G01*
X56731513Y-101360081D01*
X56757425Y-101367372D01*
X56805137Y-101398336D01*
X56851000Y-101442074D01*
X56894362Y-101501772D01*
X56924160Y-101569706D01*
X56934113Y-101643571D01*
X56928415Y-101698393D01*
X56910925Y-101753846D01*
X56890427Y-101783417D01*
X56858415Y-101801775D01*
X56810373Y-101808664D01*
X56758555Y-101802045D01*
X56715323Y-101783028D01*
X56678619Y-101751282D01*
X56632250Y-101689748D01*
X56591638Y-101619314D01*
X56549644Y-101529662D01*
X56505536Y-101455815D01*
X56462556Y-101403251D01*
X56411234Y-101367800D01*
X56345014Y-101355593D01*
X56289609Y-101364913D01*
X56227579Y-101395557D01*
X56172474Y-101443295D01*
X56126172Y-101510962D01*
X56096390Y-101590306D01*
X56086101Y-101681825D01*
X56105656Y-101875983D01*
X56311782Y-101916695D01*
X56311782Y-101868076D01*
X56272163Y-101850669D01*
X56233884Y-101818601D01*
X56201007Y-101777517D01*
X56172869Y-101728842D01*
X56153213Y-101678594D01*
X56147651Y-101641220D01*
X56157328Y-101584176D01*
X56184943Y-101540775D01*
X56226868Y-101512105D01*
X56279832Y-101502307D01*
X56321923Y-101509551D01*
X56352708Y-101529982D01*
X56380929Y-101565749D01*
X56422485Y-101638014D01*
X56458923Y-101710783D01*
X56512674Y-101805016D01*
X56570801Y-101881326D01*
X56618089Y-101920492D01*
X56676173Y-101944506D01*
X56748289Y-101953026D01*
X56791253Y-101948822D01*
X56839117Y-101935395D01*
X56881358Y-101912515D01*
X56908146Y-101882074D01*
X56963562Y-101785152D01*
X56990639Y-101717408D01*
X57004667Y-101651804D01*
X57009339Y-101585013D01*
X57003142Y-101516412D01*
X56993204Y-101454008D01*
X56975680Y-101391604D01*
X56957407Y-101331230D01*
X56888164Y-101341274D01*
X56808556Y-101331123D01*
X56728628Y-101309645D01*
G37*
G36*
X57002607Y-102115768D02*
G01*
X56948111Y-102121218D01*
X56931742Y-102210819D01*
X56914344Y-102236089D01*
X56831531Y-102246454D01*
X56657034Y-102254254D01*
X56542698Y-102257246D01*
X56329947Y-102251903D01*
X56287907Y-102243200D01*
X56266688Y-102231814D01*
X56255896Y-102171975D01*
X56246078Y-102124649D01*
X56237089Y-102116089D01*
X56219186Y-102121921D01*
X56209307Y-102140132D01*
X56174888Y-102231533D01*
X56125241Y-102324061D01*
X56058746Y-102418385D01*
X56064623Y-102446382D01*
X56209413Y-102425438D01*
X56405708Y-102411653D01*
X56587791Y-102406311D01*
X56757372Y-102410478D01*
X56858849Y-102417195D01*
X56906223Y-102425224D01*
X56931655Y-102447557D01*
X56940738Y-102503550D01*
X56948111Y-102589355D01*
X56988716Y-102606452D01*
X57002607Y-102115768D01*
G37*
G36*
X55573191Y-102296676D02*
G01*
X55534843Y-102303926D01*
X55504483Y-102325207D01*
X55484222Y-102356478D01*
X55477448Y-102393381D01*
X55484548Y-102430056D01*
X55505765Y-102460380D01*
X55536727Y-102480816D01*
X55573191Y-102487628D01*
X55609715Y-102480937D01*
X55640725Y-102460914D01*
X55661783Y-102430963D01*
X55668935Y-102393381D01*
X55661904Y-102356568D01*
X55640725Y-102325207D01*
X55609575Y-102303763D01*
X55573191Y-102296676D01*
G37*
G36*
X56844033Y-103487482D02*
G01*
X56883783Y-103506930D01*
X56944053Y-103421496D01*
X56984839Y-103338461D01*
X57008436Y-103256763D01*
X57016178Y-103175141D01*
X57006442Y-103077724D01*
X56975893Y-102973610D01*
X56928051Y-102878182D01*
X56871708Y-102810334D01*
X56820871Y-102778250D01*
X56746900Y-102751670D01*
X56667249Y-102735746D01*
X56592386Y-102730619D01*
X56494558Y-102739691D01*
X56403987Y-102766447D01*
X56318941Y-102811189D01*
X56241829Y-102869920D01*
X56178337Y-102935736D01*
X56127241Y-103009087D01*
X56087657Y-103089469D01*
X56065679Y-103162180D01*
X56058746Y-103228890D01*
X56066083Y-103295625D01*
X56093581Y-103400608D01*
X56122305Y-103473553D01*
X56144012Y-103503568D01*
X56160901Y-103510884D01*
X56177793Y-103505305D01*
X56225869Y-103476583D01*
X56268074Y-103441429D01*
X56277588Y-103420163D01*
X56267116Y-103391953D01*
X56232388Y-103332540D01*
X56187431Y-103207035D01*
X56175006Y-103118935D01*
X56184347Y-103043318D01*
X56210308Y-102984978D01*
X56252370Y-102939737D01*
X56307353Y-102908483D01*
X56382952Y-102887556D01*
X56485423Y-102879684D01*
X56578954Y-102887206D01*
X56658360Y-102908507D01*
X56726170Y-102942515D01*
X56787038Y-102988625D01*
X56834028Y-103038878D01*
X56868823Y-103093610D01*
X56903261Y-103181340D01*
X56913596Y-103255177D01*
X56908861Y-103315284D01*
X56895110Y-103369513D01*
X56844033Y-103487482D01*
G37*
G36*
X56728628Y-103607482D02*
G01*
X56731513Y-103657918D01*
X56757425Y-103665209D01*
X56805137Y-103696172D01*
X56851000Y-103739911D01*
X56894362Y-103799609D01*
X56924160Y-103867543D01*
X56934113Y-103941407D01*
X56928415Y-103996230D01*
X56910925Y-104051683D01*
X56890427Y-104081253D01*
X56858415Y-104099612D01*
X56810373Y-104106500D01*
X56758555Y-104099881D01*
X56715323Y-104080865D01*
X56678619Y-104049118D01*
X56632250Y-103987585D01*
X56591638Y-103917151D01*
X56549644Y-103827499D01*
X56505536Y-103753652D01*
X56462556Y-103701088D01*
X56411234Y-103665637D01*
X56345014Y-103653430D01*
X56289609Y-103662750D01*
X56227579Y-103693394D01*
X56172474Y-103741131D01*
X56126172Y-103808799D01*
X56096390Y-103888143D01*
X56086101Y-103979662D01*
X56105656Y-104173820D01*
X56311782Y-104214532D01*
X56311782Y-104165912D01*
X56272163Y-104148505D01*
X56233884Y-104116438D01*
X56201007Y-104075354D01*
X56172869Y-104026679D01*
X56153213Y-103976431D01*
X56147651Y-103939057D01*
X56157328Y-103882013D01*
X56184943Y-103838612D01*
X56226868Y-103809942D01*
X56279832Y-103800143D01*
X56321923Y-103807388D01*
X56352708Y-103827819D01*
X56380929Y-103863586D01*
X56422485Y-103935851D01*
X56458923Y-104008620D01*
X56512674Y-104102853D01*
X56570801Y-104179163D01*
X56618089Y-104218329D01*
X56676173Y-104242343D01*
X56748289Y-104250863D01*
X56791253Y-104246659D01*
X56839117Y-104233232D01*
X56881358Y-104210352D01*
X56908146Y-104179911D01*
X56963562Y-104082989D01*
X56990639Y-104015245D01*
X57004667Y-103949641D01*
X57009339Y-103882850D01*
X57003142Y-103814248D01*
X56993204Y-103751844D01*
X56975680Y-103689440D01*
X56957407Y-103629067D01*
X56888164Y-103639111D01*
X56808556Y-103628960D01*
X56728628Y-103607482D01*
G37*
G36*
X62021883Y-90786121D02*
G01*
X62021883Y-90829505D01*
X62232603Y-90786976D01*
X62313409Y-90760655D01*
X62391392Y-90727243D01*
X62384980Y-90617502D01*
X62382950Y-90426336D01*
X62378462Y-90267227D01*
X62374081Y-90194351D01*
X62378890Y-90013337D01*
X62384339Y-89764148D01*
X62391285Y-89546375D01*
X62337109Y-89549047D01*
X62318409Y-89626517D01*
X62297145Y-89677488D01*
X62269362Y-89696401D01*
X62208133Y-89708049D01*
X62046032Y-89721726D01*
X61781991Y-89732519D01*
X61598946Y-89735511D01*
X61223026Y-89727176D01*
X60987728Y-89713498D01*
X60934191Y-89697523D01*
X60907586Y-89675671D01*
X60891120Y-89640532D01*
X60872323Y-89565716D01*
X60831932Y-89568601D01*
X60831932Y-90337859D01*
X60824986Y-90731197D01*
X61035600Y-90709185D01*
X61105539Y-90693713D01*
X61133145Y-90679338D01*
X61139678Y-90666549D01*
X61133493Y-90640494D01*
X61118093Y-90633317D01*
X61071824Y-90638019D01*
X61027158Y-90642827D01*
X60977774Y-90631885D01*
X60942019Y-90599724D01*
X60917417Y-90539711D01*
X60899981Y-90431319D01*
X60893481Y-90291270D01*
X60900078Y-90114336D01*
X60920409Y-89927318D01*
X61109599Y-89910959D01*
X61252518Y-89906160D01*
X61456613Y-89905626D01*
X61557888Y-89903286D01*
X61561012Y-89901672D01*
X61563683Y-90080870D01*
X61560645Y-90314245D01*
X61553959Y-90428367D01*
X61539961Y-90499319D01*
X61527209Y-90515199D01*
X61497967Y-90533406D01*
X61390042Y-90570806D01*
X61392927Y-90611411D01*
X61617218Y-90610770D01*
X61844074Y-90609060D01*
X61844074Y-90560441D01*
X61741895Y-90548724D01*
X61690629Y-90528170D01*
X61658209Y-90489792D01*
X61637094Y-90416826D01*
X61628908Y-90317660D01*
X61625233Y-90120300D01*
X61628563Y-89990867D01*
X61636773Y-89908404D01*
X61803469Y-89903702D01*
X62095807Y-89905699D01*
X62279620Y-89924860D01*
X62292229Y-89974014D01*
X62303556Y-90030541D01*
X62311784Y-90107370D01*
X62315951Y-90232713D01*
X62308068Y-90409806D01*
X62288382Y-90526247D01*
X62264973Y-90594625D01*
X62235347Y-90647924D01*
X62200012Y-90688775D01*
X62129821Y-90738590D01*
X62021883Y-90786121D01*
G37*
G36*
X62391606Y-90910288D02*
G01*
X62350680Y-90910288D01*
X62327276Y-90992719D01*
X62297251Y-91037981D01*
X62252598Y-91066307D01*
X62181526Y-91083609D01*
X61993887Y-91096752D01*
X61657183Y-91109896D01*
X61316418Y-91115880D01*
X61094973Y-91110020D01*
X60993136Y-91097502D01*
X60957060Y-91084250D01*
X60936772Y-91057832D01*
X60928530Y-91005711D01*
X60929705Y-90983378D01*
X60932163Y-90967991D01*
X60935048Y-90948543D01*
X60884398Y-90948543D01*
X60788179Y-91159907D01*
X60722511Y-91272424D01*
X60722511Y-91313777D01*
X60895858Y-91285615D01*
X61238092Y-91266226D01*
X61813513Y-91256609D01*
X62177142Y-91263290D01*
X62270644Y-91274347D01*
X62294367Y-91293675D01*
X62315844Y-91344445D01*
X62336788Y-91455041D01*
X62391392Y-91455041D01*
X62377501Y-91136075D01*
X62380952Y-91026551D01*
X62391606Y-90910288D01*
G37*
G36*
X62069743Y-91572738D02*
G01*
X62169036Y-91604809D01*
X62260279Y-91658282D01*
X62317653Y-91711413D01*
X62357926Y-91772742D01*
X62382566Y-91843883D01*
X62391178Y-91927453D01*
X62383523Y-92004354D01*
X62358934Y-92090867D01*
X62314143Y-92189238D01*
X62244892Y-92301770D01*
X62212194Y-92276018D01*
X62257445Y-92200218D01*
X62283040Y-92139135D01*
X62297677Y-92079206D01*
X62302274Y-92025440D01*
X62289415Y-91945501D01*
X62250618Y-91873268D01*
X62181633Y-91805850D01*
X62116880Y-91765386D01*
X62056504Y-91742378D01*
X61988571Y-91729745D01*
X61884359Y-91720579D01*
X61753994Y-92318333D01*
X61703024Y-92315555D01*
X61697467Y-92279437D01*
X61674493Y-92260417D01*
X61596013Y-92217181D01*
X61539213Y-92167025D01*
X61496617Y-92108739D01*
X61471894Y-92052261D01*
X61458541Y-91993941D01*
X61454263Y-91939421D01*
X61463745Y-91892725D01*
X61536328Y-91892725D01*
X61546095Y-91959465D01*
X61574583Y-92015823D01*
X61615764Y-92063156D01*
X61658892Y-92096499D01*
X61702332Y-92119573D01*
X61723327Y-92124816D01*
X61732500Y-92121387D01*
X61739996Y-92109322D01*
X61760085Y-92031958D01*
X61778358Y-91947435D01*
X61797805Y-91874880D01*
X61830717Y-91723144D01*
X61727595Y-91738534D01*
X61630896Y-91768237D01*
X61576556Y-91800164D01*
X61546533Y-91840775D01*
X61536328Y-91892725D01*
X61463745Y-91892725D01*
X61464691Y-91888066D01*
X61506408Y-91800187D01*
X61546047Y-91743505D01*
X61600690Y-91688585D01*
X61672890Y-91635201D01*
X61752253Y-91595660D01*
X61846839Y-91570680D01*
X61960013Y-91561791D01*
X62069743Y-91572738D01*
G37*
G36*
X62219033Y-93222444D02*
G01*
X62258783Y-93241892D01*
X62319053Y-93156458D01*
X62359839Y-93073422D01*
X62383436Y-92991725D01*
X62391178Y-92910103D01*
X62381442Y-92812685D01*
X62350893Y-92708572D01*
X62303051Y-92613143D01*
X62246708Y-92545296D01*
X62195871Y-92513211D01*
X62121900Y-92486632D01*
X62042249Y-92470708D01*
X61967386Y-92465581D01*
X61869558Y-92474652D01*
X61778987Y-92501409D01*
X61693941Y-92546150D01*
X61616829Y-92604882D01*
X61553337Y-92670698D01*
X61502241Y-92744048D01*
X61462657Y-92824431D01*
X61440679Y-92897142D01*
X61433746Y-92963852D01*
X61441083Y-93030586D01*
X61468581Y-93135570D01*
X61497305Y-93208515D01*
X61519012Y-93238530D01*
X61535901Y-93245845D01*
X61552793Y-93240266D01*
X61600869Y-93211544D01*
X61643074Y-93176391D01*
X61652588Y-93155124D01*
X61642116Y-93126914D01*
X61607388Y-93067502D01*
X61562431Y-92941997D01*
X61550006Y-92853896D01*
X61559347Y-92778279D01*
X61585308Y-92719940D01*
X61627370Y-92674699D01*
X61682353Y-92643445D01*
X61757952Y-92622518D01*
X61860423Y-92614645D01*
X61953954Y-92622168D01*
X62033360Y-92643468D01*
X62101170Y-92677477D01*
X62162038Y-92723587D01*
X62209028Y-92773840D01*
X62243823Y-92828572D01*
X62278261Y-92916302D01*
X62288596Y-92990138D01*
X62283861Y-93050245D01*
X62270110Y-93104474D01*
X62219033Y-93222444D01*
G37*
G36*
X62028294Y-93451757D02*
G01*
X61563683Y-93457741D01*
X61556845Y-93328445D01*
X61530344Y-93332185D01*
X61462569Y-93430131D01*
X61405109Y-93495889D01*
X61234994Y-93641000D01*
X61458644Y-93628604D01*
X61467940Y-93849690D01*
X61465482Y-93981123D01*
X61548937Y-93978558D01*
X61556845Y-93847339D01*
X61555028Y-93800536D01*
X61549578Y-93673911D01*
X61553425Y-93641534D01*
X61568064Y-93627429D01*
X61611555Y-93621872D01*
X61680798Y-93618773D01*
X62048276Y-93612790D01*
X62148325Y-93618204D01*
X62221063Y-93636725D01*
X62257128Y-93660938D01*
X62279894Y-93700994D01*
X62288596Y-93763564D01*
X62284820Y-93804469D01*
X62271606Y-93860162D01*
X62218819Y-93996724D01*
X62237839Y-94000678D01*
X62250555Y-94002922D01*
X62294679Y-93948413D01*
X62345230Y-93846805D01*
X62380558Y-93736030D01*
X62391178Y-93644098D01*
X62385052Y-93593489D01*
X62367102Y-93548717D01*
X62336788Y-93508284D01*
X62296417Y-93479131D01*
X62236457Y-93459363D01*
X62149683Y-93451757D01*
X62028294Y-93451757D01*
G37*
G36*
X62377607Y-94051434D02*
G01*
X62337002Y-94054213D01*
X62313494Y-94137988D01*
X62296445Y-94156911D01*
X62259424Y-94176243D01*
X62210989Y-94188990D01*
X62129808Y-94198041D01*
X61862881Y-94203491D01*
X61732769Y-94198645D01*
X61675134Y-94188424D01*
X61650179Y-94173924D01*
X61634985Y-94150219D01*
X61629293Y-94113732D01*
X61639979Y-94034444D01*
X61589008Y-94040001D01*
X61404040Y-94354692D01*
X61607067Y-94359715D01*
X61537076Y-94482493D01*
X61526284Y-94499162D01*
X61508973Y-94529082D01*
X61474352Y-94586357D01*
X61433212Y-94652608D01*
X61439196Y-94664362D01*
X61451057Y-94680604D01*
X61470290Y-94714162D01*
X61490807Y-94737986D01*
X61516909Y-94753312D01*
X61555883Y-94759036D01*
X61600143Y-94749274D01*
X61635811Y-94719713D01*
X61660399Y-94676664D01*
X61673532Y-94621940D01*
X61631669Y-94616776D01*
X61605998Y-94603668D01*
X61589875Y-94582285D01*
X61584200Y-94552377D01*
X61589846Y-94516517D01*
X61609738Y-94468922D01*
X61657824Y-94395618D01*
X61683639Y-94370766D01*
X61700459Y-94361318D01*
X61785196Y-94355013D01*
X62000084Y-94347854D01*
X62211890Y-94355914D01*
X62288169Y-94371469D01*
X62309967Y-94393588D01*
X62313921Y-94437506D01*
X62311463Y-94468494D01*
X62309006Y-94614567D01*
X62363823Y-94611789D01*
X62365853Y-94533249D01*
X62367777Y-94440071D01*
X62377607Y-94051434D01*
G37*
G36*
X62029096Y-94844582D02*
G01*
X62117340Y-94870920D01*
X62191143Y-94912909D01*
X62255610Y-94969514D01*
X62306114Y-95033086D01*
X62343841Y-95104396D01*
X62379756Y-95218429D01*
X62391178Y-95325161D01*
X62383386Y-95417896D01*
X62360784Y-95500970D01*
X62323752Y-95576166D01*
X62273624Y-95643692D01*
X62214473Y-95699587D01*
X62145516Y-95744785D01*
X62069866Y-95777946D01*
X61991178Y-95797745D01*
X61908402Y-95804411D01*
X61813656Y-95795099D01*
X61726532Y-95767653D01*
X61647341Y-95723979D01*
X61580032Y-95667101D01*
X61524847Y-95598313D01*
X61482686Y-95518357D01*
X61456311Y-95431233D01*
X61447424Y-95338304D01*
X61452500Y-95278465D01*
X61508973Y-95278465D01*
X61516171Y-95342410D01*
X61537683Y-95402460D01*
X61574476Y-95460013D01*
X61648802Y-95532784D01*
X61744270Y-95589203D01*
X61850355Y-95624503D01*
X61958090Y-95636113D01*
X62062461Y-95625694D01*
X62152034Y-95595828D01*
X62228800Y-95547804D01*
X62283574Y-95488224D01*
X62318079Y-95417202D01*
X62329629Y-95338304D01*
X62321987Y-95278010D01*
X62298915Y-95220817D01*
X62258783Y-95165197D01*
X62179178Y-95096112D01*
X62076914Y-95042526D01*
X61964845Y-95009425D01*
X61853798Y-94998608D01*
X61759569Y-95007865D01*
X61676951Y-95034619D01*
X61605451Y-95078381D01*
X61553318Y-95134529D01*
X61520145Y-95202131D01*
X61508973Y-95278465D01*
X61452500Y-95278465D01*
X61456090Y-95236153D01*
X61481511Y-95142223D01*
X61523063Y-95056109D01*
X61578750Y-94982152D01*
X61647737Y-94921042D01*
X61728990Y-94874334D01*
X61819596Y-94845281D01*
X61922934Y-94835225D01*
X62029096Y-94844582D01*
G37*
G36*
X62363823Y-95918213D02*
G01*
X62323431Y-95915435D01*
X62297679Y-96011712D01*
X62282800Y-96037230D01*
X62268507Y-96049967D01*
X62223734Y-96062683D01*
X62060031Y-96075719D01*
X61863415Y-96079352D01*
X61736290Y-96076558D01*
X61675882Y-96070483D01*
X61633396Y-96055632D01*
X61612944Y-96033511D01*
X61602042Y-95998340D01*
X61590718Y-95922808D01*
X61568278Y-95918961D01*
X61515598Y-96059156D01*
X61472535Y-96148916D01*
X61447424Y-96204801D01*
X61454829Y-96220650D01*
X61482579Y-96230661D01*
X61589756Y-96235683D01*
X61528340Y-96358218D01*
X61491449Y-96447579D01*
X61468418Y-96532584D01*
X61461101Y-96611176D01*
X61467826Y-96687848D01*
X61485637Y-96743212D01*
X61512392Y-96782573D01*
X61568997Y-96826414D01*
X61636025Y-96849358D01*
X61714005Y-96858500D01*
X61826015Y-96862074D01*
X62108116Y-96862074D01*
X62256430Y-96867789D01*
X62288169Y-96876607D01*
X62307617Y-96936553D01*
X62323859Y-96999491D01*
X62378142Y-97002163D01*
X62367616Y-96905620D01*
X62363823Y-96790587D01*
X62377821Y-96546848D01*
X62330270Y-96546848D01*
X62310092Y-96618590D01*
X62287293Y-96660473D01*
X62263057Y-96682235D01*
X62212926Y-96695378D01*
X62096469Y-96706385D01*
X61897930Y-96713010D01*
X61725143Y-96704141D01*
X61662210Y-96687229D01*
X61610807Y-96655414D01*
X61585651Y-96625642D01*
X61569599Y-96585366D01*
X61563683Y-96531140D01*
X61579391Y-96415949D01*
X61603048Y-96336917D01*
X61649809Y-96235683D01*
X61970485Y-96228524D01*
X62242968Y-96233225D01*
X62285070Y-96244018D01*
X62296981Y-96256141D01*
X62310074Y-96282700D01*
X62330056Y-96390090D01*
X62377821Y-96387312D01*
X62370662Y-96308452D01*
X62363823Y-96183110D01*
X62363823Y-95918213D01*
G37*
G36*
X62377607Y-97101219D02*
G01*
X62323111Y-97106668D01*
X62306742Y-97196269D01*
X62289344Y-97221539D01*
X62206531Y-97231904D01*
X62032034Y-97239704D01*
X61917698Y-97242696D01*
X61704947Y-97237353D01*
X61662907Y-97228650D01*
X61641688Y-97217264D01*
X61630896Y-97157425D01*
X61621078Y-97110099D01*
X61612089Y-97101539D01*
X61594186Y-97107372D01*
X61584307Y-97125582D01*
X61549888Y-97216983D01*
X61500241Y-97309511D01*
X61433746Y-97403835D01*
X61439623Y-97431832D01*
X61584413Y-97410888D01*
X61780708Y-97397103D01*
X61962791Y-97391761D01*
X62132372Y-97395928D01*
X62233849Y-97402645D01*
X62281223Y-97410674D01*
X62306655Y-97433007D01*
X62315738Y-97489000D01*
X62323111Y-97574805D01*
X62363716Y-97591902D01*
X62377607Y-97101219D01*
G37*
G36*
X60948191Y-97282126D02*
G01*
X60909843Y-97289376D01*
X60879483Y-97310657D01*
X60859222Y-97341928D01*
X60852448Y-97378831D01*
X60859548Y-97415506D01*
X60880765Y-97445830D01*
X60911727Y-97466266D01*
X60948191Y-97473078D01*
X60984715Y-97466387D01*
X61015725Y-97446364D01*
X61036783Y-97416414D01*
X61043935Y-97378831D01*
X61036904Y-97342018D01*
X61015725Y-97310657D01*
X60984575Y-97289213D01*
X60948191Y-97282126D01*
G37*
G36*
X62219033Y-98472932D02*
G01*
X62258783Y-98492380D01*
X62319053Y-98406946D01*
X62359839Y-98323911D01*
X62383436Y-98242214D01*
X62391178Y-98160591D01*
X62381442Y-98063174D01*
X62350893Y-97959060D01*
X62303051Y-97863632D01*
X62246708Y-97795784D01*
X62195871Y-97763700D01*
X62121900Y-97737120D01*
X62042249Y-97721196D01*
X61967386Y-97716069D01*
X61869558Y-97725141D01*
X61778987Y-97751897D01*
X61693941Y-97796639D01*
X61616829Y-97855370D01*
X61553337Y-97921186D01*
X61502241Y-97994537D01*
X61462657Y-98074919D01*
X61440679Y-98147631D01*
X61433746Y-98214340D01*
X61441083Y-98281075D01*
X61468581Y-98386058D01*
X61497305Y-98459004D01*
X61519012Y-98489019D01*
X61535901Y-98496334D01*
X61552793Y-98490755D01*
X61600869Y-98462033D01*
X61643074Y-98426879D01*
X61652588Y-98405613D01*
X61642116Y-98377403D01*
X61607388Y-98317991D01*
X61562431Y-98192485D01*
X61550006Y-98104385D01*
X61559347Y-98028768D01*
X61585308Y-97970428D01*
X61627370Y-97925187D01*
X61682353Y-97893933D01*
X61757952Y-97873006D01*
X61860423Y-97865134D01*
X61953954Y-97872657D01*
X62033360Y-97893957D01*
X62101170Y-97927965D01*
X62162038Y-97974076D01*
X62209028Y-98024328D01*
X62243823Y-98079060D01*
X62278261Y-98166790D01*
X62288596Y-98240627D01*
X62283861Y-98300734D01*
X62270110Y-98354963D01*
X62219033Y-98472932D01*
G37*
G36*
X62103628Y-98592932D02*
G01*
X62106513Y-98643368D01*
X62132425Y-98650659D01*
X62180137Y-98681622D01*
X62226000Y-98725361D01*
X62269362Y-98785059D01*
X62299160Y-98852993D01*
X62309113Y-98926857D01*
X62303415Y-98981680D01*
X62285925Y-99037133D01*
X62265427Y-99066704D01*
X62233415Y-99085062D01*
X62185373Y-99091950D01*
X62133555Y-99085331D01*
X62090323Y-99066315D01*
X62053619Y-99034569D01*
X62007250Y-98973035D01*
X61966638Y-98902601D01*
X61924644Y-98812949D01*
X61880536Y-98739102D01*
X61837556Y-98686538D01*
X61786234Y-98651087D01*
X61720014Y-98638880D01*
X61664609Y-98648200D01*
X61602579Y-98678844D01*
X61547474Y-98726581D01*
X61501172Y-98794249D01*
X61471390Y-98873593D01*
X61461101Y-98965112D01*
X61480656Y-99159270D01*
X61686782Y-99199982D01*
X61686782Y-99151362D01*
X61647163Y-99133956D01*
X61608884Y-99101888D01*
X61576007Y-99060804D01*
X61547869Y-99012129D01*
X61528213Y-98961881D01*
X61522651Y-98924507D01*
X61532328Y-98867463D01*
X61559943Y-98824062D01*
X61601868Y-98795392D01*
X61654832Y-98785594D01*
X61696923Y-98792838D01*
X61727708Y-98813269D01*
X61755929Y-98849036D01*
X61797485Y-98921301D01*
X61833923Y-98994070D01*
X61887674Y-99088303D01*
X61945801Y-99164613D01*
X61993089Y-99203779D01*
X62051173Y-99227793D01*
X62123289Y-99236313D01*
X62166253Y-99232109D01*
X62214117Y-99218682D01*
X62256358Y-99195802D01*
X62283146Y-99165361D01*
X62338562Y-99068439D01*
X62365639Y-99000695D01*
X62379667Y-98935091D01*
X62384339Y-98868300D01*
X62378142Y-98799699D01*
X62368204Y-98737295D01*
X62350680Y-98674890D01*
X62332407Y-98614517D01*
X62263164Y-98624561D01*
X62183556Y-98614410D01*
X62103628Y-98592932D01*
G37*
G36*
X62384540Y-99966817D02*
G01*
X62391178Y-99987619D01*
X62389468Y-100007922D01*
X62377501Y-100246853D01*
X62383591Y-100372195D01*
X62391178Y-100472747D01*
X62384462Y-100487156D01*
X62360083Y-100492943D01*
X62346978Y-100486943D01*
X62336575Y-100464091D01*
X62304090Y-100360548D01*
X62289072Y-100341607D01*
X62265729Y-100328918D01*
X62211921Y-100314674D01*
X62109826Y-100304555D01*
X61910004Y-100299212D01*
X61631323Y-100301670D01*
X61641735Y-100408975D01*
X61645749Y-100558232D01*
X61840334Y-100694687D01*
X62080974Y-100872923D01*
X62172839Y-100953049D01*
X62262630Y-101045496D01*
X62341543Y-101146450D01*
X62401223Y-101250767D01*
X62439936Y-101361492D01*
X62452727Y-101475700D01*
X62446316Y-101529234D01*
X62426654Y-101541309D01*
X62407467Y-101535008D01*
X62398017Y-101515557D01*
X62378735Y-101432957D01*
X62331018Y-101342984D01*
X62263699Y-101257390D01*
X62174367Y-101169236D01*
X61973798Y-101009806D01*
X61700780Y-100823556D01*
X61623523Y-100772051D01*
X61575261Y-100876317D01*
X61519659Y-100956699D01*
X61452935Y-101021768D01*
X61381493Y-101066333D01*
X61303712Y-101093591D01*
X61224308Y-101102558D01*
X61147253Y-101093890D01*
X61071503Y-101067509D01*
X61001927Y-101024815D01*
X60939215Y-100964499D01*
X60888088Y-100890097D01*
X60846357Y-100795453D01*
X60820517Y-100690551D01*
X60811415Y-100568383D01*
X60813782Y-100528953D01*
X60872965Y-100528953D01*
X60880339Y-100610722D01*
X60901421Y-100681091D01*
X60935582Y-100742238D01*
X61005362Y-100819389D01*
X61085502Y-100871962D01*
X61172960Y-100904049D01*
X61252518Y-100914063D01*
X61326008Y-100908049D01*
X61384636Y-100891465D01*
X61431395Y-100865657D01*
X61489005Y-100811729D01*
X61525963Y-100750359D01*
X61549372Y-100683279D01*
X61562294Y-100619781D01*
X61570522Y-100499033D01*
X61566912Y-100390340D01*
X61557379Y-100308829D01*
X61150283Y-100314230D01*
X60978965Y-100325325D01*
X60927996Y-100336078D01*
X60905935Y-100355925D01*
X60886428Y-100411411D01*
X60872965Y-100528953D01*
X60813782Y-100528953D01*
X60825093Y-100340566D01*
X60838771Y-100132089D01*
X60836313Y-99967637D01*
X60893054Y-99962188D01*
X60904031Y-100029000D01*
X60915493Y-100065625D01*
X60935222Y-100092232D01*
X60970311Y-100112214D01*
X61017439Y-100123714D01*
X61100782Y-100131555D01*
X61381600Y-100133371D01*
X61903914Y-100133371D01*
X62077460Y-100129196D01*
X62174260Y-100121403D01*
X62250303Y-100105664D01*
X62286352Y-100087530D01*
X62309781Y-100058956D01*
X62328347Y-100011662D01*
X62343734Y-99969988D01*
X62365105Y-99960051D01*
X62384540Y-99966817D01*
G37*
G36*
X62069743Y-101605257D02*
G01*
X62169036Y-101637328D01*
X62260279Y-101690801D01*
X62317653Y-101743933D01*
X62357926Y-101805261D01*
X62382566Y-101876402D01*
X62391178Y-101959972D01*
X62383523Y-102036874D01*
X62358934Y-102123386D01*
X62314143Y-102221757D01*
X62244892Y-102334289D01*
X62212194Y-102308537D01*
X62257445Y-102232737D01*
X62283040Y-102171654D01*
X62297677Y-102111725D01*
X62302274Y-102057959D01*
X62289415Y-101978020D01*
X62250618Y-101905787D01*
X62181633Y-101838370D01*
X62116880Y-101797905D01*
X62056504Y-101774897D01*
X61988571Y-101762264D01*
X61884359Y-101753098D01*
X61753994Y-102350852D01*
X61703024Y-102348074D01*
X61697467Y-102311956D01*
X61674493Y-102292936D01*
X61596013Y-102249700D01*
X61539213Y-102199544D01*
X61496617Y-102141258D01*
X61471894Y-102084780D01*
X61458541Y-102026460D01*
X61454263Y-101971940D01*
X61463745Y-101925244D01*
X61536328Y-101925244D01*
X61546095Y-101991984D01*
X61574583Y-102048342D01*
X61615764Y-102095675D01*
X61658892Y-102129019D01*
X61702332Y-102152092D01*
X61723327Y-102157336D01*
X61732500Y-102153906D01*
X61739996Y-102141841D01*
X61760085Y-102064477D01*
X61778358Y-101979954D01*
X61797805Y-101907399D01*
X61830717Y-101755663D01*
X61727595Y-101771053D01*
X61630896Y-101800756D01*
X61576556Y-101832683D01*
X61546533Y-101873295D01*
X61536328Y-101925244D01*
X61463745Y-101925244D01*
X61464691Y-101920586D01*
X61506408Y-101832706D01*
X61546047Y-101776025D01*
X61600690Y-101721105D01*
X61672890Y-101667720D01*
X61752253Y-101628179D01*
X61846839Y-101603199D01*
X61960013Y-101594310D01*
X62069743Y-101605257D01*
G37*
G36*
X62103628Y-102402143D02*
G01*
X62106513Y-102452579D01*
X62132425Y-102459870D01*
X62180137Y-102490834D01*
X62226000Y-102534573D01*
X62269362Y-102594271D01*
X62299160Y-102662204D01*
X62309113Y-102736069D01*
X62303415Y-102790892D01*
X62285925Y-102846345D01*
X62265427Y-102875915D01*
X62233415Y-102894273D01*
X62185373Y-102901162D01*
X62133555Y-102894543D01*
X62090323Y-102875527D01*
X62053619Y-102843780D01*
X62007250Y-102782246D01*
X61966638Y-102711813D01*
X61924644Y-102622160D01*
X61880536Y-102548314D01*
X61837556Y-102495749D01*
X61786234Y-102460299D01*
X61720014Y-102448091D01*
X61664609Y-102457412D01*
X61602579Y-102488056D01*
X61547474Y-102535793D01*
X61501172Y-102603460D01*
X61471390Y-102682804D01*
X61461101Y-102774323D01*
X61480656Y-102968481D01*
X61686782Y-103009193D01*
X61686782Y-102960574D01*
X61647163Y-102943167D01*
X61608884Y-102911099D01*
X61576007Y-102870015D01*
X61547869Y-102821340D01*
X61528213Y-102771092D01*
X61522651Y-102733718D01*
X61532328Y-102676675D01*
X61559943Y-102633273D01*
X61601868Y-102604603D01*
X61654832Y-102594805D01*
X61696923Y-102602049D01*
X61727708Y-102622481D01*
X61755929Y-102658248D01*
X61797485Y-102730512D01*
X61833923Y-102803282D01*
X61887674Y-102897515D01*
X61945801Y-102973824D01*
X61993089Y-103012990D01*
X62051173Y-103037005D01*
X62123289Y-103045525D01*
X62166253Y-103041320D01*
X62214117Y-103027893D01*
X62256358Y-103005013D01*
X62283146Y-102974572D01*
X62338562Y-102877651D01*
X62365639Y-102809907D01*
X62379667Y-102744302D01*
X62384339Y-102677512D01*
X62378142Y-102608910D01*
X62368204Y-102546506D01*
X62350680Y-102484102D01*
X62332407Y-102423728D01*
X62263164Y-102433773D01*
X62183556Y-102423621D01*
X62103628Y-102402143D01*
G37*
G36*
X62029096Y-103232370D02*
G01*
X62117340Y-103258707D01*
X62191143Y-103300697D01*
X62255610Y-103357302D01*
X62306114Y-103420874D01*
X62343841Y-103492184D01*
X62379756Y-103606217D01*
X62391178Y-103712949D01*
X62383386Y-103805684D01*
X62360784Y-103888758D01*
X62323752Y-103963954D01*
X62273624Y-104031480D01*
X62214473Y-104087375D01*
X62145516Y-104132573D01*
X62069866Y-104165734D01*
X61991178Y-104185533D01*
X61908402Y-104192199D01*
X61813656Y-104182887D01*
X61726532Y-104155440D01*
X61647341Y-104111767D01*
X61580032Y-104054889D01*
X61524847Y-103986101D01*
X61482686Y-103906145D01*
X61456311Y-103819021D01*
X61447424Y-103726092D01*
X61452500Y-103666253D01*
X61508973Y-103666253D01*
X61516171Y-103730198D01*
X61537683Y-103790248D01*
X61574476Y-103847801D01*
X61648802Y-103920572D01*
X61744270Y-103976991D01*
X61850355Y-104012291D01*
X61958090Y-104023900D01*
X62062461Y-104013482D01*
X62152034Y-103983616D01*
X62228800Y-103935592D01*
X62283574Y-103876011D01*
X62318079Y-103804989D01*
X62329629Y-103726092D01*
X62321987Y-103665798D01*
X62298915Y-103608605D01*
X62258783Y-103552985D01*
X62179178Y-103483900D01*
X62076914Y-103430314D01*
X61964845Y-103397212D01*
X61853798Y-103386396D01*
X61759569Y-103395653D01*
X61676951Y-103422407D01*
X61605451Y-103466169D01*
X61553318Y-103522317D01*
X61520145Y-103589919D01*
X61508973Y-103666253D01*
X61452500Y-103666253D01*
X61456090Y-103623940D01*
X61481511Y-103530011D01*
X61523063Y-103443897D01*
X61578750Y-103369940D01*
X61647737Y-103308830D01*
X61728990Y-103262122D01*
X61819596Y-103233069D01*
X61922934Y-103223013D01*
X62029096Y-103232370D01*
G37*
G36*
X61654191Y-104302581D02*
G01*
X61602686Y-104302581D01*
X61457148Y-104569936D01*
X61447424Y-104594620D01*
X61453256Y-104609954D01*
X61472108Y-104615457D01*
X61674386Y-104601031D01*
X61970378Y-104586712D01*
X62096062Y-104596356D01*
X62188792Y-104621975D01*
X62234758Y-104653799D01*
X62263824Y-104705835D01*
X62274919Y-104786533D01*
X62261455Y-104872339D01*
X62219994Y-104975883D01*
X62176504Y-105066497D01*
X62061740Y-105070023D01*
X61818215Y-105077182D01*
X61716132Y-105076839D01*
X61663380Y-105070237D01*
X61625251Y-105054040D01*
X61605998Y-105030379D01*
X61596760Y-104995434D01*
X61590932Y-104928011D01*
X61540496Y-104925233D01*
X61466978Y-105250396D01*
X61679088Y-105237574D01*
X61890236Y-105225713D01*
X62057039Y-105220370D01*
X62219579Y-105227115D01*
X62300350Y-105242062D01*
X62293173Y-105302677D01*
X62273636Y-105376914D01*
X62328774Y-105376914D01*
X62419602Y-105097485D01*
X62339603Y-105079173D01*
X62237412Y-105064573D01*
X62334753Y-104863757D01*
X62379656Y-104736778D01*
X62391178Y-104661084D01*
X62383809Y-104611764D01*
X62360498Y-104560545D01*
X62317768Y-104505715D01*
X62279089Y-104475784D01*
X62223012Y-104452685D01*
X62143939Y-104438129D01*
X62034919Y-104435297D01*
X61767779Y-104444807D01*
X61661136Y-104439678D01*
X61634120Y-104425173D01*
X61625233Y-104396829D01*
X61630300Y-104370195D01*
X61654191Y-104302581D01*
G37*
G36*
X62377607Y-105458552D02*
G01*
X62337002Y-105461331D01*
X62313494Y-105545106D01*
X62296445Y-105564029D01*
X62259424Y-105583360D01*
X62210989Y-105596108D01*
X62129808Y-105605159D01*
X61862881Y-105610609D01*
X61732769Y-105605763D01*
X61675134Y-105595542D01*
X61650179Y-105581042D01*
X61634985Y-105557336D01*
X61629293Y-105520850D01*
X61639979Y-105441562D01*
X61589008Y-105447119D01*
X61404040Y-105761810D01*
X61607067Y-105766833D01*
X61537076Y-105889610D01*
X61526284Y-105906280D01*
X61508973Y-105936200D01*
X61474352Y-105993475D01*
X61433212Y-106059726D01*
X61439196Y-106071480D01*
X61451057Y-106087722D01*
X61470290Y-106121280D01*
X61490807Y-106145104D01*
X61516909Y-106160430D01*
X61555883Y-106166154D01*
X61600143Y-106156392D01*
X61635811Y-106126831D01*
X61660399Y-106083782D01*
X61673532Y-106029058D01*
X61631669Y-106023893D01*
X61605998Y-106010785D01*
X61589875Y-105989403D01*
X61584200Y-105959494D01*
X61589846Y-105923635D01*
X61609738Y-105876040D01*
X61657824Y-105802736D01*
X61683639Y-105777883D01*
X61700459Y-105768435D01*
X61785196Y-105762131D01*
X62000084Y-105754972D01*
X62211890Y-105763032D01*
X62288169Y-105778587D01*
X62309967Y-105800706D01*
X62313921Y-105844624D01*
X62311463Y-105875612D01*
X62309006Y-106021685D01*
X62363823Y-106018907D01*
X62365853Y-105940367D01*
X62367777Y-105847189D01*
X62377607Y-105458552D01*
G37*
G36*
X62219033Y-107011174D02*
G01*
X62258783Y-107030621D01*
X62319053Y-106945188D01*
X62359839Y-106862152D01*
X62383436Y-106780455D01*
X62391178Y-106698833D01*
X62381442Y-106601415D01*
X62350893Y-106497302D01*
X62303051Y-106401873D01*
X62246708Y-106334026D01*
X62195871Y-106301941D01*
X62121900Y-106275362D01*
X62042249Y-106259437D01*
X61967386Y-106254311D01*
X61869558Y-106263382D01*
X61778987Y-106290139D01*
X61693941Y-106334880D01*
X61616829Y-106393612D01*
X61553337Y-106459428D01*
X61502241Y-106532778D01*
X61462657Y-106613161D01*
X61440679Y-106685872D01*
X61433746Y-106752581D01*
X61441083Y-106819316D01*
X61468581Y-106924299D01*
X61497305Y-106997245D01*
X61519012Y-107027260D01*
X61535901Y-107034575D01*
X61552793Y-107028996D01*
X61600869Y-107000274D01*
X61643074Y-106965121D01*
X61652588Y-106943854D01*
X61642116Y-106915644D01*
X61607388Y-106856232D01*
X61562431Y-106730726D01*
X61550006Y-106642626D01*
X61559347Y-106567009D01*
X61585308Y-106508670D01*
X61627370Y-106463428D01*
X61682353Y-106432175D01*
X61757952Y-106411248D01*
X61860423Y-106403375D01*
X61953954Y-106410898D01*
X62033360Y-106432198D01*
X62101170Y-106466207D01*
X62162038Y-106512317D01*
X62209028Y-106562570D01*
X62243823Y-106617301D01*
X62278261Y-106705032D01*
X62288596Y-106778868D01*
X62283861Y-106838975D01*
X62270110Y-106893204D01*
X62219033Y-107011174D01*
G37*
G36*
X62069743Y-107156653D02*
G01*
X62169036Y-107188724D01*
X62260279Y-107242197D01*
X62317653Y-107295328D01*
X62357926Y-107356657D01*
X62382566Y-107427798D01*
X62391178Y-107511368D01*
X62383523Y-107588269D01*
X62358934Y-107674781D01*
X62314143Y-107773153D01*
X62244892Y-107885685D01*
X62212194Y-107859933D01*
X62257445Y-107784133D01*
X62283040Y-107723050D01*
X62297677Y-107663121D01*
X62302274Y-107609355D01*
X62289415Y-107529416D01*
X62250618Y-107457183D01*
X62181633Y-107389765D01*
X62116880Y-107349301D01*
X62056504Y-107326293D01*
X61988571Y-107313660D01*
X61884359Y-107304494D01*
X61753994Y-107902248D01*
X61703024Y-107899470D01*
X61697467Y-107863352D01*
X61674493Y-107844332D01*
X61596013Y-107801096D01*
X61539213Y-107750939D01*
X61496617Y-107692654D01*
X61471894Y-107636176D01*
X61458541Y-107577856D01*
X61454263Y-107523336D01*
X61463745Y-107476639D01*
X61536328Y-107476639D01*
X61546095Y-107543380D01*
X61574583Y-107599738D01*
X61615764Y-107647071D01*
X61658892Y-107680414D01*
X61702332Y-107703488D01*
X61723327Y-107708731D01*
X61732500Y-107705301D01*
X61739996Y-107693237D01*
X61760085Y-107615873D01*
X61778358Y-107531350D01*
X61797805Y-107458794D01*
X61830717Y-107307059D01*
X61727595Y-107322449D01*
X61630896Y-107352152D01*
X61576556Y-107384078D01*
X61546533Y-107424690D01*
X61536328Y-107476639D01*
X61463745Y-107476639D01*
X61464691Y-107471981D01*
X61506408Y-107384102D01*
X61546047Y-107327420D01*
X61600690Y-107272500D01*
X61672890Y-107219116D01*
X61752253Y-107179575D01*
X61846839Y-107154595D01*
X61960013Y-107145706D01*
X62069743Y-107156653D01*
G37*
G36*
X62129808Y-109990326D02*
G01*
X62308471Y-109938500D01*
X62369700Y-109702028D01*
X62385620Y-109594065D01*
X62391178Y-109473142D01*
X62378140Y-109325286D01*
X62338284Y-109175440D01*
X62297214Y-109079492D01*
X62244954Y-108990492D01*
X62181099Y-108907765D01*
X62107019Y-108834404D01*
X62022654Y-108771688D01*
X61926995Y-108719271D01*
X61824893Y-108681265D01*
X61711750Y-108657749D01*
X61585696Y-108649600D01*
X61454980Y-108658288D01*
X61338923Y-108683254D01*
X61235345Y-108723455D01*
X61142456Y-108778683D01*
X61031962Y-108873236D01*
X60943826Y-108982334D01*
X60876384Y-109107586D01*
X60828694Y-109242901D01*
X60800353Y-109379892D01*
X60790899Y-109519731D01*
X60797553Y-109629825D01*
X60817393Y-109736741D01*
X60850525Y-109841261D01*
X60868646Y-109908384D01*
X60873285Y-109947370D01*
X60868583Y-109971626D01*
X60866126Y-109991715D01*
X60878307Y-110011163D01*
X60948512Y-109992783D01*
X61045340Y-109970290D01*
X61181245Y-109948118D01*
X61174020Y-109924931D01*
X61164148Y-109913817D01*
X61125145Y-109906016D01*
X61056252Y-109898740D01*
X61022670Y-109886248D01*
X60992396Y-109860221D01*
X60956774Y-109810373D01*
X60914745Y-109726177D01*
X60872896Y-109596330D01*
X60859287Y-109468226D01*
X60868975Y-109356539D01*
X60897401Y-109253947D01*
X60944558Y-109158557D01*
X61008969Y-109074108D01*
X61091477Y-109001368D01*
X61194602Y-108939822D01*
X61307121Y-108896337D01*
X61435285Y-108869114D01*
X61581849Y-108859573D01*
X61716684Y-108868066D01*
X61833087Y-108892143D01*
X61933833Y-108930312D01*
X62027988Y-108983246D01*
X62105121Y-109042353D01*
X62167314Y-109107586D01*
X62242564Y-109217169D01*
X62291481Y-109324077D01*
X62320992Y-109431418D01*
X62329629Y-109514922D01*
X62318217Y-109636367D01*
X62287421Y-109727353D01*
X62239572Y-109804389D01*
X62186228Y-109859641D01*
X62123344Y-109905722D01*
X62044750Y-109953033D01*
X62014946Y-109973396D01*
X62008205Y-109987120D01*
X62014524Y-110006773D01*
X62033103Y-110013193D01*
X62129808Y-109990326D01*
G37*
G36*
X62069743Y-110181112D02*
G01*
X62169036Y-110213183D01*
X62260279Y-110266656D01*
X62317653Y-110319788D01*
X62357926Y-110381116D01*
X62382566Y-110452257D01*
X62391178Y-110535827D01*
X62383523Y-110612728D01*
X62358934Y-110699241D01*
X62314143Y-110797612D01*
X62244892Y-110910144D01*
X62212194Y-110884392D01*
X62257445Y-110808592D01*
X62283040Y-110747509D01*
X62297677Y-110687580D01*
X62302274Y-110633814D01*
X62289415Y-110553875D01*
X62250618Y-110481642D01*
X62181633Y-110414224D01*
X62116880Y-110373760D01*
X62056504Y-110350752D01*
X61988571Y-110338119D01*
X61884359Y-110328953D01*
X61753994Y-110926707D01*
X61703024Y-110923929D01*
X61697467Y-110887811D01*
X61674493Y-110868791D01*
X61596013Y-110825555D01*
X61539213Y-110775399D01*
X61496617Y-110717113D01*
X61471894Y-110660635D01*
X61458541Y-110602315D01*
X61454263Y-110547795D01*
X61463745Y-110501099D01*
X61536328Y-110501099D01*
X61546095Y-110567839D01*
X61574583Y-110624197D01*
X61615764Y-110671530D01*
X61658892Y-110704873D01*
X61702332Y-110727947D01*
X61723327Y-110733190D01*
X61732500Y-110729761D01*
X61739996Y-110717696D01*
X61760085Y-110640332D01*
X61778358Y-110555809D01*
X61797805Y-110483254D01*
X61830717Y-110331518D01*
X61727595Y-110346908D01*
X61630896Y-110376611D01*
X61576556Y-110408538D01*
X61546533Y-110449149D01*
X61536328Y-110501099D01*
X61463745Y-110501099D01*
X61464691Y-110496441D01*
X61506408Y-110408561D01*
X61546047Y-110351879D01*
X61600690Y-110296959D01*
X61672890Y-110243575D01*
X61752253Y-110204034D01*
X61846839Y-110179054D01*
X61960013Y-110170165D01*
X62069743Y-110181112D01*
G37*
G36*
X62363823Y-111013154D02*
G01*
X62323431Y-111010375D01*
X62297679Y-111106653D01*
X62282800Y-111132170D01*
X62268507Y-111144907D01*
X62223734Y-111157623D01*
X62060031Y-111170660D01*
X61863415Y-111174293D01*
X61736290Y-111171499D01*
X61675882Y-111165424D01*
X61633396Y-111150573D01*
X61612944Y-111128452D01*
X61602042Y-111093280D01*
X61590718Y-111017749D01*
X61568278Y-111013902D01*
X61515598Y-111154097D01*
X61472535Y-111243856D01*
X61447424Y-111299742D01*
X61454829Y-111315591D01*
X61482579Y-111325601D01*
X61589756Y-111330624D01*
X61528340Y-111453159D01*
X61491449Y-111542520D01*
X61468418Y-111627525D01*
X61461101Y-111706116D01*
X61467826Y-111782789D01*
X61485637Y-111838153D01*
X61512392Y-111877514D01*
X61568997Y-111921354D01*
X61636025Y-111944299D01*
X61714005Y-111953441D01*
X61826015Y-111957015D01*
X62108116Y-111957015D01*
X62256430Y-111962729D01*
X62288169Y-111971547D01*
X62307617Y-112031494D01*
X62323859Y-112094432D01*
X62378142Y-112097103D01*
X62367616Y-112000561D01*
X62363823Y-111885528D01*
X62377821Y-111641789D01*
X62330270Y-111641789D01*
X62310092Y-111713531D01*
X62287293Y-111755414D01*
X62263057Y-111777176D01*
X62212926Y-111790319D01*
X62096469Y-111801325D01*
X61897930Y-111807950D01*
X61725143Y-111799081D01*
X61662210Y-111782170D01*
X61610807Y-111750355D01*
X61585651Y-111720583D01*
X61569599Y-111680307D01*
X61563683Y-111626081D01*
X61579391Y-111510890D01*
X61603048Y-111431858D01*
X61649809Y-111330624D01*
X61970485Y-111323464D01*
X62242968Y-111328166D01*
X62285070Y-111338958D01*
X62296981Y-111351082D01*
X62310074Y-111377640D01*
X62330056Y-111485031D01*
X62377821Y-111482253D01*
X62370662Y-111403393D01*
X62363823Y-111278050D01*
X62363823Y-111013154D01*
G37*
G36*
X62028294Y-112290941D02*
G01*
X61563683Y-112296925D01*
X61556845Y-112167629D01*
X61530344Y-112171369D01*
X61462569Y-112269315D01*
X61405109Y-112335072D01*
X61234994Y-112480183D01*
X61458644Y-112467788D01*
X61467940Y-112688873D01*
X61465482Y-112820307D01*
X61548937Y-112817742D01*
X61556845Y-112686523D01*
X61555028Y-112639719D01*
X61549578Y-112513095D01*
X61553425Y-112480717D01*
X61568064Y-112466612D01*
X61611555Y-112461056D01*
X61680798Y-112457957D01*
X62048276Y-112451973D01*
X62148325Y-112457387D01*
X62221063Y-112475909D01*
X62257128Y-112500122D01*
X62279894Y-112540178D01*
X62288596Y-112602747D01*
X62284820Y-112643653D01*
X62271606Y-112699345D01*
X62218819Y-112835908D01*
X62237839Y-112839861D01*
X62250555Y-112842105D01*
X62294679Y-112787597D01*
X62345230Y-112685988D01*
X62380558Y-112575214D01*
X62391178Y-112483282D01*
X62385052Y-112432672D01*
X62367102Y-112387900D01*
X62336788Y-112347468D01*
X62296417Y-112318314D01*
X62236457Y-112298546D01*
X62149683Y-112290941D01*
X62028294Y-112290941D01*
G37*
G36*
X62377607Y-112890618D02*
G01*
X62337002Y-112893396D01*
X62313494Y-112977172D01*
X62296445Y-112996094D01*
X62259424Y-113015426D01*
X62210989Y-113028173D01*
X62129808Y-113037225D01*
X61862881Y-113042674D01*
X61732769Y-113037828D01*
X61675134Y-113027608D01*
X61650179Y-113013108D01*
X61634985Y-112989402D01*
X61629293Y-112952915D01*
X61639979Y-112873628D01*
X61589008Y-112879184D01*
X61404040Y-113193876D01*
X61607067Y-113198898D01*
X61537076Y-113321676D01*
X61526284Y-113338346D01*
X61508973Y-113368265D01*
X61474352Y-113425540D01*
X61433212Y-113491791D01*
X61439196Y-113503545D01*
X61451057Y-113519788D01*
X61470290Y-113553346D01*
X61490807Y-113577169D01*
X61516909Y-113592496D01*
X61555883Y-113598220D01*
X61600143Y-113588457D01*
X61635811Y-113558897D01*
X61660399Y-113515847D01*
X61673532Y-113461123D01*
X61631669Y-113455959D01*
X61605998Y-113442851D01*
X61589875Y-113421469D01*
X61584200Y-113391560D01*
X61589846Y-113355701D01*
X61609738Y-113308105D01*
X61657824Y-113234802D01*
X61683639Y-113209949D01*
X61700459Y-113200501D01*
X61785196Y-113194197D01*
X62000084Y-113187037D01*
X62211890Y-113195097D01*
X62288169Y-113210652D01*
X62309967Y-113232772D01*
X62313921Y-113276690D01*
X62311463Y-113307678D01*
X62309006Y-113453750D01*
X62363823Y-113450972D01*
X62365853Y-113372433D01*
X62367777Y-113279254D01*
X62377607Y-112890618D01*
G37*
G36*
X62069743Y-113687706D02*
G01*
X62169036Y-113719777D01*
X62260279Y-113773251D01*
X62317653Y-113826382D01*
X62357926Y-113887711D01*
X62382566Y-113958851D01*
X62391178Y-114042421D01*
X62383523Y-114119323D01*
X62358934Y-114205835D01*
X62314143Y-114304206D01*
X62244892Y-114416739D01*
X62212194Y-114390987D01*
X62257445Y-114315187D01*
X62283040Y-114254104D01*
X62297677Y-114194175D01*
X62302274Y-114140409D01*
X62289415Y-114060469D01*
X62250618Y-113988237D01*
X62181633Y-113920819D01*
X62116880Y-113880355D01*
X62056504Y-113857346D01*
X61988571Y-113844714D01*
X61884359Y-113835548D01*
X61753994Y-114433302D01*
X61703024Y-114430523D01*
X61697467Y-114394406D01*
X61674493Y-114375385D01*
X61596013Y-114332149D01*
X61539213Y-114281993D01*
X61496617Y-114223707D01*
X61471894Y-114167230D01*
X61458541Y-114108909D01*
X61454263Y-114054389D01*
X61463745Y-114007693D01*
X61536328Y-114007693D01*
X61546095Y-114074434D01*
X61574583Y-114130792D01*
X61615764Y-114178125D01*
X61658892Y-114211468D01*
X61702332Y-114234542D01*
X61723327Y-114239785D01*
X61732500Y-114236355D01*
X61739996Y-114224291D01*
X61760085Y-114146927D01*
X61778358Y-114062404D01*
X61797805Y-113989848D01*
X61830717Y-113838112D01*
X61727595Y-113853503D01*
X61630896Y-113883206D01*
X61576556Y-113915132D01*
X61546533Y-113955744D01*
X61536328Y-114007693D01*
X61463745Y-114007693D01*
X61464691Y-114003035D01*
X61506408Y-113915156D01*
X61546047Y-113858474D01*
X61600690Y-113803554D01*
X61672890Y-113750170D01*
X61752253Y-113710628D01*
X61846839Y-113685649D01*
X61960013Y-113676759D01*
X62069743Y-113687706D01*
G37*
G36*
X85261027Y-121700673D02*
G01*
X85059527Y-121700673D01*
X85059527Y-122337903D01*
X85062469Y-122421850D01*
X85070225Y-122484547D01*
X85081386Y-122530183D01*
X85106336Y-122585044D01*
X85141563Y-122631759D01*
X85187937Y-122671355D01*
X85241883Y-122699756D01*
X85308705Y-122717962D01*
X85391514Y-122724539D01*
X85465212Y-122718690D01*
X85526358Y-122702299D01*
X85577255Y-122676417D01*
X85619637Y-122641130D01*
X85652944Y-122597400D01*
X85677939Y-122543532D01*
X85694151Y-122477392D01*
X85700237Y-122396277D01*
X85509666Y-122376737D01*
X85504467Y-122434551D01*
X85495559Y-122473513D01*
X85484387Y-122498553D01*
X85458739Y-122528571D01*
X85426257Y-122546338D01*
X85384675Y-122552592D01*
X85341417Y-122547640D01*
X85310644Y-122534392D01*
X85289054Y-122513757D01*
X85275589Y-122485517D01*
X85265286Y-122435147D01*
X85261027Y-122352313D01*
X85261027Y-121700673D01*
G37*
G36*
X84844715Y-122705000D02*
G01*
X84642543Y-122705000D01*
X84642543Y-122325935D01*
X84510713Y-122325935D01*
X84381500Y-122321746D01*
X84300969Y-122311524D01*
X84249017Y-122294250D01*
X84196067Y-122263958D01*
X84164255Y-122237537D01*
X84135936Y-122204805D01*
X84111010Y-122164979D01*
X84093048Y-122121722D01*
X84081619Y-122070429D01*
X84077756Y-122012632D01*
X84285948Y-122012632D01*
X84291811Y-122055514D01*
X84308846Y-122091889D01*
X84335874Y-122121222D01*
X84372044Y-122141898D01*
X84422212Y-122152802D01*
X84531901Y-122157896D01*
X84642543Y-122157896D01*
X84642543Y-121868712D01*
X84544846Y-121868712D01*
X84444595Y-121870938D01*
X84399338Y-121875673D01*
X84368185Y-121884825D01*
X84341333Y-121899799D01*
X84318066Y-121920858D01*
X84300495Y-121946582D01*
X84289726Y-121976770D01*
X84285948Y-122012632D01*
X84077756Y-122012632D01*
X84077548Y-122009518D01*
X84084567Y-121931553D01*
X84104264Y-121867310D01*
X84135617Y-121814063D01*
X84178148Y-121768884D01*
X84225891Y-121736514D01*
X84279781Y-121715755D01*
X84351588Y-121705581D01*
X84520238Y-121700673D01*
X84844715Y-121700673D01*
X84844715Y-122705000D01*
G37*
G36*
X83960922Y-122435416D02*
G01*
X83775115Y-122411908D01*
X83765151Y-122459733D01*
X83749006Y-122496770D01*
X83727304Y-122525176D01*
X83699353Y-122547015D01*
X83668291Y-122559914D01*
X83633026Y-122564316D01*
X83595366Y-122559271D01*
X83562432Y-122544463D01*
X83532948Y-122519192D01*
X83510990Y-122486863D01*
X83497216Y-122446948D01*
X83492281Y-122397376D01*
X83497008Y-122350491D01*
X83510199Y-122312830D01*
X83531238Y-122282398D01*
X83559404Y-122258614D01*
X83590663Y-122244694D01*
X83626188Y-122239961D01*
X83664525Y-122243208D01*
X83714298Y-122254310D01*
X83693110Y-122099277D01*
X83642328Y-122095968D01*
X83603658Y-122084370D01*
X83574286Y-122065694D01*
X83551630Y-122039538D01*
X83538010Y-122008460D01*
X83533253Y-121970928D01*
X83536838Y-121938673D01*
X83546948Y-121912415D01*
X83563356Y-121890816D01*
X83585044Y-121874489D01*
X83611238Y-121864448D01*
X83643223Y-121860896D01*
X83674664Y-121864719D01*
X83702375Y-121875906D01*
X83727304Y-121894785D01*
X83746658Y-121919457D01*
X83760947Y-121951797D01*
X83769619Y-121993764D01*
X83946573Y-121963967D01*
X83931168Y-121903879D01*
X83912416Y-121855840D01*
X83890886Y-121817909D01*
X83863265Y-121784542D01*
X83828958Y-121755963D01*
X83787082Y-121731997D01*
X83741717Y-121714837D01*
X83692197Y-121704300D01*
X83637789Y-121700673D01*
X83568320Y-121706722D01*
X83508464Y-121724001D01*
X83456435Y-121751933D01*
X83410948Y-121790921D01*
X83379471Y-121830083D01*
X83357778Y-121870526D01*
X83344928Y-121912817D01*
X83340607Y-121957739D01*
X83346104Y-122007219D01*
X83362291Y-122052034D01*
X83389596Y-122093414D01*
X83429574Y-122132100D01*
X83484771Y-122168276D01*
X83430445Y-122186048D01*
X83385048Y-122213523D01*
X83347140Y-122251074D01*
X83318761Y-122296299D01*
X83301518Y-122347524D01*
X83295544Y-122406352D01*
X83301655Y-122470403D01*
X83319544Y-122528465D01*
X83349279Y-122581854D01*
X83391898Y-122631482D01*
X83442778Y-122672058D01*
X83498916Y-122700862D01*
X83561378Y-122718459D01*
X83631622Y-122724539D01*
X83698709Y-122719216D01*
X83757790Y-122703912D01*
X83810243Y-122679112D01*
X83857119Y-122644610D01*
X83896907Y-122601859D01*
X83927264Y-122553386D01*
X83948660Y-122498320D01*
X83960922Y-122435416D01*
G37*
G36*
X93814523Y-80160673D02*
G01*
X93613023Y-80160673D01*
X93613023Y-80797903D01*
X93615965Y-80881850D01*
X93623721Y-80944547D01*
X93634882Y-80990183D01*
X93659832Y-81045044D01*
X93695059Y-81091759D01*
X93741433Y-81131355D01*
X93795379Y-81159756D01*
X93862201Y-81177962D01*
X93945010Y-81184539D01*
X94018708Y-81178690D01*
X94079854Y-81162299D01*
X94130751Y-81136417D01*
X94173133Y-81101130D01*
X94206440Y-81057400D01*
X94231435Y-81003532D01*
X94247647Y-80937392D01*
X94253733Y-80856277D01*
X94063162Y-80836737D01*
X94057963Y-80894551D01*
X94049055Y-80933513D01*
X94037883Y-80958553D01*
X94012235Y-80988571D01*
X93979753Y-81006338D01*
X93938171Y-81012592D01*
X93894913Y-81007640D01*
X93864140Y-80994392D01*
X93842550Y-80973757D01*
X93829085Y-80945517D01*
X93818782Y-80895147D01*
X93814523Y-80812313D01*
X93814523Y-80160673D01*
G37*
G36*
X93138252Y-80165746D02*
G01*
X93195615Y-80180456D01*
X93247631Y-80204501D01*
X93295174Y-80238189D01*
X93338799Y-80282428D01*
X93371913Y-80330831D01*
X93399613Y-80392001D01*
X93421189Y-80468487D01*
X93435408Y-80563293D01*
X93440587Y-80679811D01*
X93435597Y-80793599D01*
X93421912Y-80886017D01*
X93401174Y-80960412D01*
X93374596Y-81019755D01*
X93342890Y-81066570D01*
X93300881Y-81109710D01*
X93255575Y-81142384D01*
X93206487Y-81165576D01*
X93152832Y-81179691D01*
X93093579Y-81184539D01*
X93024272Y-81178469D01*
X92963565Y-81161003D01*
X92909852Y-81132566D01*
X92861976Y-81092643D01*
X92823286Y-81044111D01*
X92795319Y-80988274D01*
X92777906Y-80923725D01*
X92771869Y-80849560D01*
X92959673Y-80849560D01*
X92964466Y-80910866D01*
X92976946Y-80953937D01*
X92995210Y-80983466D01*
X93021140Y-81006338D01*
X93050338Y-81019741D01*
X93083993Y-81024316D01*
X93118702Y-81019032D01*
X93151114Y-81002971D01*
X93182361Y-80974429D01*
X93205255Y-80938753D01*
X93220009Y-80892547D01*
X93225409Y-80832829D01*
X93220541Y-80778755D01*
X93207383Y-80737949D01*
X93187185Y-80707349D01*
X93159402Y-80683469D01*
X93128589Y-80669525D01*
X93093579Y-80664790D01*
X93057337Y-80669767D01*
X93025893Y-80684360D01*
X92997958Y-80709303D01*
X92978109Y-80741350D01*
X92964744Y-80786656D01*
X92959673Y-80849560D01*
X92771869Y-80849560D01*
X92771789Y-80848583D01*
X92777538Y-80777900D01*
X92793998Y-80716368D01*
X92820582Y-80662378D01*
X92857518Y-80614720D01*
X92903367Y-80574483D01*
X92952365Y-80546544D01*
X93005335Y-80529807D01*
X93063476Y-80524106D01*
X93114767Y-80529445D01*
X93160842Y-80545065D01*
X93202918Y-80571144D01*
X93241774Y-80608859D01*
X93228601Y-80490562D01*
X93209951Y-80418052D01*
X93188834Y-80377133D01*
X93157649Y-80345054D01*
X93123836Y-80326932D01*
X93086008Y-80320896D01*
X93056635Y-80324151D01*
X93032186Y-80333413D01*
X93011575Y-80348557D01*
X92995775Y-80368778D01*
X92983715Y-80396618D01*
X92976037Y-80434225D01*
X92790230Y-80413464D01*
X92804788Y-80352632D01*
X92825767Y-80302000D01*
X92852686Y-80260004D01*
X92885545Y-80225458D01*
X92924591Y-80197581D01*
X92968446Y-80177464D01*
X93018001Y-80165011D01*
X93074406Y-80160673D01*
X93138252Y-80165746D01*
G37*
G36*
X80254523Y-123330673D02*
G01*
X80053023Y-123330673D01*
X80053023Y-123967903D01*
X80055965Y-124051850D01*
X80063721Y-124114547D01*
X80074882Y-124160183D01*
X80099832Y-124215044D01*
X80135059Y-124261759D01*
X80181433Y-124301355D01*
X80235379Y-124329756D01*
X80302201Y-124347962D01*
X80385010Y-124354539D01*
X80458708Y-124348690D01*
X80519854Y-124332299D01*
X80570751Y-124306417D01*
X80613133Y-124271130D01*
X80646440Y-124227400D01*
X80671435Y-124173532D01*
X80687647Y-124107392D01*
X80693733Y-124026277D01*
X80503162Y-124006737D01*
X80497963Y-124064551D01*
X80489055Y-124103513D01*
X80477883Y-124128553D01*
X80452235Y-124158571D01*
X80419753Y-124176338D01*
X80378171Y-124182592D01*
X80334913Y-124177640D01*
X80304140Y-124164392D01*
X80282550Y-124143757D01*
X80269085Y-124115517D01*
X80258782Y-124065147D01*
X80254523Y-123982313D01*
X80254523Y-123330673D01*
G37*
G36*
X79887426Y-124065416D02*
G01*
X79701618Y-124041908D01*
X79691655Y-124089733D01*
X79675510Y-124126770D01*
X79653808Y-124155176D01*
X79625856Y-124177015D01*
X79594795Y-124189914D01*
X79559530Y-124194316D01*
X79521870Y-124189271D01*
X79488935Y-124174463D01*
X79459451Y-124149192D01*
X79437494Y-124116863D01*
X79423720Y-124076948D01*
X79418785Y-124027376D01*
X79423512Y-123980491D01*
X79436703Y-123942830D01*
X79457742Y-123912398D01*
X79485907Y-123888614D01*
X79517167Y-123874694D01*
X79552691Y-123869961D01*
X79591028Y-123873208D01*
X79640802Y-123884310D01*
X79619614Y-123729277D01*
X79568832Y-123725968D01*
X79530162Y-123714370D01*
X79500790Y-123695694D01*
X79478134Y-123669538D01*
X79464514Y-123638460D01*
X79459757Y-123600928D01*
X79463342Y-123568673D01*
X79473452Y-123542415D01*
X79489860Y-123520816D01*
X79511548Y-123504489D01*
X79537741Y-123494448D01*
X79569727Y-123490896D01*
X79601168Y-123494719D01*
X79628878Y-123505906D01*
X79653808Y-123524785D01*
X79673161Y-123549457D01*
X79687450Y-123581797D01*
X79696123Y-123623764D01*
X79873077Y-123593967D01*
X79857671Y-123533879D01*
X79838920Y-123485840D01*
X79817389Y-123447909D01*
X79789769Y-123414542D01*
X79755462Y-123385963D01*
X79713586Y-123361997D01*
X79668220Y-123344837D01*
X79618700Y-123334300D01*
X79564293Y-123330673D01*
X79494823Y-123336722D01*
X79434968Y-123354001D01*
X79382938Y-123381933D01*
X79337452Y-123420921D01*
X79305975Y-123460083D01*
X79284281Y-123500526D01*
X79271432Y-123542817D01*
X79267110Y-123587739D01*
X79272608Y-123637219D01*
X79288795Y-123682034D01*
X79316100Y-123723414D01*
X79356078Y-123762100D01*
X79411275Y-123798276D01*
X79356948Y-123816048D01*
X79311551Y-123843523D01*
X79273644Y-123881074D01*
X79245264Y-123926299D01*
X79228022Y-123977524D01*
X79222047Y-124036352D01*
X79228159Y-124100403D01*
X79246048Y-124158465D01*
X79275783Y-124211854D01*
X79318401Y-124261482D01*
X79369282Y-124302058D01*
X79425420Y-124330862D01*
X79487881Y-124348459D01*
X79558126Y-124354539D01*
X79625213Y-124349216D01*
X79684294Y-124333912D01*
X79736746Y-124309112D01*
X79783623Y-124274610D01*
X79823411Y-124231859D01*
X79853768Y-124183386D01*
X79875164Y-124128320D01*
X79887426Y-124065416D01*
G37*
G36*
X115814523Y-80150673D02*
G01*
X115613023Y-80150673D01*
X115613023Y-80787903D01*
X115615965Y-80871850D01*
X115623721Y-80934547D01*
X115634882Y-80980183D01*
X115659832Y-81035044D01*
X115695059Y-81081759D01*
X115741433Y-81121355D01*
X115795379Y-81149756D01*
X115862201Y-81167962D01*
X115945010Y-81174539D01*
X116018708Y-81168690D01*
X116079854Y-81152299D01*
X116130751Y-81126417D01*
X116173133Y-81091130D01*
X116206440Y-81047400D01*
X116231435Y-80993532D01*
X116247647Y-80927392D01*
X116253733Y-80846277D01*
X116063162Y-80826737D01*
X116057963Y-80884551D01*
X116049055Y-80923513D01*
X116037883Y-80948553D01*
X116012235Y-80978571D01*
X115979753Y-80996338D01*
X115938171Y-81002592D01*
X115894913Y-80997640D01*
X115864140Y-80984392D01*
X115842550Y-80963757D01*
X115829085Y-80935517D01*
X115818782Y-80885147D01*
X115814523Y-80802313D01*
X115814523Y-80150673D01*
G37*
G36*
X115440587Y-80342159D02*
G01*
X115440587Y-80162397D01*
X114784062Y-80162397D01*
X114784062Y-80303080D01*
X114834627Y-80359440D01*
X114889611Y-80435024D01*
X114949415Y-80533585D01*
X115000904Y-80635629D01*
X115043578Y-80741925D01*
X115077520Y-80852871D01*
X115102833Y-80966651D01*
X115116790Y-81066837D01*
X115120873Y-81155000D01*
X115306009Y-81155000D01*
X115299070Y-81052049D01*
X115282739Y-80947124D01*
X115256643Y-80839814D01*
X115220280Y-80729712D01*
X115159570Y-80588886D01*
X115087507Y-80460028D01*
X115004064Y-80342159D01*
X115440587Y-80342159D01*
G37*
G36*
X116354523Y-123510673D02*
G01*
X116153023Y-123510673D01*
X116153023Y-124147903D01*
X116155965Y-124231850D01*
X116163721Y-124294547D01*
X116174882Y-124340183D01*
X116199832Y-124395044D01*
X116235059Y-124441759D01*
X116281433Y-124481355D01*
X116335379Y-124509756D01*
X116402201Y-124527962D01*
X116485010Y-124534539D01*
X116558708Y-124528690D01*
X116619854Y-124512299D01*
X116670751Y-124486417D01*
X116713133Y-124451130D01*
X116746440Y-124407400D01*
X116771435Y-124353532D01*
X116787647Y-124287392D01*
X116793733Y-124206277D01*
X116603162Y-124186737D01*
X116597963Y-124244551D01*
X116589055Y-124283513D01*
X116577883Y-124308553D01*
X116552235Y-124338571D01*
X116519753Y-124356338D01*
X116478171Y-124362592D01*
X116434913Y-124357640D01*
X116404140Y-124344392D01*
X116382550Y-124323757D01*
X116369085Y-124295517D01*
X116358782Y-124245147D01*
X116354523Y-124162313D01*
X116354523Y-123510673D01*
G37*
G36*
X116014048Y-124144422D02*
G01*
X116014048Y-124311789D01*
X115604148Y-124311789D01*
X115604148Y-124515000D01*
X115418340Y-124515000D01*
X115418340Y-124311789D01*
X115294021Y-124311789D01*
X115294021Y-124143750D01*
X115418340Y-124143750D01*
X115604148Y-124143750D01*
X115834408Y-124143750D01*
X115604148Y-123807794D01*
X115604148Y-124143750D01*
X115418340Y-124143750D01*
X115418340Y-123510673D01*
X115579602Y-123510673D01*
X116014048Y-124144422D01*
G37*
G36*
X100961027Y-121650673D02*
G01*
X100759527Y-121650673D01*
X100759527Y-122287903D01*
X100762469Y-122371850D01*
X100770225Y-122434547D01*
X100781386Y-122480183D01*
X100806336Y-122535044D01*
X100841563Y-122581759D01*
X100887937Y-122621355D01*
X100941883Y-122649756D01*
X101008705Y-122667962D01*
X101091514Y-122674539D01*
X101165212Y-122668690D01*
X101226358Y-122652299D01*
X101277255Y-122626417D01*
X101319637Y-122591130D01*
X101352944Y-122547400D01*
X101377939Y-122493532D01*
X101394151Y-122427392D01*
X101400237Y-122346277D01*
X101209666Y-122326737D01*
X101204467Y-122384551D01*
X101195559Y-122423513D01*
X101184387Y-122448553D01*
X101158739Y-122478571D01*
X101126257Y-122496338D01*
X101084675Y-122502592D01*
X101041417Y-122497640D01*
X101010644Y-122484392D01*
X100989054Y-122463757D01*
X100975589Y-122435517D01*
X100965286Y-122385147D01*
X100961027Y-122302313D01*
X100961027Y-121650673D01*
G37*
G36*
X100544715Y-122655000D02*
G01*
X100342543Y-122655000D01*
X100342543Y-122275935D01*
X100210713Y-122275935D01*
X100081500Y-122271746D01*
X100000969Y-122261524D01*
X99949017Y-122244250D01*
X99896067Y-122213958D01*
X99864255Y-122187537D01*
X99835936Y-122154805D01*
X99811010Y-122114979D01*
X99793048Y-122071722D01*
X99781619Y-122020429D01*
X99777756Y-121962632D01*
X99985948Y-121962632D01*
X99991811Y-122005514D01*
X100008846Y-122041889D01*
X100035874Y-122071222D01*
X100072044Y-122091898D01*
X100122212Y-122102802D01*
X100231901Y-122107896D01*
X100342543Y-122107896D01*
X100342543Y-121818712D01*
X100244846Y-121818712D01*
X100144595Y-121820938D01*
X100099338Y-121825673D01*
X100068185Y-121834825D01*
X100041333Y-121849799D01*
X100018066Y-121870858D01*
X100000495Y-121896582D01*
X99989726Y-121926770D01*
X99985948Y-121962632D01*
X99777756Y-121962632D01*
X99777548Y-121959518D01*
X99784567Y-121881553D01*
X99804264Y-121817310D01*
X99835617Y-121764063D01*
X99878148Y-121718884D01*
X99925891Y-121686514D01*
X99979781Y-121665755D01*
X100051588Y-121655581D01*
X100220238Y-121650673D01*
X100544715Y-121650673D01*
X100544715Y-122655000D01*
G37*
G36*
X99687545Y-122284422D02*
G01*
X99687545Y-122451789D01*
X99277644Y-122451789D01*
X99277644Y-122655000D01*
X99091836Y-122655000D01*
X99091836Y-122451789D01*
X98967517Y-122451789D01*
X98967517Y-122283750D01*
X99091836Y-122283750D01*
X99277644Y-122283750D01*
X99507904Y-122283750D01*
X99277644Y-121947794D01*
X99277644Y-122283750D01*
X99091836Y-122283750D01*
X99091836Y-121650673D01*
X99253098Y-121650673D01*
X99687545Y-122284422D01*
G37*
%TO.C,JP3*%
D13*
X86250000Y-121250000D02*
X86250000Y-123200000D01*
X86250000Y-123200000D02*
X91750000Y-123200000D01*
X91750000Y-121250000D02*
X86250000Y-121250000D01*
X91750000Y-123200000D02*
X91750000Y-121250000D01*
%TO.C,J6*%
X69470000Y-79530000D02*
X69470000Y-76870000D01*
X92390000Y-76870000D02*
X69470000Y-76870000D01*
X92390000Y-79530000D02*
X69470000Y-79530000D01*
X92390000Y-79530000D02*
X92390000Y-76870000D01*
X93660000Y-79530000D02*
X94990000Y-79530000D01*
X94990000Y-79530000D02*
X94990000Y-78200000D01*
D14*
%TO.C,REF\u002A\u002A*%
X111786501Y-114376476D02*
X111867167Y-114406440D01*
X111900714Y-114428954D01*
X111934687Y-114461212D01*
X111958919Y-114502246D01*
X111975001Y-114558108D01*
X111984521Y-114634851D01*
X111989068Y-114738525D01*
X111990231Y-114875184D01*
X111990003Y-114945805D01*
X111988860Y-115042308D01*
X111986919Y-115119323D01*
X111984365Y-115170319D01*
X111981381Y-115188769D01*
X111961962Y-115182667D01*
X111922766Y-115166095D01*
X111921589Y-115165558D01*
X111901235Y-115154903D01*
X111887546Y-115140282D01*
X111879199Y-115114673D01*
X111874874Y-115071054D01*
X111873248Y-115002403D01*
X111873000Y-114901698D01*
X111872500Y-114837813D01*
X111867164Y-114717751D01*
X111854945Y-114629809D01*
X111834552Y-114569375D01*
X111804695Y-114531836D01*
X111764082Y-114512581D01*
X111758448Y-114511239D01*
X111682378Y-114510191D01*
X111623052Y-114544271D01*
X111582077Y-114612598D01*
X111574770Y-114632351D01*
X111558114Y-114676066D01*
X111549679Y-114696155D01*
X111532356Y-114693387D01*
X111494525Y-114678365D01*
X111459240Y-114653556D01*
X111443154Y-114606670D01*
X111447952Y-114573087D01*
X111477431Y-114504967D01*
X111525098Y-114441134D01*
X111580839Y-114396988D01*
X111604193Y-114386782D01*
X111692619Y-114369718D01*
X111786501Y-114376476D01*
G36*
X111786501Y-114376476D02*
G01*
X111867167Y-114406440D01*
X111900714Y-114428954D01*
X111934687Y-114461212D01*
X111958919Y-114502246D01*
X111975001Y-114558108D01*
X111984521Y-114634851D01*
X111989068Y-114738525D01*
X111990231Y-114875184D01*
X111990003Y-114945805D01*
X111988860Y-115042308D01*
X111986919Y-115119323D01*
X111984365Y-115170319D01*
X111981381Y-115188769D01*
X111961962Y-115182667D01*
X111922766Y-115166095D01*
X111921589Y-115165558D01*
X111901235Y-115154903D01*
X111887546Y-115140282D01*
X111879199Y-115114673D01*
X111874874Y-115071054D01*
X111873248Y-115002403D01*
X111873000Y-114901698D01*
X111872500Y-114837813D01*
X111867164Y-114717751D01*
X111854945Y-114629809D01*
X111834552Y-114569375D01*
X111804695Y-114531836D01*
X111764082Y-114512581D01*
X111758448Y-114511239D01*
X111682378Y-114510191D01*
X111623052Y-114544271D01*
X111582077Y-114612598D01*
X111574770Y-114632351D01*
X111558114Y-114676066D01*
X111549679Y-114696155D01*
X111532356Y-114693387D01*
X111494525Y-114678365D01*
X111459240Y-114653556D01*
X111443154Y-114606670D01*
X111447952Y-114573087D01*
X111477431Y-114504967D01*
X111525098Y-114441134D01*
X111580839Y-114396988D01*
X111604193Y-114386782D01*
X111692619Y-114369718D01*
X111786501Y-114376476D01*
G37*
X117101372Y-114331684D02*
X117192629Y-114374569D01*
X117267416Y-114448729D01*
X117282917Y-114471944D01*
X117295774Y-114498256D01*
X117304893Y-114531420D01*
X117311102Y-114577881D01*
X117315233Y-114644082D01*
X117318116Y-114736468D01*
X117320579Y-114861485D01*
X117326697Y-115208278D01*
X117275303Y-115188738D01*
X117228246Y-115170787D01*
X117193015Y-115153511D01*
X117170017Y-115131242D01*
X117156655Y-115097165D01*
X117150328Y-115044463D01*
X117148437Y-114966323D01*
X117148385Y-114855928D01*
X117148117Y-114767935D01*
X117146521Y-114683502D01*
X117142712Y-114625834D01*
X117135820Y-114587988D01*
X117124975Y-114563024D01*
X117109308Y-114544000D01*
X117070792Y-114517153D01*
X117006091Y-114507034D01*
X116942081Y-114532606D01*
X116937856Y-114535880D01*
X116924689Y-114551007D01*
X116914975Y-114575268D01*
X116907903Y-114614650D01*
X116902656Y-114675141D01*
X116898421Y-114762729D01*
X116894385Y-114883402D01*
X116884615Y-115206515D01*
X116718539Y-115132065D01*
X116718539Y-114837062D01*
X116718883Y-114756919D01*
X116721847Y-114645431D01*
X116729351Y-114562421D01*
X116743190Y-114501199D01*
X116765155Y-114455075D01*
X116797039Y-114417358D01*
X116840633Y-114381358D01*
X116903336Y-114345089D01*
X117002117Y-114321412D01*
X117101372Y-114331684D01*
G36*
X117101372Y-114331684D02*
G01*
X117192629Y-114374569D01*
X117267416Y-114448729D01*
X117282917Y-114471944D01*
X117295774Y-114498256D01*
X117304893Y-114531420D01*
X117311102Y-114577881D01*
X117315233Y-114644082D01*
X117318116Y-114736468D01*
X117320579Y-114861485D01*
X117326697Y-115208278D01*
X117275303Y-115188738D01*
X117228246Y-115170787D01*
X117193015Y-115153511D01*
X117170017Y-115131242D01*
X117156655Y-115097165D01*
X117150328Y-115044463D01*
X117148437Y-114966323D01*
X117148385Y-114855928D01*
X117148117Y-114767935D01*
X117146521Y-114683502D01*
X117142712Y-114625834D01*
X117135820Y-114587988D01*
X117124975Y-114563024D01*
X117109308Y-114544000D01*
X117070792Y-114517153D01*
X117006091Y-114507034D01*
X116942081Y-114532606D01*
X116937856Y-114535880D01*
X116924689Y-114551007D01*
X116914975Y-114575268D01*
X116907903Y-114614650D01*
X116902656Y-114675141D01*
X116898421Y-114762729D01*
X116894385Y-114883402D01*
X116884615Y-115206515D01*
X116718539Y-115132065D01*
X116718539Y-114837062D01*
X116718883Y-114756919D01*
X116721847Y-114645431D01*
X116729351Y-114562421D01*
X116743190Y-114501199D01*
X116765155Y-114455075D01*
X116797039Y-114417358D01*
X116840633Y-114381358D01*
X116903336Y-114345089D01*
X117002117Y-114321412D01*
X117101372Y-114331684D01*
G37*
X114646892Y-114397167D02*
X114653060Y-114400581D01*
X114703447Y-114439692D01*
X114748498Y-114489975D01*
X114756355Y-114501339D01*
X114771376Y-114527860D01*
X114782107Y-114559336D01*
X114789486Y-114602591D01*
X114794452Y-114664449D01*
X114797942Y-114751733D01*
X114800893Y-114871269D01*
X114801311Y-114891478D01*
X114802654Y-115022499D01*
X114800761Y-115115296D01*
X114795605Y-115170507D01*
X114787158Y-115188769D01*
X114761594Y-115183301D01*
X114718166Y-115166733D01*
X114707940Y-115161888D01*
X114691967Y-115150920D01*
X114680954Y-115132890D01*
X114673750Y-115101396D01*
X114669208Y-115050036D01*
X114666180Y-114972410D01*
X114663516Y-114862115D01*
X114662785Y-114829875D01*
X114659965Y-114728050D01*
X114656304Y-114656788D01*
X114650694Y-114609332D01*
X114642029Y-114578925D01*
X114629202Y-114558810D01*
X114611105Y-114542229D01*
X114557525Y-114513161D01*
X114491612Y-114507564D01*
X114432635Y-114529807D01*
X114390203Y-114575859D01*
X114373923Y-114641692D01*
X114373470Y-114659587D01*
X114364578Y-114691982D01*
X114338325Y-114696925D01*
X114286919Y-114677633D01*
X114275013Y-114671446D01*
X114242835Y-114635058D01*
X114242198Y-114580954D01*
X114272856Y-114506128D01*
X114300978Y-114465350D01*
X114372883Y-114407421D01*
X114461638Y-114374670D01*
X114556542Y-114370212D01*
X114646892Y-114397167D01*
G36*
X114646892Y-114397167D02*
G01*
X114653060Y-114400581D01*
X114703447Y-114439692D01*
X114748498Y-114489975D01*
X114756355Y-114501339D01*
X114771376Y-114527860D01*
X114782107Y-114559336D01*
X114789486Y-114602591D01*
X114794452Y-114664449D01*
X114797942Y-114751733D01*
X114800893Y-114871269D01*
X114801311Y-114891478D01*
X114802654Y-115022499D01*
X114800761Y-115115296D01*
X114795605Y-115170507D01*
X114787158Y-115188769D01*
X114761594Y-115183301D01*
X114718166Y-115166733D01*
X114707940Y-115161888D01*
X114691967Y-115150920D01*
X114680954Y-115132890D01*
X114673750Y-115101396D01*
X114669208Y-115050036D01*
X114666180Y-114972410D01*
X114663516Y-114862115D01*
X114662785Y-114829875D01*
X114659965Y-114728050D01*
X114656304Y-114656788D01*
X114650694Y-114609332D01*
X114642029Y-114578925D01*
X114629202Y-114558810D01*
X114611105Y-114542229D01*
X114557525Y-114513161D01*
X114491612Y-114507564D01*
X114432635Y-114529807D01*
X114390203Y-114575859D01*
X114373923Y-114641692D01*
X114373470Y-114659587D01*
X114364578Y-114691982D01*
X114338325Y-114696925D01*
X114286919Y-114677633D01*
X114275013Y-114671446D01*
X114242835Y-114635058D01*
X114242198Y-114580954D01*
X114272856Y-114506128D01*
X114300978Y-114465350D01*
X114372883Y-114407421D01*
X114461638Y-114374670D01*
X114556542Y-114370212D01*
X114646892Y-114397167D01*
G37*
X116151923Y-114131806D02*
X116151923Y-114666455D01*
X116151660Y-114805094D01*
X116150958Y-114929805D01*
X116149883Y-115035557D01*
X116148500Y-115117322D01*
X116146874Y-115170069D01*
X116145070Y-115188769D01*
X116144364Y-115188706D01*
X116120387Y-115181912D01*
X116076685Y-115167320D01*
X116015154Y-115145870D01*
X116015154Y-114870617D01*
X116014763Y-114762466D01*
X116012946Y-114684026D01*
X116008767Y-114630647D01*
X116001286Y-114595256D01*
X115989567Y-114570779D01*
X115972671Y-114550144D01*
X115961152Y-114539170D01*
X115898864Y-114508775D01*
X115830211Y-114511466D01*
X115767298Y-114547406D01*
X115758139Y-114556325D01*
X115743471Y-114574844D01*
X115733433Y-114599326D01*
X115727151Y-114636393D01*
X115723748Y-114692667D01*
X115722349Y-114774771D01*
X115722077Y-114889329D01*
X115721947Y-114947430D01*
X115721099Y-115042993D01*
X115719594Y-115119526D01*
X115717585Y-115170345D01*
X115715223Y-115188769D01*
X115714518Y-115188706D01*
X115690541Y-115181912D01*
X115646839Y-115167320D01*
X115585308Y-115145870D01*
X115585338Y-114869358D01*
X115585384Y-114844742D01*
X115587970Y-114716419D01*
X115595913Y-114619384D01*
X115611155Y-114547057D01*
X115635636Y-114492855D01*
X115671298Y-114450198D01*
X115720082Y-114412505D01*
X115767661Y-114388910D01*
X115843732Y-114370672D01*
X115918556Y-114369636D01*
X115976077Y-114387378D01*
X115980402Y-114389829D01*
X115993738Y-114389566D01*
X116002851Y-114369039D01*
X116009428Y-114321980D01*
X116015154Y-114242120D01*
X116024923Y-114078236D01*
X116151923Y-114131806D01*
G36*
X116151923Y-114131806D02*
G01*
X116151923Y-114666455D01*
X116151660Y-114805094D01*
X116150958Y-114929805D01*
X116149883Y-115035557D01*
X116148500Y-115117322D01*
X116146874Y-115170069D01*
X116145070Y-115188769D01*
X116144364Y-115188706D01*
X116120387Y-115181912D01*
X116076685Y-115167320D01*
X116015154Y-115145870D01*
X116015154Y-114870617D01*
X116014763Y-114762466D01*
X116012946Y-114684026D01*
X116008767Y-114630647D01*
X116001286Y-114595256D01*
X115989567Y-114570779D01*
X115972671Y-114550144D01*
X115961152Y-114539170D01*
X115898864Y-114508775D01*
X115830211Y-114511466D01*
X115767298Y-114547406D01*
X115758139Y-114556325D01*
X115743471Y-114574844D01*
X115733433Y-114599326D01*
X115727151Y-114636393D01*
X115723748Y-114692667D01*
X115722349Y-114774771D01*
X115722077Y-114889329D01*
X115721947Y-114947430D01*
X115721099Y-115042993D01*
X115719594Y-115119526D01*
X115717585Y-115170345D01*
X115715223Y-115188769D01*
X115714518Y-115188706D01*
X115690541Y-115181912D01*
X115646839Y-115167320D01*
X115585308Y-115145870D01*
X115585338Y-114869358D01*
X115585384Y-114844742D01*
X115587970Y-114716419D01*
X115595913Y-114619384D01*
X115611155Y-114547057D01*
X115635636Y-114492855D01*
X115671298Y-114450198D01*
X115720082Y-114412505D01*
X115767661Y-114388910D01*
X115843732Y-114370672D01*
X115918556Y-114369636D01*
X115976077Y-114387378D01*
X115980402Y-114389829D01*
X115993738Y-114389566D01*
X116002851Y-114369039D01*
X116009428Y-114321980D01*
X116015154Y-114242120D01*
X116024923Y-114078236D01*
X116151923Y-114131806D01*
G37*
X113362998Y-114374034D02*
X113405850Y-114390829D01*
X113455615Y-114413503D01*
X113455615Y-115068533D01*
X113393785Y-115130363D01*
X113379662Y-115144228D01*
X113340536Y-115175046D01*
X113301078Y-115185028D01*
X113242362Y-115180433D01*
X113218456Y-115177462D01*
X113156801Y-115171176D01*
X113113692Y-115168672D01*
X113100905Y-115169055D01*
X113048446Y-115173200D01*
X112985022Y-115180433D01*
X112964730Y-115182918D01*
X112913610Y-115183895D01*
X112876207Y-115168462D01*
X112833599Y-115130363D01*
X112771769Y-115068533D01*
X112771769Y-114718343D01*
X112772251Y-114614857D01*
X112773753Y-114516192D01*
X112776089Y-114438068D01*
X112779071Y-114386662D01*
X112782509Y-114368154D01*
X112783230Y-114368204D01*
X112808203Y-114377413D01*
X112850399Y-114397707D01*
X112907549Y-114427261D01*
X112912928Y-114734746D01*
X112918308Y-115042231D01*
X113035539Y-115042231D01*
X113040885Y-114705192D01*
X113042579Y-114613574D01*
X113045005Y-114515649D01*
X113047634Y-114437906D01*
X113050246Y-114386642D01*
X113052623Y-114368154D01*
X113053306Y-114368219D01*
X113076996Y-114375020D01*
X113120546Y-114389604D01*
X113182077Y-114411054D01*
X113182376Y-114707104D01*
X113182676Y-114758532D01*
X113184754Y-114858466D01*
X113188470Y-114941925D01*
X113193430Y-115001377D01*
X113199240Y-115029287D01*
X113220024Y-115044214D01*
X113262440Y-115048825D01*
X113309077Y-115042231D01*
X113314423Y-114705192D01*
X113316336Y-114619546D01*
X113320303Y-114518172D01*
X113325491Y-114438655D01*
X113331499Y-114386736D01*
X113337927Y-114368154D01*
X113362998Y-114374034D01*
G36*
X113362998Y-114374034D02*
G01*
X113405850Y-114390829D01*
X113455615Y-114413503D01*
X113455615Y-115068533D01*
X113393785Y-115130363D01*
X113379662Y-115144228D01*
X113340536Y-115175046D01*
X113301078Y-115185028D01*
X113242362Y-115180433D01*
X113218456Y-115177462D01*
X113156801Y-115171176D01*
X113113692Y-115168672D01*
X113100905Y-115169055D01*
X113048446Y-115173200D01*
X112985022Y-115180433D01*
X112964730Y-115182918D01*
X112913610Y-115183895D01*
X112876207Y-115168462D01*
X112833599Y-115130363D01*
X112771769Y-115068533D01*
X112771769Y-114718343D01*
X112772251Y-114614857D01*
X112773753Y-114516192D01*
X112776089Y-114438068D01*
X112779071Y-114386662D01*
X112782509Y-114368154D01*
X112783230Y-114368204D01*
X112808203Y-114377413D01*
X112850399Y-114397707D01*
X112907549Y-114427261D01*
X112912928Y-114734746D01*
X112918308Y-115042231D01*
X113035539Y-115042231D01*
X113040885Y-114705192D01*
X113042579Y-114613574D01*
X113045005Y-114515649D01*
X113047634Y-114437906D01*
X113050246Y-114386642D01*
X113052623Y-114368154D01*
X113053306Y-114368219D01*
X113076996Y-114375020D01*
X113120546Y-114389604D01*
X113182077Y-114411054D01*
X113182376Y-114707104D01*
X113182676Y-114758532D01*
X113184754Y-114858466D01*
X113188470Y-114941925D01*
X113193430Y-115001377D01*
X113199240Y-115029287D01*
X113220024Y-115044214D01*
X113262440Y-115048825D01*
X113309077Y-115042231D01*
X113314423Y-114705192D01*
X113316336Y-114619546D01*
X113320303Y-114518172D01*
X113325491Y-114438655D01*
X113331499Y-114386736D01*
X113337927Y-114368154D01*
X113362998Y-114374034D01*
G37*
X119571154Y-114758923D02*
X119571135Y-114780105D01*
X119570076Y-114874584D01*
X119566436Y-114940414D01*
X119558892Y-114986394D01*
X119546122Y-115021321D01*
X119526803Y-115053995D01*
X119522050Y-115060775D01*
X119471759Y-115114231D01*
X119414457Y-115154547D01*
X119385032Y-115167629D01*
X119279299Y-115189450D01*
X119174734Y-115175336D01*
X119078368Y-115127105D01*
X118997235Y-115046579D01*
X118990385Y-115035791D01*
X118968097Y-114973153D01*
X118953079Y-114885935D01*
X118945792Y-114785210D01*
X118946611Y-114692037D01*
X119143796Y-114692037D01*
X119145349Y-114821114D01*
X119145974Y-114829420D01*
X119155077Y-114900643D01*
X119171288Y-114945809D01*
X119198660Y-114976752D01*
X119244553Y-115005737D01*
X119289942Y-115007261D01*
X119336692Y-114973846D01*
X119344824Y-114965053D01*
X119360754Y-114938741D01*
X119370159Y-114900520D01*
X119374632Y-114841349D01*
X119375769Y-114752182D01*
X119373822Y-114668664D01*
X119364105Y-114589095D01*
X119344047Y-114538808D01*
X119311240Y-114512513D01*
X119263280Y-114504923D01*
X119245016Y-114506432D01*
X119193848Y-114534107D01*
X119160035Y-114596172D01*
X119143796Y-114692037D01*
X118946611Y-114692037D01*
X118946699Y-114682052D01*
X118956262Y-114587533D01*
X118974943Y-114512727D01*
X118998951Y-114462905D01*
X119066536Y-114385409D01*
X119158114Y-114337256D01*
X119270213Y-114320703D01*
X119300151Y-114321599D01*
X119388315Y-114339929D01*
X119460733Y-114386104D01*
X119527192Y-114465648D01*
X119531147Y-114471548D01*
X119549040Y-114503288D01*
X119560678Y-114539163D01*
X119567371Y-114587906D01*
X119570426Y-114658249D01*
X119571106Y-114752182D01*
X119571154Y-114758923D01*
G36*
X119571154Y-114758923D02*
G01*
X119571135Y-114780105D01*
X119570076Y-114874584D01*
X119566436Y-114940414D01*
X119558892Y-114986394D01*
X119546122Y-115021321D01*
X119526803Y-115053995D01*
X119522050Y-115060775D01*
X119471759Y-115114231D01*
X119414457Y-115154547D01*
X119385032Y-115167629D01*
X119279299Y-115189450D01*
X119174734Y-115175336D01*
X119078368Y-115127105D01*
X118997235Y-115046579D01*
X118990385Y-115035791D01*
X118968097Y-114973153D01*
X118953079Y-114885935D01*
X118945792Y-114785210D01*
X118946611Y-114692037D01*
X119143796Y-114692037D01*
X119145349Y-114821114D01*
X119145974Y-114829420D01*
X119155077Y-114900643D01*
X119171288Y-114945809D01*
X119198660Y-114976752D01*
X119244553Y-115005737D01*
X119289942Y-115007261D01*
X119336692Y-114973846D01*
X119344824Y-114965053D01*
X119360754Y-114938741D01*
X119370159Y-114900520D01*
X119374632Y-114841349D01*
X119375769Y-114752182D01*
X119373822Y-114668664D01*
X119364105Y-114589095D01*
X119344047Y-114538808D01*
X119311240Y-114512513D01*
X119263280Y-114504923D01*
X119245016Y-114506432D01*
X119193848Y-114534107D01*
X119160035Y-114596172D01*
X119143796Y-114692037D01*
X118946611Y-114692037D01*
X118946699Y-114682052D01*
X118956262Y-114587533D01*
X118974943Y-114512727D01*
X118998951Y-114462905D01*
X119066536Y-114385409D01*
X119158114Y-114337256D01*
X119270213Y-114320703D01*
X119300151Y-114321599D01*
X119388315Y-114339929D01*
X119460733Y-114386104D01*
X119527192Y-114465648D01*
X119531147Y-114471548D01*
X119549040Y-114503288D01*
X119560678Y-114539163D01*
X119567371Y-114587906D01*
X119570426Y-114658249D01*
X119571106Y-114752182D01*
X119571154Y-114758923D01*
G37*
X111325794Y-114782376D02*
X111325413Y-114834449D01*
X111320641Y-114937047D01*
X111308150Y-115012126D01*
X111285121Y-115067748D01*
X111248732Y-115111975D01*
X111196162Y-115152869D01*
X111162714Y-115171466D01*
X111109098Y-115183991D01*
X111033780Y-115183003D01*
X110991672Y-115179035D01*
X110940879Y-115166920D01*
X110900280Y-115140585D01*
X110853049Y-115091514D01*
X110846738Y-115084346D01*
X110804277Y-115029189D01*
X110784018Y-114981150D01*
X110778846Y-114924184D01*
X110778846Y-114840471D01*
X110837346Y-114862552D01*
X110879994Y-114888364D01*
X110917064Y-114948928D01*
X110924803Y-114968320D01*
X110968074Y-115023235D01*
X111026976Y-115050879D01*
X111091111Y-115048393D01*
X111150077Y-115012923D01*
X111170342Y-114990805D01*
X111188720Y-114957436D01*
X111182971Y-114927117D01*
X111149887Y-114895913D01*
X111086261Y-114859887D01*
X110988885Y-114815103D01*
X110788615Y-114727445D01*
X110783301Y-114640607D01*
X110785299Y-114585296D01*
X110915783Y-114585296D01*
X110925688Y-114619538D01*
X110970756Y-114656096D01*
X111052557Y-114697692D01*
X111066092Y-114703718D01*
X111130818Y-114731753D01*
X111179247Y-114751472D01*
X111201751Y-114758923D01*
X111205161Y-114753438D01*
X111206529Y-114719948D01*
X111201651Y-114666116D01*
X111189364Y-114613473D01*
X111151041Y-114547151D01*
X111095720Y-114509780D01*
X111029640Y-114504721D01*
X110959040Y-114535339D01*
X110939474Y-114550648D01*
X110915783Y-114585296D01*
X110785299Y-114585296D01*
X110785647Y-114575663D01*
X110815186Y-114493590D01*
X110852472Y-114448361D01*
X110929776Y-114397838D01*
X111021478Y-114372316D01*
X111116274Y-114374336D01*
X111202859Y-114406440D01*
X111221920Y-114418767D01*
X111265640Y-114456912D01*
X111295540Y-114505167D01*
X111313968Y-114570710D01*
X111323270Y-114660720D01*
X111324499Y-114719948D01*
X111325794Y-114782376D01*
G36*
X111325794Y-114782376D02*
G01*
X111325413Y-114834449D01*
X111320641Y-114937047D01*
X111308150Y-115012126D01*
X111285121Y-115067748D01*
X111248732Y-115111975D01*
X111196162Y-115152869D01*
X111162714Y-115171466D01*
X111109098Y-115183991D01*
X111033780Y-115183003D01*
X110991672Y-115179035D01*
X110940879Y-115166920D01*
X110900280Y-115140585D01*
X110853049Y-115091514D01*
X110846738Y-115084346D01*
X110804277Y-115029189D01*
X110784018Y-114981150D01*
X110778846Y-114924184D01*
X110778846Y-114840471D01*
X110837346Y-114862552D01*
X110879994Y-114888364D01*
X110917064Y-114948928D01*
X110924803Y-114968320D01*
X110968074Y-115023235D01*
X111026976Y-115050879D01*
X111091111Y-115048393D01*
X111150077Y-115012923D01*
X111170342Y-114990805D01*
X111188720Y-114957436D01*
X111182971Y-114927117D01*
X111149887Y-114895913D01*
X111086261Y-114859887D01*
X110988885Y-114815103D01*
X110788615Y-114727445D01*
X110783301Y-114640607D01*
X110785299Y-114585296D01*
X110915783Y-114585296D01*
X110925688Y-114619538D01*
X110970756Y-114656096D01*
X111052557Y-114697692D01*
X111066092Y-114703718D01*
X111130818Y-114731753D01*
X111179247Y-114751472D01*
X111201751Y-114758923D01*
X111205161Y-114753438D01*
X111206529Y-114719948D01*
X111201651Y-114666116D01*
X111189364Y-114613473D01*
X111151041Y-114547151D01*
X111095720Y-114509780D01*
X111029640Y-114504721D01*
X110959040Y-114535339D01*
X110939474Y-114550648D01*
X110915783Y-114585296D01*
X110785299Y-114585296D01*
X110785647Y-114575663D01*
X110815186Y-114493590D01*
X110852472Y-114448361D01*
X110929776Y-114397838D01*
X111021478Y-114372316D01*
X111116274Y-114374336D01*
X111202859Y-114406440D01*
X111221920Y-114418767D01*
X111265640Y-114456912D01*
X111295540Y-114505167D01*
X111313968Y-114570710D01*
X111323270Y-114660720D01*
X111324499Y-114719948D01*
X111325794Y-114782376D01*
G37*
X114139401Y-114778462D02*
X114137839Y-114854652D01*
X114126810Y-114958507D01*
X114102814Y-115036333D01*
X114063043Y-115095760D01*
X114004688Y-115144418D01*
X113949100Y-115172546D01*
X113855751Y-115188199D01*
X113762530Y-115171084D01*
X113678272Y-115123388D01*
X113611818Y-115047294D01*
X113603793Y-115033262D01*
X113593196Y-115008679D01*
X113585335Y-114977309D01*
X113579807Y-114933769D01*
X113576206Y-114872678D01*
X113574128Y-114788655D01*
X113574064Y-114781200D01*
X113709615Y-114781200D01*
X113710077Y-114852316D01*
X113712999Y-114916641D01*
X113720221Y-114958166D01*
X113733561Y-114986067D01*
X113754836Y-115009517D01*
X113759821Y-115014025D01*
X113823863Y-115047295D01*
X113891625Y-115043890D01*
X113954734Y-115004042D01*
X113973526Y-114983398D01*
X113989254Y-114956029D01*
X113998039Y-114918192D01*
X114001859Y-114860355D01*
X114002692Y-114772986D01*
X114002281Y-114706319D01*
X113999434Y-114641245D01*
X113992256Y-114599251D01*
X113978889Y-114571063D01*
X113957472Y-114547406D01*
X113944890Y-114536753D01*
X113879699Y-114508057D01*
X113811400Y-114512575D01*
X113752098Y-114550144D01*
X113739333Y-114565040D01*
X113723764Y-114593089D01*
X113714762Y-114632258D01*
X113710617Y-114691858D01*
X113709615Y-114781200D01*
X113574064Y-114781200D01*
X113573167Y-114676320D01*
X113572919Y-114530289D01*
X113572846Y-114076963D01*
X113636346Y-114103564D01*
X113653136Y-114110845D01*
X113679859Y-114127287D01*
X113695156Y-114152187D01*
X113703563Y-114195732D01*
X113709615Y-114268106D01*
X113715144Y-114333089D01*
X113722450Y-114375750D01*
X113732918Y-114391670D01*
X113748692Y-114387400D01*
X113788890Y-114372397D01*
X113860728Y-114368678D01*
X113938010Y-114382572D01*
X114004688Y-114412505D01*
X114041371Y-114440211D01*
X114088472Y-114494269D01*
X114118638Y-114563577D01*
X114134678Y-114655765D01*
X114139191Y-114772986D01*
X114139401Y-114778462D01*
G36*
X114139401Y-114778462D02*
G01*
X114137839Y-114854652D01*
X114126810Y-114958507D01*
X114102814Y-115036333D01*
X114063043Y-115095760D01*
X114004688Y-115144418D01*
X113949100Y-115172546D01*
X113855751Y-115188199D01*
X113762530Y-115171084D01*
X113678272Y-115123388D01*
X113611818Y-115047294D01*
X113603793Y-115033262D01*
X113593196Y-115008679D01*
X113585335Y-114977309D01*
X113579807Y-114933769D01*
X113576206Y-114872678D01*
X113574128Y-114788655D01*
X113574064Y-114781200D01*
X113709615Y-114781200D01*
X113710077Y-114852316D01*
X113712999Y-114916641D01*
X113720221Y-114958166D01*
X113733561Y-114986067D01*
X113754836Y-115009517D01*
X113759821Y-115014025D01*
X113823863Y-115047295D01*
X113891625Y-115043890D01*
X113954734Y-115004042D01*
X113973526Y-114983398D01*
X113989254Y-114956029D01*
X113998039Y-114918192D01*
X114001859Y-114860355D01*
X114002692Y-114772986D01*
X114002281Y-114706319D01*
X113999434Y-114641245D01*
X113992256Y-114599251D01*
X113978889Y-114571063D01*
X113957472Y-114547406D01*
X113944890Y-114536753D01*
X113879699Y-114508057D01*
X113811400Y-114512575D01*
X113752098Y-114550144D01*
X113739333Y-114565040D01*
X113723764Y-114593089D01*
X113714762Y-114632258D01*
X113710617Y-114691858D01*
X113709615Y-114781200D01*
X113574064Y-114781200D01*
X113573167Y-114676320D01*
X113572919Y-114530289D01*
X113572846Y-114076963D01*
X113636346Y-114103564D01*
X113653136Y-114110845D01*
X113679859Y-114127287D01*
X113695156Y-114152187D01*
X113703563Y-114195732D01*
X113709615Y-114268106D01*
X113715144Y-114333089D01*
X113722450Y-114375750D01*
X113732918Y-114391670D01*
X113748692Y-114387400D01*
X113788890Y-114372397D01*
X113860728Y-114368678D01*
X113938010Y-114382572D01*
X114004688Y-114412505D01*
X114041371Y-114440211D01*
X114088472Y-114494269D01*
X114118638Y-114563577D01*
X114134678Y-114655765D01*
X114139191Y-114772986D01*
X114139401Y-114778462D01*
G37*
X118085787Y-114703536D02*
X118079574Y-114851643D01*
X118076066Y-114883021D01*
X118049927Y-114994705D01*
X118002694Y-115079642D01*
X117930862Y-115144741D01*
X117926802Y-115147428D01*
X117835487Y-115185634D01*
X117740144Y-115189034D01*
X117648274Y-115159939D01*
X117567379Y-115100660D01*
X117504962Y-115013510D01*
X117503914Y-115011409D01*
X117483173Y-114957289D01*
X117467980Y-114895781D01*
X117459921Y-114838039D01*
X117460582Y-114795215D01*
X117471548Y-114778462D01*
X117481290Y-114779480D01*
X117527877Y-114798009D01*
X117580682Y-114832081D01*
X117625603Y-114871522D01*
X117648535Y-114906155D01*
X117672373Y-114953133D01*
X117721230Y-114995862D01*
X117777963Y-115012923D01*
X117798758Y-115007990D01*
X117839804Y-114983157D01*
X117875557Y-114948685D01*
X117890846Y-114917411D01*
X117890842Y-114917295D01*
X117873495Y-114902933D01*
X117827247Y-114877025D01*
X117759067Y-114843210D01*
X117675923Y-114805129D01*
X117675466Y-114804927D01*
X117585138Y-114764709D01*
X117524592Y-114735733D01*
X117487888Y-114713474D01*
X117469086Y-114693407D01*
X117462246Y-114671009D01*
X117461429Y-114641756D01*
X117467113Y-114586363D01*
X117660000Y-114586363D01*
X117679911Y-114603777D01*
X117729521Y-114629872D01*
X117730976Y-114630610D01*
X117789506Y-114658483D01*
X117841868Y-114680719D01*
X117875086Y-114690126D01*
X117888410Y-114677552D01*
X117890846Y-114634468D01*
X117880724Y-114580847D01*
X117845631Y-114532119D01*
X117794823Y-114506856D01*
X117738181Y-114509406D01*
X117685584Y-114544120D01*
X117664910Y-114568107D01*
X117660000Y-114586363D01*
X117467113Y-114586363D01*
X117468622Y-114571654D01*
X117504184Y-114476412D01*
X117563714Y-114401567D01*
X117640746Y-114349745D01*
X117728815Y-114323573D01*
X117821454Y-114325676D01*
X117912198Y-114358681D01*
X117994579Y-114425215D01*
X118040222Y-114491055D01*
X118073008Y-114585036D01*
X118078339Y-114634468D01*
X118085787Y-114703536D01*
G36*
X118085787Y-114703536D02*
G01*
X118079574Y-114851643D01*
X118076066Y-114883021D01*
X118049927Y-114994705D01*
X118002694Y-115079642D01*
X117930862Y-115144741D01*
X117926802Y-115147428D01*
X117835487Y-115185634D01*
X117740144Y-115189034D01*
X117648274Y-115159939D01*
X117567379Y-115100660D01*
X117504962Y-115013510D01*
X117503914Y-115011409D01*
X117483173Y-114957289D01*
X117467980Y-114895781D01*
X117459921Y-114838039D01*
X117460582Y-114795215D01*
X117471548Y-114778462D01*
X117481290Y-114779480D01*
X117527877Y-114798009D01*
X117580682Y-114832081D01*
X117625603Y-114871522D01*
X117648535Y-114906155D01*
X117672373Y-114953133D01*
X117721230Y-114995862D01*
X117777963Y-115012923D01*
X117798758Y-115007990D01*
X117839804Y-114983157D01*
X117875557Y-114948685D01*
X117890846Y-114917411D01*
X117890842Y-114917295D01*
X117873495Y-114902933D01*
X117827247Y-114877025D01*
X117759067Y-114843210D01*
X117675923Y-114805129D01*
X117675466Y-114804927D01*
X117585138Y-114764709D01*
X117524592Y-114735733D01*
X117487888Y-114713474D01*
X117469086Y-114693407D01*
X117462246Y-114671009D01*
X117461429Y-114641756D01*
X117467113Y-114586363D01*
X117660000Y-114586363D01*
X117679911Y-114603777D01*
X117729521Y-114629872D01*
X117730976Y-114630610D01*
X117789506Y-114658483D01*
X117841868Y-114680719D01*
X117875086Y-114690126D01*
X117888410Y-114677552D01*
X117890846Y-114634468D01*
X117880724Y-114580847D01*
X117845631Y-114532119D01*
X117794823Y-114506856D01*
X117738181Y-114509406D01*
X117685584Y-114544120D01*
X117664910Y-114568107D01*
X117660000Y-114586363D01*
X117467113Y-114586363D01*
X117468622Y-114571654D01*
X117504184Y-114476412D01*
X117563714Y-114401567D01*
X117640746Y-114349745D01*
X117728815Y-114323573D01*
X117821454Y-114325676D01*
X117912198Y-114358681D01*
X117994579Y-114425215D01*
X118040222Y-114491055D01*
X118073008Y-114585036D01*
X118078339Y-114634468D01*
X118085787Y-114703536D01*
G37*
X115295458Y-114389228D02*
X115362622Y-114428389D01*
X115392169Y-114458902D01*
X115448948Y-114550110D01*
X115468077Y-114649548D01*
X115468077Y-114717960D01*
X115405191Y-114691518D01*
X115361700Y-114664837D01*
X115327426Y-114609446D01*
X115323907Y-114598024D01*
X115286028Y-114539838D01*
X115228936Y-114508407D01*
X115163383Y-114507058D01*
X115100117Y-114539116D01*
X115090672Y-114547383D01*
X115059087Y-114583311D01*
X115053871Y-114614635D01*
X115077765Y-114645391D01*
X115133510Y-114679617D01*
X115223846Y-114721350D01*
X115229956Y-114723993D01*
X115330241Y-114770755D01*
X115398735Y-114812181D01*
X115440899Y-114853542D01*
X115462193Y-114900111D01*
X115468077Y-114957160D01*
X115460366Y-115020408D01*
X115421430Y-115101364D01*
X115352932Y-115159522D01*
X115303388Y-115176983D01*
X115233469Y-115186537D01*
X115165575Y-115184496D01*
X115117093Y-115170082D01*
X115111943Y-115166493D01*
X115098267Y-115141416D01*
X115107757Y-115097218D01*
X115124246Y-115062527D01*
X115150687Y-115048084D01*
X115200834Y-115048803D01*
X115270453Y-115044660D01*
X115315943Y-115016054D01*
X115331308Y-114963104D01*
X115331294Y-114961582D01*
X115321983Y-114930845D01*
X115290311Y-114902643D01*
X115228731Y-114870136D01*
X115144986Y-114830998D01*
X115089518Y-114809706D01*
X115057497Y-114811079D01*
X115042534Y-114839203D01*
X115038242Y-114898170D01*
X115038231Y-114992068D01*
X115037752Y-115050031D01*
X115035556Y-115121612D01*
X115031986Y-115170606D01*
X115027491Y-115188769D01*
X115026290Y-115188646D01*
X115000319Y-115178802D01*
X114957305Y-115158028D01*
X114897859Y-115127287D01*
X114904923Y-114850298D01*
X114905414Y-114831928D01*
X114911025Y-114702992D01*
X114920938Y-114605814D01*
X114937175Y-114533925D01*
X114961759Y-114480852D01*
X114996715Y-114440127D01*
X115044064Y-114405279D01*
X115044940Y-114404733D01*
X115121499Y-114376303D01*
X115210044Y-114371500D01*
X115295458Y-114389228D01*
G36*
X115295458Y-114389228D02*
G01*
X115362622Y-114428389D01*
X115392169Y-114458902D01*
X115448948Y-114550110D01*
X115468077Y-114649548D01*
X115468077Y-114717960D01*
X115405191Y-114691518D01*
X115361700Y-114664837D01*
X115327426Y-114609446D01*
X115323907Y-114598024D01*
X115286028Y-114539838D01*
X115228936Y-114508407D01*
X115163383Y-114507058D01*
X115100117Y-114539116D01*
X115090672Y-114547383D01*
X115059087Y-114583311D01*
X115053871Y-114614635D01*
X115077765Y-114645391D01*
X115133510Y-114679617D01*
X115223846Y-114721350D01*
X115229956Y-114723993D01*
X115330241Y-114770755D01*
X115398735Y-114812181D01*
X115440899Y-114853542D01*
X115462193Y-114900111D01*
X115468077Y-114957160D01*
X115460366Y-115020408D01*
X115421430Y-115101364D01*
X115352932Y-115159522D01*
X115303388Y-115176983D01*
X115233469Y-115186537D01*
X115165575Y-115184496D01*
X115117093Y-115170082D01*
X115111943Y-115166493D01*
X115098267Y-115141416D01*
X115107757Y-115097218D01*
X115124246Y-115062527D01*
X115150687Y-115048084D01*
X115200834Y-115048803D01*
X115270453Y-115044660D01*
X115315943Y-115016054D01*
X115331308Y-114963104D01*
X115331294Y-114961582D01*
X115321983Y-114930845D01*
X115290311Y-114902643D01*
X115228731Y-114870136D01*
X115144986Y-114830998D01*
X115089518Y-114809706D01*
X115057497Y-114811079D01*
X115042534Y-114839203D01*
X115038242Y-114898170D01*
X115038231Y-114992068D01*
X115037752Y-115050031D01*
X115035556Y-115121612D01*
X115031986Y-115170606D01*
X115027491Y-115188769D01*
X115026290Y-115188646D01*
X115000319Y-115178802D01*
X114957305Y-115158028D01*
X114897859Y-115127287D01*
X114904923Y-114850298D01*
X114905414Y-114831928D01*
X114911025Y-114702992D01*
X114920938Y-114605814D01*
X114937175Y-114533925D01*
X114961759Y-114480852D01*
X114996715Y-114440127D01*
X115044064Y-114405279D01*
X115044940Y-114404733D01*
X115121499Y-114376303D01*
X115210044Y-114371500D01*
X115295458Y-114389228D01*
G37*
X112438936Y-114369911D02*
X112480807Y-114380547D01*
X112519791Y-114407062D01*
X112569965Y-114456420D01*
X112602232Y-114491279D01*
X112635844Y-114536534D01*
X112651003Y-114578951D01*
X112654539Y-114632768D01*
X112654539Y-114720850D01*
X112594470Y-114689787D01*
X112546867Y-114651936D01*
X112514261Y-114600950D01*
X112508661Y-114587088D01*
X112465992Y-114533358D01*
X112406707Y-114506417D01*
X112342061Y-114509039D01*
X112283308Y-114544000D01*
X112258450Y-114572394D01*
X112243970Y-114608718D01*
X112259470Y-114641046D01*
X112307667Y-114673565D01*
X112391274Y-114710461D01*
X112403962Y-114715557D01*
X112480078Y-114748907D01*
X112545396Y-114781793D01*
X112586953Y-114807769D01*
X112628576Y-114854167D01*
X112656247Y-114928211D01*
X112653310Y-115007670D01*
X112620571Y-115082868D01*
X112558841Y-115144131D01*
X112508858Y-115170210D01*
X112412303Y-115188470D01*
X112358647Y-115186007D01*
X112308976Y-115172687D01*
X112289919Y-115144739D01*
X112297045Y-115098710D01*
X112299118Y-115092624D01*
X112315556Y-115060349D01*
X112342926Y-115048133D01*
X112395068Y-115048950D01*
X112431884Y-115050061D01*
X112474961Y-115040528D01*
X112504475Y-115012026D01*
X112521286Y-114976935D01*
X112523161Y-114940175D01*
X112523074Y-114939961D01*
X112501279Y-114920098D01*
X112454632Y-114891192D01*
X112394278Y-114858886D01*
X112331360Y-114828823D01*
X112277023Y-114806646D01*
X112242410Y-114798000D01*
X112237260Y-114806467D01*
X112230778Y-114846309D01*
X112226339Y-114911371D01*
X112224692Y-114993385D01*
X112224309Y-115050153D01*
X112222505Y-115121648D01*
X112219558Y-115170610D01*
X112215843Y-115188769D01*
X112196424Y-115182667D01*
X112157227Y-115166095D01*
X112107462Y-115143420D01*
X112107462Y-114852509D01*
X112107780Y-114777940D01*
X112110789Y-114664701D01*
X112118454Y-114580692D01*
X112132562Y-114519520D01*
X112154899Y-114474795D01*
X112187253Y-114440124D01*
X112231410Y-114409117D01*
X112287667Y-114383528D01*
X112391540Y-114368154D01*
X112438936Y-114369911D01*
G36*
X112438936Y-114369911D02*
G01*
X112480807Y-114380547D01*
X112519791Y-114407062D01*
X112569965Y-114456420D01*
X112602232Y-114491279D01*
X112635844Y-114536534D01*
X112651003Y-114578951D01*
X112654539Y-114632768D01*
X112654539Y-114720850D01*
X112594470Y-114689787D01*
X112546867Y-114651936D01*
X112514261Y-114600950D01*
X112508661Y-114587088D01*
X112465992Y-114533358D01*
X112406707Y-114506417D01*
X112342061Y-114509039D01*
X112283308Y-114544000D01*
X112258450Y-114572394D01*
X112243970Y-114608718D01*
X112259470Y-114641046D01*
X112307667Y-114673565D01*
X112391274Y-114710461D01*
X112403962Y-114715557D01*
X112480078Y-114748907D01*
X112545396Y-114781793D01*
X112586953Y-114807769D01*
X112628576Y-114854167D01*
X112656247Y-114928211D01*
X112653310Y-115007670D01*
X112620571Y-115082868D01*
X112558841Y-115144131D01*
X112508858Y-115170210D01*
X112412303Y-115188470D01*
X112358647Y-115186007D01*
X112308976Y-115172687D01*
X112289919Y-115144739D01*
X112297045Y-115098710D01*
X112299118Y-115092624D01*
X112315556Y-115060349D01*
X112342926Y-115048133D01*
X112395068Y-115048950D01*
X112431884Y-115050061D01*
X112474961Y-115040528D01*
X112504475Y-115012026D01*
X112521286Y-114976935D01*
X112523161Y-114940175D01*
X112523074Y-114939961D01*
X112501279Y-114920098D01*
X112454632Y-114891192D01*
X112394278Y-114858886D01*
X112331360Y-114828823D01*
X112277023Y-114806646D01*
X112242410Y-114798000D01*
X112237260Y-114806467D01*
X112230778Y-114846309D01*
X112226339Y-114911371D01*
X112224692Y-114993385D01*
X112224309Y-115050153D01*
X112222505Y-115121648D01*
X112219558Y-115170610D01*
X112215843Y-115188769D01*
X112196424Y-115182667D01*
X112157227Y-115166095D01*
X112107462Y-115143420D01*
X112107462Y-114852509D01*
X112107780Y-114777940D01*
X112110789Y-114664701D01*
X112118454Y-114580692D01*
X112132562Y-114519520D01*
X112154899Y-114474795D01*
X112187253Y-114440124D01*
X112231410Y-114409117D01*
X112287667Y-114383528D01*
X112391540Y-114368154D01*
X112438936Y-114369911D01*
G37*
X118822828Y-114848205D02*
X118824763Y-114998269D01*
X118825300Y-115041802D01*
X118827019Y-115187344D01*
X118827365Y-115298711D01*
X118825277Y-115379804D01*
X118819698Y-115434522D01*
X118809567Y-115466761D01*
X118793826Y-115480422D01*
X118771417Y-115479403D01*
X118741280Y-115467603D01*
X118702355Y-115448920D01*
X118694038Y-115444933D01*
X118659402Y-115425419D01*
X118641314Y-115402202D01*
X118634392Y-115363492D01*
X118633256Y-115297497D01*
X118633205Y-115179000D01*
X118511141Y-115179000D01*
X118436055Y-115175712D01*
X118377015Y-115162377D01*
X118327986Y-115135423D01*
X118324330Y-115132788D01*
X118274581Y-115088286D01*
X118239959Y-115034523D01*
X118218123Y-114964154D01*
X118206737Y-114869830D01*
X118203959Y-114763271D01*
X118398846Y-114763271D01*
X118398880Y-114781131D01*
X118400735Y-114861748D01*
X118406693Y-114914447D01*
X118418506Y-114948668D01*
X118437923Y-114973846D01*
X118439133Y-114975049D01*
X118486858Y-115007628D01*
X118533110Y-115004417D01*
X118585350Y-114964965D01*
X118598128Y-114951482D01*
X118616949Y-114923837D01*
X118627562Y-114887880D01*
X118632252Y-114833364D01*
X118633308Y-114750042D01*
X118632394Y-114699598D01*
X118622477Y-114607857D01*
X118599842Y-114547752D01*
X118562238Y-114514900D01*
X118507416Y-114504923D01*
X118484317Y-114507050D01*
X118444350Y-114528147D01*
X118417926Y-114575161D01*
X118403330Y-114652175D01*
X118398846Y-114763271D01*
X118203959Y-114763271D01*
X118203462Y-114744206D01*
X118204187Y-114652536D01*
X118207490Y-114583098D01*
X118214828Y-114534945D01*
X118227655Y-114498866D01*
X118247423Y-114465648D01*
X118265569Y-114440261D01*
X118331461Y-114371727D01*
X118406114Y-114334505D01*
X118499904Y-114322722D01*
X118607240Y-114334467D01*
X118700031Y-114376595D01*
X118773421Y-114450898D01*
X118778954Y-114458764D01*
X118791857Y-114479668D01*
X118801742Y-114503555D01*
X118809093Y-114535582D01*
X118814394Y-114580905D01*
X118818127Y-114644679D01*
X118820778Y-114732060D01*
X118821096Y-114750042D01*
X118822828Y-114848205D01*
G36*
X118822828Y-114848205D02*
G01*
X118824763Y-114998269D01*
X118825300Y-115041802D01*
X118827019Y-115187344D01*
X118827365Y-115298711D01*
X118825277Y-115379804D01*
X118819698Y-115434522D01*
X118809567Y-115466761D01*
X118793826Y-115480422D01*
X118771417Y-115479403D01*
X118741280Y-115467603D01*
X118702355Y-115448920D01*
X118694038Y-115444933D01*
X118659402Y-115425419D01*
X118641314Y-115402202D01*
X118634392Y-115363492D01*
X118633256Y-115297497D01*
X118633205Y-115179000D01*
X118511141Y-115179000D01*
X118436055Y-115175712D01*
X118377015Y-115162377D01*
X118327986Y-115135423D01*
X118324330Y-115132788D01*
X118274581Y-115088286D01*
X118239959Y-115034523D01*
X118218123Y-114964154D01*
X118206737Y-114869830D01*
X118203959Y-114763271D01*
X118398846Y-114763271D01*
X118398880Y-114781131D01*
X118400735Y-114861748D01*
X118406693Y-114914447D01*
X118418506Y-114948668D01*
X118437923Y-114973846D01*
X118439133Y-114975049D01*
X118486858Y-115007628D01*
X118533110Y-115004417D01*
X118585350Y-114964965D01*
X118598128Y-114951482D01*
X118616949Y-114923837D01*
X118627562Y-114887880D01*
X118632252Y-114833364D01*
X118633308Y-114750042D01*
X118632394Y-114699598D01*
X118622477Y-114607857D01*
X118599842Y-114547752D01*
X118562238Y-114514900D01*
X118507416Y-114504923D01*
X118484317Y-114507050D01*
X118444350Y-114528147D01*
X118417926Y-114575161D01*
X118403330Y-114652175D01*
X118398846Y-114763271D01*
X118203959Y-114763271D01*
X118203462Y-114744206D01*
X118204187Y-114652536D01*
X118207490Y-114583098D01*
X118214828Y-114534945D01*
X118227655Y-114498866D01*
X118247423Y-114465648D01*
X118265569Y-114440261D01*
X118331461Y-114371727D01*
X118406114Y-114334505D01*
X118499904Y-114322722D01*
X118607240Y-114334467D01*
X118700031Y-114376595D01*
X118773421Y-114450898D01*
X118778954Y-114458764D01*
X118791857Y-114479668D01*
X118801742Y-114503555D01*
X118809093Y-114535582D01*
X118814394Y-114580905D01*
X118818127Y-114644679D01*
X118820778Y-114732060D01*
X118821096Y-114750042D01*
X118822828Y-114848205D01*
G37*
X115192575Y-108037693D02*
X115328371Y-108037807D01*
X115430576Y-108038472D01*
X115504122Y-108040182D01*
X115553942Y-108043429D01*
X115584967Y-108048706D01*
X115602129Y-108056507D01*
X115610361Y-108067325D01*
X115614594Y-108081654D01*
X115614716Y-108082168D01*
X115621672Y-108115851D01*
X115634320Y-108180917D01*
X115651360Y-108270542D01*
X115671496Y-108377904D01*
X115693429Y-108496178D01*
X115695218Y-108505856D01*
X115717083Y-108620650D01*
X115737430Y-108721480D01*
X115754934Y-108802217D01*
X115768271Y-108856734D01*
X115776116Y-108878901D01*
X115776158Y-108878936D01*
X115800884Y-108891200D01*
X115851631Y-108911576D01*
X115917462Y-108935674D01*
X115921169Y-108936983D01*
X116005331Y-108968791D01*
X116103230Y-109008685D01*
X116194435Y-109048353D01*
X116344407Y-109116420D01*
X116676499Y-108889639D01*
X116699889Y-108873688D01*
X116800080Y-108805890D01*
X116889480Y-108746208D01*
X116962745Y-108698156D01*
X117014527Y-108665250D01*
X117039480Y-108651004D01*
X117056577Y-108654270D01*
X117095395Y-108679571D01*
X117155385Y-108729675D01*
X117238210Y-108805989D01*
X117345535Y-108909922D01*
X117355139Y-108919382D01*
X117440302Y-109004145D01*
X117515949Y-109080937D01*
X117577449Y-109144947D01*
X117620173Y-109191361D01*
X117639489Y-109215369D01*
X117639552Y-109215485D01*
X117642006Y-109233763D01*
X117632956Y-109263411D01*
X117610119Y-109308486D01*
X117571213Y-109373044D01*
X117513954Y-109461140D01*
X117436059Y-109576830D01*
X117422785Y-109596357D01*
X117355652Y-109695278D01*
X117296410Y-109782848D01*
X117248588Y-109853831D01*
X117215715Y-109902991D01*
X117201318Y-109925095D01*
X117200232Y-109929777D01*
X117207044Y-109964710D01*
X117227450Y-110021753D01*
X117258123Y-110091172D01*
X117299808Y-110181959D01*
X117346352Y-110289686D01*
X117385877Y-110387192D01*
X117395676Y-110412430D01*
X117421340Y-110476870D01*
X117440193Y-110521763D01*
X117448710Y-110538616D01*
X117458111Y-110539875D01*
X117500363Y-110547159D01*
X117569521Y-110559739D01*
X117658387Y-110576246D01*
X117759768Y-110595312D01*
X117866467Y-110615569D01*
X117971288Y-110635647D01*
X118067036Y-110654179D01*
X118146516Y-110669795D01*
X118202530Y-110681127D01*
X118227885Y-110686807D01*
X118232088Y-110688408D01*
X118242334Y-110697045D01*
X118249957Y-110715433D01*
X118255338Y-110748460D01*
X118258859Y-110801013D01*
X118260901Y-110877979D01*
X118261847Y-110984246D01*
X118262077Y-111124701D01*
X118262077Y-111551845D01*
X118159500Y-111572091D01*
X118147092Y-111574518D01*
X118081199Y-111587088D01*
X117990084Y-111604170D01*
X117884104Y-111623829D01*
X117773615Y-111644132D01*
X117730105Y-111652299D01*
X117632882Y-111672167D01*
X117551858Y-111690954D01*
X117494477Y-111706859D01*
X117468187Y-111718079D01*
X117456273Y-111736411D01*
X117434583Y-111784916D01*
X117412395Y-111847692D01*
X117404585Y-111871200D01*
X117375835Y-111948366D01*
X117338752Y-112039694D01*
X117299375Y-112130093D01*
X117278315Y-112177310D01*
X117248311Y-112247837D01*
X117227692Y-112300655D01*
X117220026Y-112326912D01*
X117220452Y-112328894D01*
X117234993Y-112356751D01*
X117267783Y-112410510D01*
X117315493Y-112484963D01*
X117374798Y-112574897D01*
X117442369Y-112675104D01*
X117664713Y-113001416D01*
X117372601Y-113294016D01*
X117344349Y-113322171D01*
X117257961Y-113406449D01*
X117180756Y-113479128D01*
X117117258Y-113536112D01*
X117071990Y-113573307D01*
X117049474Y-113586616D01*
X117025023Y-113576490D01*
X116973819Y-113547421D01*
X116901747Y-113502896D01*
X116814460Y-113446411D01*
X116717612Y-113381462D01*
X116622486Y-113317314D01*
X116536669Y-113260827D01*
X116466652Y-113216184D01*
X116417876Y-113186855D01*
X116395783Y-113176308D01*
X116394488Y-113176404D01*
X116365139Y-113186802D01*
X116313093Y-113211012D01*
X116248708Y-113244249D01*
X116248032Y-113244613D01*
X116162521Y-113287441D01*
X116103926Y-113308365D01*
X116067571Y-113308423D01*
X116048775Y-113288654D01*
X116040819Y-113269195D01*
X116019347Y-113217080D01*
X115986273Y-113136964D01*
X115943356Y-113033107D01*
X115892356Y-112909767D01*
X115835033Y-112771201D01*
X115773146Y-112621670D01*
X115717052Y-112485636D01*
X115659977Y-112346050D01*
X115609479Y-112221315D01*
X115567254Y-112115672D01*
X115534995Y-112033365D01*
X115514397Y-111978635D01*
X115507154Y-111955726D01*
X115520986Y-111934718D01*
X115559412Y-111899642D01*
X115613807Y-111858887D01*
X115744395Y-111752267D01*
X115861260Y-111616025D01*
X115946780Y-111466118D01*
X116000431Y-111306971D01*
X116021684Y-111143012D01*
X116010014Y-110978667D01*
X115964894Y-110818361D01*
X115885797Y-110666520D01*
X115772197Y-110527572D01*
X115712965Y-110473460D01*
X115571054Y-110377782D01*
X115419206Y-110315405D01*
X115261861Y-110284844D01*
X115103456Y-110284615D01*
X114948429Y-110313232D01*
X114801220Y-110369210D01*
X114666266Y-110451064D01*
X114548005Y-110557309D01*
X114450877Y-110686459D01*
X114379318Y-110837031D01*
X114337769Y-111007539D01*
X114330143Y-111089722D01*
X114340634Y-111267775D01*
X114387882Y-111436704D01*
X114470489Y-111593522D01*
X114587059Y-111735245D01*
X114736193Y-111858887D01*
X114788561Y-111897982D01*
X114827832Y-111933443D01*
X114842846Y-111955692D01*
X114836859Y-111975088D01*
X114817432Y-112027059D01*
X114786194Y-112107002D01*
X114744839Y-112210673D01*
X114695061Y-112333832D01*
X114638553Y-112472234D01*
X114577009Y-112621637D01*
X114521008Y-112757020D01*
X114463184Y-112896852D01*
X114411500Y-113021872D01*
X114367718Y-113127822D01*
X114333597Y-113210441D01*
X114310898Y-113265472D01*
X114301380Y-113288654D01*
X114301269Y-113288928D01*
X114282228Y-113308503D01*
X114245694Y-113308279D01*
X114186954Y-113287210D01*
X114101292Y-113244249D01*
X114094549Y-113240631D01*
X114030938Y-113208087D01*
X113980707Y-113185050D01*
X113954218Y-113176308D01*
X113932506Y-113186639D01*
X113883984Y-113215788D01*
X113814163Y-113260287D01*
X113728484Y-113316668D01*
X113632388Y-113381462D01*
X113537706Y-113444984D01*
X113450132Y-113501705D01*
X113377642Y-113546547D01*
X113325889Y-113576016D01*
X113300526Y-113586616D01*
X113296206Y-113585270D01*
X113266092Y-113564056D01*
X113214640Y-113520237D01*
X113146375Y-113457909D01*
X113065820Y-113381170D01*
X112977500Y-113294116D01*
X112685488Y-113001617D01*
X113140360Y-112332525D01*
X113071208Y-112182916D01*
X113071003Y-112182473D01*
X113029477Y-112087101D01*
X112987044Y-111980896D01*
X112952858Y-111886769D01*
X112947684Y-111871588D01*
X112921601Y-111801109D01*
X112898081Y-111746342D01*
X112881677Y-111718079D01*
X112874996Y-111714088D01*
X112834892Y-111700697D01*
X112766795Y-111683373D01*
X112678145Y-111663917D01*
X112576385Y-111644132D01*
X112545904Y-111638551D01*
X112435628Y-111618233D01*
X112332731Y-111599095D01*
X112247569Y-111583070D01*
X112190500Y-111572091D01*
X112087923Y-111551845D01*
X112087923Y-111124701D01*
X112087946Y-111072180D01*
X112088379Y-110944047D01*
X112089659Y-110848420D01*
X112092168Y-110780411D01*
X112096286Y-110735133D01*
X112102395Y-110707697D01*
X112110878Y-110693218D01*
X112122115Y-110686807D01*
X112132994Y-110684209D01*
X112177347Y-110675022D01*
X112248106Y-110660991D01*
X112338074Y-110643486D01*
X112440056Y-110623874D01*
X112546857Y-110603525D01*
X112651281Y-110583807D01*
X112746132Y-110566089D01*
X112824214Y-110551738D01*
X112878332Y-110542124D01*
X112901291Y-110538616D01*
X112902842Y-110536497D01*
X112915325Y-110509006D01*
X112936927Y-110456406D01*
X112964123Y-110387192D01*
X113001866Y-110293937D01*
X113048328Y-110186159D01*
X113091878Y-110091172D01*
X113101858Y-110069851D01*
X113129862Y-110003086D01*
X113146641Y-109951590D01*
X113148854Y-109925095D01*
X113147713Y-109923218D01*
X113129584Y-109895565D01*
X113093644Y-109841849D01*
X113043418Y-109767303D01*
X112982430Y-109677162D01*
X112914205Y-109576657D01*
X112837330Y-109462470D01*
X112779663Y-109373770D01*
X112740426Y-109308721D01*
X112717350Y-109263295D01*
X112708166Y-109233463D01*
X112710604Y-109215195D01*
X112711424Y-109213825D01*
X112733477Y-109187205D01*
X112778436Y-109138697D01*
X112841673Y-109073108D01*
X112918559Y-108995247D01*
X113004465Y-108909922D01*
X113093579Y-108823334D01*
X113180872Y-108741947D01*
X113245018Y-108687035D01*
X113287679Y-108657190D01*
X113310521Y-108651004D01*
X113313505Y-108652394D01*
X113344936Y-108671127D01*
X113401997Y-108707733D01*
X113479343Y-108758697D01*
X113571626Y-108820504D01*
X113673502Y-108889639D01*
X114005593Y-109116420D01*
X114155566Y-109048353D01*
X114159923Y-109046381D01*
X114252000Y-109006491D01*
X114349683Y-108966818D01*
X114432539Y-108935674D01*
X114432905Y-108935545D01*
X114498685Y-108911456D01*
X114549323Y-108891110D01*
X114573884Y-108878901D01*
X114574282Y-108878458D01*
X114582619Y-108853456D01*
X114596341Y-108796598D01*
X114614123Y-108714014D01*
X114634641Y-108611831D01*
X114656571Y-108496178D01*
X114657336Y-108492033D01*
X114679229Y-108374019D01*
X114699281Y-108267151D01*
X114716192Y-108178252D01*
X114728667Y-108114145D01*
X114735406Y-108081654D01*
X114735837Y-108079853D01*
X114740273Y-108065944D01*
X114749263Y-108055489D01*
X114767737Y-108047996D01*
X114800628Y-108042972D01*
X114852868Y-108039922D01*
X114929388Y-108038355D01*
X115035122Y-108037776D01*
X115175000Y-108037692D01*
X115192575Y-108037693D01*
G36*
X115192575Y-108037693D02*
G01*
X115328371Y-108037807D01*
X115430576Y-108038472D01*
X115504122Y-108040182D01*
X115553942Y-108043429D01*
X115584967Y-108048706D01*
X115602129Y-108056507D01*
X115610361Y-108067325D01*
X115614594Y-108081654D01*
X115614716Y-108082168D01*
X115621672Y-108115851D01*
X115634320Y-108180917D01*
X115651360Y-108270542D01*
X115671496Y-108377904D01*
X115693429Y-108496178D01*
X115695218Y-108505856D01*
X115717083Y-108620650D01*
X115737430Y-108721480D01*
X115754934Y-108802217D01*
X115768271Y-108856734D01*
X115776116Y-108878901D01*
X115776158Y-108878936D01*
X115800884Y-108891200D01*
X115851631Y-108911576D01*
X115917462Y-108935674D01*
X115921169Y-108936983D01*
X116005331Y-108968791D01*
X116103230Y-109008685D01*
X116194435Y-109048353D01*
X116344407Y-109116420D01*
X116676499Y-108889639D01*
X116699889Y-108873688D01*
X116800080Y-108805890D01*
X116889480Y-108746208D01*
X116962745Y-108698156D01*
X117014527Y-108665250D01*
X117039480Y-108651004D01*
X117056577Y-108654270D01*
X117095395Y-108679571D01*
X117155385Y-108729675D01*
X117238210Y-108805989D01*
X117345535Y-108909922D01*
X117355139Y-108919382D01*
X117440302Y-109004145D01*
X117515949Y-109080937D01*
X117577449Y-109144947D01*
X117620173Y-109191361D01*
X117639489Y-109215369D01*
X117639552Y-109215485D01*
X117642006Y-109233763D01*
X117632956Y-109263411D01*
X117610119Y-109308486D01*
X117571213Y-109373044D01*
X117513954Y-109461140D01*
X117436059Y-109576830D01*
X117422785Y-109596357D01*
X117355652Y-109695278D01*
X117296410Y-109782848D01*
X117248588Y-109853831D01*
X117215715Y-109902991D01*
X117201318Y-109925095D01*
X117200232Y-109929777D01*
X117207044Y-109964710D01*
X117227450Y-110021753D01*
X117258123Y-110091172D01*
X117299808Y-110181959D01*
X117346352Y-110289686D01*
X117385877Y-110387192D01*
X117395676Y-110412430D01*
X117421340Y-110476870D01*
X117440193Y-110521763D01*
X117448710Y-110538616D01*
X117458111Y-110539875D01*
X117500363Y-110547159D01*
X117569521Y-110559739D01*
X117658387Y-110576246D01*
X117759768Y-110595312D01*
X117866467Y-110615569D01*
X117971288Y-110635647D01*
X118067036Y-110654179D01*
X118146516Y-110669795D01*
X118202530Y-110681127D01*
X118227885Y-110686807D01*
X118232088Y-110688408D01*
X118242334Y-110697045D01*
X118249957Y-110715433D01*
X118255338Y-110748460D01*
X118258859Y-110801013D01*
X118260901Y-110877979D01*
X118261847Y-110984246D01*
X118262077Y-111124701D01*
X118262077Y-111551845D01*
X118159500Y-111572091D01*
X118147092Y-111574518D01*
X118081199Y-111587088D01*
X117990084Y-111604170D01*
X117884104Y-111623829D01*
X117773615Y-111644132D01*
X117730105Y-111652299D01*
X117632882Y-111672167D01*
X117551858Y-111690954D01*
X117494477Y-111706859D01*
X117468187Y-111718079D01*
X117456273Y-111736411D01*
X117434583Y-111784916D01*
X117412395Y-111847692D01*
X117404585Y-111871200D01*
X117375835Y-111948366D01*
X117338752Y-112039694D01*
X117299375Y-112130093D01*
X117278315Y-112177310D01*
X117248311Y-112247837D01*
X117227692Y-112300655D01*
X117220026Y-112326912D01*
X117220452Y-112328894D01*
X117234993Y-112356751D01*
X117267783Y-112410510D01*
X117315493Y-112484963D01*
X117374798Y-112574897D01*
X117442369Y-112675104D01*
X117664713Y-113001416D01*
X117372601Y-113294016D01*
X117344349Y-113322171D01*
X117257961Y-113406449D01*
X117180756Y-113479128D01*
X117117258Y-113536112D01*
X117071990Y-113573307D01*
X117049474Y-113586616D01*
X117025023Y-113576490D01*
X116973819Y-113547421D01*
X116901747Y-113502896D01*
X116814460Y-113446411D01*
X116717612Y-113381462D01*
X116622486Y-113317314D01*
X116536669Y-113260827D01*
X116466652Y-113216184D01*
X116417876Y-113186855D01*
X116395783Y-113176308D01*
X116394488Y-113176404D01*
X116365139Y-113186802D01*
X116313093Y-113211012D01*
X116248708Y-113244249D01*
X116248032Y-113244613D01*
X116162521Y-113287441D01*
X116103926Y-113308365D01*
X116067571Y-113308423D01*
X116048775Y-113288654D01*
X116040819Y-113269195D01*
X116019347Y-113217080D01*
X115986273Y-113136964D01*
X115943356Y-113033107D01*
X115892356Y-112909767D01*
X115835033Y-112771201D01*
X115773146Y-112621670D01*
X115717052Y-112485636D01*
X115659977Y-112346050D01*
X115609479Y-112221315D01*
X115567254Y-112115672D01*
X115534995Y-112033365D01*
X115514397Y-111978635D01*
X115507154Y-111955726D01*
X115520986Y-111934718D01*
X115559412Y-111899642D01*
X115613807Y-111858887D01*
X115744395Y-111752267D01*
X115861260Y-111616025D01*
X115946780Y-111466118D01*
X116000431Y-111306971D01*
X116021684Y-111143012D01*
X116010014Y-110978667D01*
X115964894Y-110818361D01*
X115885797Y-110666520D01*
X115772197Y-110527572D01*
X115712965Y-110473460D01*
X115571054Y-110377782D01*
X115419206Y-110315405D01*
X115261861Y-110284844D01*
X115103456Y-110284615D01*
X114948429Y-110313232D01*
X114801220Y-110369210D01*
X114666266Y-110451064D01*
X114548005Y-110557309D01*
X114450877Y-110686459D01*
X114379318Y-110837031D01*
X114337769Y-111007539D01*
X114330143Y-111089722D01*
X114340634Y-111267775D01*
X114387882Y-111436704D01*
X114470489Y-111593522D01*
X114587059Y-111735245D01*
X114736193Y-111858887D01*
X114788561Y-111897982D01*
X114827832Y-111933443D01*
X114842846Y-111955692D01*
X114836859Y-111975088D01*
X114817432Y-112027059D01*
X114786194Y-112107002D01*
X114744839Y-112210673D01*
X114695061Y-112333832D01*
X114638553Y-112472234D01*
X114577009Y-112621637D01*
X114521008Y-112757020D01*
X114463184Y-112896852D01*
X114411500Y-113021872D01*
X114367718Y-113127822D01*
X114333597Y-113210441D01*
X114310898Y-113265472D01*
X114301380Y-113288654D01*
X114301269Y-113288928D01*
X114282228Y-113308503D01*
X114245694Y-113308279D01*
X114186954Y-113287210D01*
X114101292Y-113244249D01*
X114094549Y-113240631D01*
X114030938Y-113208087D01*
X113980707Y-113185050D01*
X113954218Y-113176308D01*
X113932506Y-113186639D01*
X113883984Y-113215788D01*
X113814163Y-113260287D01*
X113728484Y-113316668D01*
X113632388Y-113381462D01*
X113537706Y-113444984D01*
X113450132Y-113501705D01*
X113377642Y-113546547D01*
X113325889Y-113576016D01*
X113300526Y-113586616D01*
X113296206Y-113585270D01*
X113266092Y-113564056D01*
X113214640Y-113520237D01*
X113146375Y-113457909D01*
X113065820Y-113381170D01*
X112977500Y-113294116D01*
X112685488Y-113001617D01*
X113140360Y-112332525D01*
X113071208Y-112182916D01*
X113071003Y-112182473D01*
X113029477Y-112087101D01*
X112987044Y-111980896D01*
X112952858Y-111886769D01*
X112947684Y-111871588D01*
X112921601Y-111801109D01*
X112898081Y-111746342D01*
X112881677Y-111718079D01*
X112874996Y-111714088D01*
X112834892Y-111700697D01*
X112766795Y-111683373D01*
X112678145Y-111663917D01*
X112576385Y-111644132D01*
X112545904Y-111638551D01*
X112435628Y-111618233D01*
X112332731Y-111599095D01*
X112247569Y-111583070D01*
X112190500Y-111572091D01*
X112087923Y-111551845D01*
X112087923Y-111124701D01*
X112087946Y-111072180D01*
X112088379Y-110944047D01*
X112089659Y-110848420D01*
X112092168Y-110780411D01*
X112096286Y-110735133D01*
X112102395Y-110707697D01*
X112110878Y-110693218D01*
X112122115Y-110686807D01*
X112132994Y-110684209D01*
X112177347Y-110675022D01*
X112248106Y-110660991D01*
X112338074Y-110643486D01*
X112440056Y-110623874D01*
X112546857Y-110603525D01*
X112651281Y-110583807D01*
X112746132Y-110566089D01*
X112824214Y-110551738D01*
X112878332Y-110542124D01*
X112901291Y-110538616D01*
X112902842Y-110536497D01*
X112915325Y-110509006D01*
X112936927Y-110456406D01*
X112964123Y-110387192D01*
X113001866Y-110293937D01*
X113048328Y-110186159D01*
X113091878Y-110091172D01*
X113101858Y-110069851D01*
X113129862Y-110003086D01*
X113146641Y-109951590D01*
X113148854Y-109925095D01*
X113147713Y-109923218D01*
X113129584Y-109895565D01*
X113093644Y-109841849D01*
X113043418Y-109767303D01*
X112982430Y-109677162D01*
X112914205Y-109576657D01*
X112837330Y-109462470D01*
X112779663Y-109373770D01*
X112740426Y-109308721D01*
X112717350Y-109263295D01*
X112708166Y-109233463D01*
X112710604Y-109215195D01*
X112711424Y-109213825D01*
X112733477Y-109187205D01*
X112778436Y-109138697D01*
X112841673Y-109073108D01*
X112918559Y-108995247D01*
X113004465Y-108909922D01*
X113093579Y-108823334D01*
X113180872Y-108741947D01*
X113245018Y-108687035D01*
X113287679Y-108657190D01*
X113310521Y-108651004D01*
X113313505Y-108652394D01*
X113344936Y-108671127D01*
X113401997Y-108707733D01*
X113479343Y-108758697D01*
X113571626Y-108820504D01*
X113673502Y-108889639D01*
X114005593Y-109116420D01*
X114155566Y-109048353D01*
X114159923Y-109046381D01*
X114252000Y-109006491D01*
X114349683Y-108966818D01*
X114432539Y-108935674D01*
X114432905Y-108935545D01*
X114498685Y-108911456D01*
X114549323Y-108891110D01*
X114573884Y-108878901D01*
X114574282Y-108878458D01*
X114582619Y-108853456D01*
X114596341Y-108796598D01*
X114614123Y-108714014D01*
X114634641Y-108611831D01*
X114656571Y-108496178D01*
X114657336Y-108492033D01*
X114679229Y-108374019D01*
X114699281Y-108267151D01*
X114716192Y-108178252D01*
X114728667Y-108114145D01*
X114735406Y-108081654D01*
X114735837Y-108079853D01*
X114740273Y-108065944D01*
X114749263Y-108055489D01*
X114767737Y-108047996D01*
X114800628Y-108042972D01*
X114852868Y-108039922D01*
X114929388Y-108038355D01*
X115035122Y-108037776D01*
X115175000Y-108037692D01*
X115192575Y-108037693D01*
G37*
%TO.C,J3*%
D13*
X78610000Y-125130000D02*
X78610000Y-126460000D01*
X79940000Y-125130000D02*
X78610000Y-125130000D01*
X81210000Y-125130000D02*
X81210000Y-127790000D01*
X81210000Y-125130000D02*
X99050000Y-125130000D01*
X81210000Y-127790000D02*
X99050000Y-127790000D01*
X99050000Y-125130000D02*
X99050000Y-127790000D01*
%TO.C,J7*%
X96390000Y-79530000D02*
X96390000Y-76870000D01*
X114230000Y-76870000D02*
X96390000Y-76870000D01*
X114230000Y-79530000D02*
X96390000Y-79530000D01*
X114230000Y-79530000D02*
X114230000Y-76870000D01*
X115500000Y-79530000D02*
X116830000Y-79530000D01*
X116830000Y-79530000D02*
X116830000Y-78200000D01*
%TO.C,J4*%
X101470000Y-125130000D02*
X101470000Y-126460000D01*
X102800000Y-125130000D02*
X101470000Y-125130000D01*
X104070000Y-125130000D02*
X104070000Y-127790000D01*
X104070000Y-125130000D02*
X116830000Y-125130000D01*
X104070000Y-127790000D02*
X116830000Y-127790000D01*
X116830000Y-125130000D02*
X116830000Y-127790000D01*
%TO.C,JP4*%
X93000000Y-121250000D02*
X93000000Y-123200000D01*
X93000000Y-123200000D02*
X98500000Y-123200000D01*
X98500000Y-121250000D02*
X93000000Y-121250000D01*
X98500000Y-123200000D02*
X98500000Y-121250000D01*
%TD*%
M02*
