%TF.GenerationSoftware,KiCad,Pcbnew,10.0.1-10.0.1~ubuntu24.04.1*%
%TF.CreationDate,2026-05-03T22:38:03-04:00*%
%TF.ProjectId,analog_shield,616e616c-6f67-45f7-9368-69656c642e6b,rev?*%
%TF.SameCoordinates,Original*%
%TF.FileFunction,Copper,L1,Top*%
%TF.FilePolarity,Positive*%
%FSLAX46Y46*%
G04 Gerber Fmt 4.6, Leading zero omitted, Abs format (unit mm)*
G04 Created by KiCad (PCBNEW 10.0.1-10.0.1~ubuntu24.04.1) date 2026-05-03 22:38:03*
%MOMM*%
%LPD*%
G01*
G04 APERTURE LIST*
G04 Aperture macros list*
%AMRoundRect*
0 Rectangle with rounded corners*
0 $1 Rounding radius*
0 $2 $3 $4 $5 $6 $7 $8 $9 X,Y pos of 4 corners*
0 Add a 4 corners polygon primitive as box body*
4,1,4,$2,$3,$4,$5,$6,$7,$8,$9,$2,$3,0*
0 Add four circle primitives for the rounded corners*
1,1,$1+$1,$2,$3*
1,1,$1+$1,$4,$5*
1,1,$1+$1,$6,$7*
1,1,$1+$1,$8,$9*
0 Add four rect primitives between the rounded corners*
20,1,$1+$1,$2,$3,$4,$5,0*
20,1,$1+$1,$4,$5,$6,$7,0*
20,1,$1+$1,$6,$7,$8,$9,0*
20,1,$1+$1,$8,$9,$2,$3,0*%
G04 Aperture macros list end*
%TA.AperFunction,ComponentPad*%
%ADD10C,1.800000*%
%TD*%
%TA.AperFunction,ComponentPad*%
%ADD11R,1.800000X1.800000*%
%TD*%
%TA.AperFunction,ComponentPad*%
%ADD12C,1.600000*%
%TD*%
%TA.AperFunction,ComponentPad*%
%ADD13O,1.600000X1.600000*%
%TD*%
%TA.AperFunction,ComponentPad*%
%ADD14R,1.600000X1.600000*%
%TD*%
%TA.AperFunction,ComponentPad*%
%ADD15R,1.700000X1.700000*%
%TD*%
%TA.AperFunction,ComponentPad*%
%ADD16O,1.700000X1.700000*%
%TD*%
%TA.AperFunction,ComponentPad*%
%ADD17R,1.222000X1.222000*%
%TD*%
%TA.AperFunction,ComponentPad*%
%ADD18C,1.222000*%
%TD*%
%TA.AperFunction,ComponentPad*%
%ADD19R,2.000000X2.000000*%
%TD*%
%TA.AperFunction,ComponentPad*%
%ADD20C,2.000000*%
%TD*%
%TA.AperFunction,ComponentPad*%
%ADD21C,2.800000*%
%TD*%
%TA.AperFunction,ComponentPad*%
%ADD22RoundRect,0.250000X0.845000X-0.620000X0.845000X0.620000X-0.845000X0.620000X-0.845000X-0.620000X0*%
%TD*%
%TA.AperFunction,ComponentPad*%
%ADD23O,2.190000X1.740000*%
%TD*%
%TA.AperFunction,ComponentPad*%
%ADD24RoundRect,0.250000X0.725000X-0.600000X0.725000X0.600000X-0.725000X0.600000X-0.725000X-0.600000X0*%
%TD*%
%TA.AperFunction,ComponentPad*%
%ADD25O,1.950000X1.700000*%
%TD*%
%TA.AperFunction,ComponentPad*%
%ADD26R,1.300000X1.300000*%
%TD*%
%TA.AperFunction,ComponentPad*%
%ADD27C,1.300000*%
%TD*%
%TA.AperFunction,ViaPad*%
%ADD28C,0.600000*%
%TD*%
%TA.AperFunction,Conductor*%
%ADD29C,0.250000*%
%TD*%
G04 APERTURE END LIST*
D10*
%TO.P,D3,1,K*%
%TO.N,GND*%
X74225000Y-124500000D03*
D11*
%TO.P,D3,2,A*%
%TO.N,Net-(D3-A)*%
X76765000Y-124500000D03*
%TD*%
D12*
%TO.P,C2,1*%
%TO.N,Net-(C2-Pad1)*%
X66500000Y-103250000D03*
%TO.P,C2,2*%
%TO.N,GND*%
X69000000Y-103250000D03*
%TD*%
%TO.P,R6,1*%
%TO.N,Net-(C4-Pad1)*%
X98250000Y-106670000D03*
D13*
%TO.P,R6,2*%
%TO.N,Net-(U2B-+)*%
X98250000Y-116830000D03*
%TD*%
D10*
%TO.P,D2,1,K*%
%TO.N,/LED2*%
X54005000Y-87304000D03*
D11*
%TO.P,D2,2,A*%
%TO.N,Net-(D2-A)*%
X56545000Y-87304000D03*
%TD*%
D12*
%TO.P,R1,1*%
%TO.N,+5V*%
X68000000Y-116830000D03*
D13*
%TO.P,R1,2*%
%TO.N,Net-(C2-Pad1)*%
X68000000Y-106670000D03*
%TD*%
D12*
%TO.P,C7,1*%
%TO.N,/ENC_B*%
X93600000Y-87000000D03*
%TO.P,C7,2*%
%TO.N,GND*%
X91100000Y-87000000D03*
%TD*%
D14*
%TO.P,U2,1,OUT*%
%TO.N,Net-(U2A-OUT)*%
X84200000Y-107950000D03*
D13*
%TO.P,U2,2,-*%
%TO.N,Net-(U2A--)*%
X84200000Y-110490000D03*
%TO.P,U2,3,+*%
%TO.N,Net-(U2A-+)*%
X84200000Y-113030000D03*
%TO.P,U2,4,GND*%
%TO.N,GND*%
X84200000Y-115570000D03*
%TO.P,U2,5,+*%
%TO.N,Net-(U2B-+)*%
X91820000Y-115570000D03*
%TO.P,U2,6,-*%
%TO.N,/OPA_OUT*%
X91820000Y-113030000D03*
%TO.P,U2,7,OUT*%
X91820000Y-110490000D03*
%TO.P,U2,8,V+*%
%TO.N,+5V*%
X91820000Y-107950000D03*
%TD*%
D12*
%TO.P,C8,1*%
%TO.N,/ENC_A*%
X109250000Y-84750000D03*
%TO.P,C8,2*%
%TO.N,GND*%
X109250000Y-87250000D03*
%TD*%
%TO.P,R12,1*%
%TO.N,VDD*%
X66670000Y-120500000D03*
D13*
%TO.P,R12,2*%
%TO.N,Net-(D3-A)*%
X76830000Y-120500000D03*
%TD*%
D12*
%TO.P,C1,1*%
%TO.N,+5V*%
X54500000Y-120000000D03*
%TO.P,C1,2*%
%TO.N,GND*%
X57000000Y-120000000D03*
%TD*%
%TO.P,R15,1*%
%TO.N,/TEMP_SIG*%
X108750000Y-116830000D03*
D13*
%TO.P,R15,2*%
%TO.N,GND*%
X108750000Y-106670000D03*
%TD*%
D15*
%TO.P,JP2,1,A*%
%TO.N,/MCU_ADC_CH1*%
X102800000Y-120250000D03*
D16*
%TO.P,JP2,2,C*%
%TO.N,/TEMP_SIG*%
X105340000Y-120250000D03*
%TO.P,JP2,3,B*%
%TO.N,/EXT_ADC_CH1*%
X107880000Y-120250000D03*
%TD*%
D12*
%TO.P,C5,1*%
%TO.N,+5V*%
X83500000Y-103000000D03*
%TO.P,C5,2*%
%TO.N,GND*%
X81000000Y-103000000D03*
%TD*%
D17*
%TO.P,RV1,1,1*%
%TO.N,VDD*%
X116225000Y-107715000D03*
D18*
%TO.P,RV1,2,2*%
%TO.N,/POT*%
X113685000Y-105175000D03*
%TO.P,RV1,3,3*%
%TO.N,GND*%
X116225000Y-102635000D03*
%TD*%
D10*
%TO.P,D1,1,K*%
%TO.N,/LED1*%
X53975000Y-82000000D03*
D11*
%TO.P,D1,2,A*%
%TO.N,Net-(D1-A)*%
X56515000Y-82000000D03*
%TD*%
D12*
%TO.P,R14,1*%
%TO.N,/OPA_OUT*%
X105250000Y-106670000D03*
D13*
%TO.P,R14,2*%
%TO.N,/TEMP_SIG*%
X105250000Y-116830000D03*
%TD*%
D12*
%TO.P,R5,1*%
%TO.N,Net-(U2A-OUT)*%
X95000000Y-116830000D03*
D13*
%TO.P,R5,2*%
%TO.N,Net-(C4-Pad1)*%
X95000000Y-106670000D03*
%TD*%
D12*
%TO.P,R18,1*%
%TO.N,/ENC_A*%
X106330000Y-83750000D03*
D13*
%TO.P,R18,2*%
%TO.N,Net-(ENC1-PadA)*%
X96170000Y-83750000D03*
%TD*%
D12*
%TO.P,R17,1*%
%TO.N,/ENC_B*%
X93580000Y-83750000D03*
D13*
%TO.P,R17,2*%
%TO.N,Net-(ENC1-PadB)*%
X83420000Y-83750000D03*
%TD*%
D12*
%TO.P,R2,1*%
%TO.N,Net-(C2-Pad1)*%
X71250000Y-106670000D03*
D13*
%TO.P,R2,2*%
%TO.N,GND*%
X71250000Y-116830000D03*
%TD*%
D12*
%TO.P,C3,1*%
%TO.N,Net-(U2B-+)*%
X101725000Y-116025000D03*
%TO.P,C3,2*%
%TO.N,GND*%
X101725000Y-113525000D03*
%TD*%
D15*
%TO.P,J8,1,Pin_1*%
%TO.N,+5V*%
X76750000Y-99250000D03*
D16*
%TO.P,J8,2,Pin_2*%
X79290000Y-99250000D03*
%TO.P,J8,3,Pin_3*%
%TO.N,GND*%
X76750000Y-96710000D03*
%TO.P,J8,4,Pin_4*%
%TO.N,/OPA_OUT*%
X79290000Y-96710000D03*
%TO.P,J8,5,Pin_5*%
%TO.N,/IR_VOUT*%
X76750000Y-94170000D03*
%TO.P,J8,6,Pin_6*%
%TO.N,/ENC_SW*%
X79290000Y-94170000D03*
%TO.P,J8,7,Pin_7*%
%TO.N,/POT*%
X76750000Y-91630000D03*
%TO.P,J8,8,Pin_8*%
%TO.N,/ENC_A*%
X79290000Y-91630000D03*
%TO.P,J8,9,Pin_9*%
%TO.N,/SENSOR_IN*%
X76750000Y-89090000D03*
%TO.P,J8,10,Pin_10*%
%TO.N,/ENC_B*%
X79290000Y-89090000D03*
%TO.P,J8,11,Pin_11*%
%TO.N,/LED1*%
X76750000Y-86550000D03*
%TO.P,J8,12,Pin_12*%
%TO.N,/LED2*%
X79290000Y-86550000D03*
%TD*%
D12*
%TO.P,R16,1*%
%TO.N,/ENC_SW*%
X114500000Y-89920000D03*
D13*
%TO.P,R16,2*%
%TO.N,Net-(ENC1-PadS1)*%
X114500000Y-100080000D03*
%TD*%
D12*
%TO.P,R8,1*%
%TO.N,VDD*%
X90000000Y-100080000D03*
D13*
%TO.P,R8,2*%
%TO.N,Net-(ENC1-PadB)*%
X90000000Y-89920000D03*
%TD*%
D12*
%TO.P,C6,1*%
%TO.N,/ENC_SW*%
X115000000Y-87000000D03*
%TO.P,C6,2*%
%TO.N,GND*%
X112500000Y-87000000D03*
%TD*%
D19*
%TO.P,ENC1,A,A*%
%TO.N,Net-(ENC1-PadA)*%
X93500000Y-93750000D03*
D20*
%TO.P,ENC1,B,B*%
%TO.N,Net-(ENC1-PadB)*%
X93500000Y-98750000D03*
%TO.P,ENC1,C,C*%
%TO.N,GND*%
X93500000Y-96250000D03*
D21*
%TO.P,ENC1,MP*%
%TO.N,N/C*%
X101000000Y-90650000D03*
X101000000Y-101850000D03*
D20*
%TO.P,ENC1,S1,S1*%
%TO.N,Net-(ENC1-PadS1)*%
X108000000Y-93750000D03*
%TO.P,ENC1,S2,S2*%
%TO.N,GND*%
X108000000Y-98750000D03*
%TD*%
D12*
%TO.P,C4,1*%
%TO.N,Net-(C4-Pad1)*%
X101750000Y-109175000D03*
%TO.P,C4,2*%
%TO.N,/OPA_OUT*%
X101750000Y-106675000D03*
%TD*%
D15*
%TO.P,JP1,1,A*%
%TO.N,/TEMP_MON*%
X64000000Y-114290000D03*
D16*
%TO.P,JP1,2,C*%
%TO.N,/SENSOR_IN*%
X64000000Y-111750000D03*
%TO.P,JP1,3,B*%
%TO.N,Net-(J1-Pin_2)*%
X64000000Y-109210000D03*
%TD*%
D12*
%TO.P,R7,1*%
%TO.N,VDD*%
X96170000Y-87000000D03*
D13*
%TO.P,R7,2*%
%TO.N,Net-(ENC1-PadA)*%
X106330000Y-87000000D03*
%TD*%
D12*
%TO.P,R9,1*%
%TO.N,VDD*%
X111250000Y-89920000D03*
D13*
%TO.P,R9,2*%
%TO.N,Net-(ENC1-PadS1)*%
X111250000Y-100080000D03*
%TD*%
D12*
%TO.P,R3,1*%
%TO.N,Net-(C2-Pad1)*%
X74500000Y-106670000D03*
D13*
%TO.P,R3,2*%
%TO.N,Net-(U2A--)*%
X74500000Y-116830000D03*
%TD*%
D12*
%TO.P,R13,1*%
%TO.N,/SENSOR_IN*%
X81000000Y-116830000D03*
D13*
%TO.P,R13,2*%
%TO.N,Net-(U2A-+)*%
X81000000Y-106670000D03*
%TD*%
D12*
%TO.P,R4,1*%
%TO.N,Net-(U2A--)*%
X77750000Y-116830000D03*
D13*
%TO.P,R4,2*%
%TO.N,Net-(U2A-OUT)*%
X77750000Y-106670000D03*
%TD*%
D22*
%TO.P,J1,1,Pin_1*%
%TO.N,+5V*%
X55520000Y-114290000D03*
D23*
%TO.P,J1,2,Pin_2*%
%TO.N,Net-(J1-Pin_2)*%
X55520000Y-111750000D03*
%TO.P,J1,3,Pin_3*%
%TO.N,GND*%
X55520000Y-109210000D03*
%TD*%
D12*
%TO.P,R10,1*%
%TO.N,VDD*%
X69250000Y-82000000D03*
D13*
%TO.P,R10,2*%
%TO.N,Net-(D1-A)*%
X59090000Y-82000000D03*
%TD*%
D24*
%TO.P,J2,1,Pin_1*%
%TO.N,/IR_VOUT*%
X59282500Y-99000000D03*
D25*
%TO.P,J2,2,Pin_2*%
%TO.N,GND*%
X59282500Y-96500000D03*
%TO.P,J2,3,Pin_3*%
%TO.N,VDD*%
X59282500Y-94000000D03*
%TD*%
D12*
%TO.P,R11,1*%
%TO.N,VDD*%
X69250000Y-87304000D03*
D13*
%TO.P,R11,2*%
%TO.N,Net-(D2-A)*%
X59090000Y-87304000D03*
%TD*%
D26*
%TO.P,U1,1,+VS*%
%TO.N,+5V*%
X54480000Y-126110000D03*
D27*
%TO.P,U1,2,Vout*%
%TO.N,/TEMP_MON*%
X55750000Y-124840000D03*
%TO.P,U1,3,GND*%
%TO.N,GND*%
X57020000Y-126110000D03*
%TD*%
D15*
%TO.P,J6,1,Pin_1*%
%TO.N,unconnected-(J6-Pin_1-Pad1)*%
X93660000Y-78200000D03*
D16*
%TO.P,J6,2,Pin_2*%
%TO.N,unconnected-(J6-Pin_2-Pad2)*%
X91120000Y-78200000D03*
%TO.P,J6,3,Pin_3*%
%TO.N,unconnected-(J6-Pin_3-Pad3)*%
X88580000Y-78200000D03*
%TO.P,J6,4,Pin_4*%
%TO.N,unconnected-(J6-Pin_4-Pad4)*%
X86040000Y-78200000D03*
%TO.P,J6,5,Pin_5*%
%TO.N,unconnected-(J6-Pin_5-Pad5)*%
X83500000Y-78200000D03*
%TO.P,J6,6,Pin_6*%
%TO.N,unconnected-(J6-Pin_6-Pad6)*%
X80960000Y-78200000D03*
%TO.P,J6,7,Pin_7*%
%TO.N,GND*%
X78420000Y-78200000D03*
%TO.P,J6,8,Pin_8*%
%TO.N,unconnected-(J6-Pin_8-Pad8)*%
X75880000Y-78200000D03*
%TO.P,J6,9,Pin_9*%
%TO.N,unconnected-(J6-Pin_9-Pad9)*%
X73340000Y-78200000D03*
%TO.P,J6,10,Pin_10*%
%TO.N,unconnected-(J6-Pin_10-Pad10)*%
X70800000Y-78200000D03*
%TD*%
D15*
%TO.P,J3,1,Pin_1*%
%TO.N,unconnected-(J3-Pin_1-Pad1)*%
X79940000Y-126460000D03*
D16*
%TO.P,J3,2,Pin_2*%
%TO.N,unconnected-(J3-Pin_2-Pad2)*%
X82480000Y-126460000D03*
%TO.P,J3,3,Pin_3*%
%TO.N,unconnected-(J3-Pin_3-Pad3)*%
X85020000Y-126460000D03*
%TO.P,J3,4,Pin_4*%
%TO.N,+3V3*%
X87560000Y-126460000D03*
%TO.P,J3,5,Pin_5*%
%TO.N,/+5V_IN*%
X90100000Y-126460000D03*
%TO.P,J3,6,Pin_6*%
%TO.N,GND*%
X92640000Y-126460000D03*
%TO.P,J3,7,Pin_7*%
X95180000Y-126460000D03*
%TO.P,J3,8,Pin_8*%
%TO.N,VDC*%
X97720000Y-126460000D03*
%TD*%
D15*
%TO.P,J7,1,Pin_1*%
%TO.N,unconnected-(J7-Pin_1-Pad1)*%
X115500000Y-78200000D03*
D16*
%TO.P,J7,2,Pin_2*%
%TO.N,unconnected-(J7-Pin_2-Pad2)*%
X112960000Y-78200000D03*
%TO.P,J7,3,Pin_3*%
%TO.N,/ENC_SW*%
X110420000Y-78200000D03*
%TO.P,J7,4,Pin_4*%
%TO.N,/ENC_A*%
X107880000Y-78200000D03*
%TO.P,J7,5,Pin_5*%
%TO.N,/ENC_B*%
X105340000Y-78200000D03*
%TO.P,J7,6,Pin_6*%
%TO.N,/LED2*%
X102800000Y-78200000D03*
%TO.P,J7,7,Pin_7*%
%TO.N,/LED1*%
X100260000Y-78200000D03*
%TO.P,J7,8,Pin_8*%
%TO.N,unconnected-(J7-Pin_8-Pad8)*%
X97720000Y-78200000D03*
%TD*%
D15*
%TO.P,J4,1,Pin_1*%
%TO.N,/MCU_ADC_CH1*%
X102800000Y-126460000D03*
D16*
%TO.P,J4,2,Pin_2*%
%TO.N,/SENSOR_IN*%
X105340000Y-126460000D03*
%TO.P,J4,3,Pin_3*%
%TO.N,unconnected-(J4-Pin_3-Pad3)*%
X107880000Y-126460000D03*
%TO.P,J4,4,Pin_4*%
%TO.N,/EXT_ADC_CH1*%
X110420000Y-126460000D03*
%TO.P,J4,5,Pin_5*%
%TO.N,/IR_VOUT*%
X112960000Y-126460000D03*
%TO.P,J4,6,Pin_6*%
%TO.N,/POT*%
X115500000Y-126460000D03*
%TD*%
D28*
%TO.N,+5V*%
X91800000Y-118875000D03*
X93250000Y-118875000D03*
X90375000Y-118875000D03*
%TO.N,VDD*%
X86750000Y-120500000D03*
%TD*%
%TO.N,Net-(D3-A)*%
D29*
X76830000Y-120500000D02*
X76830000Y-124435000D01*
%TO.N,Net-(C2-Pad1)*%
X66500000Y-105170000D02*
X66500000Y-103250000D01*
X68000000Y-106670000D02*
X71250000Y-106670000D01*
X71250000Y-106670000D02*
X74500000Y-106670000D01*
X68000000Y-106670000D02*
X66500000Y-105170000D01*
%TO.N,Net-(C4-Pad1)*%
X98250000Y-106670000D02*
X95000000Y-106670000D01*
X99275000Y-109175000D02*
X98250000Y-108150000D01*
X98250000Y-108150000D02*
X98250000Y-106670000D01*
X101750000Y-109175000D02*
X99275000Y-109175000D01*
%TO.N,Net-(U2B-+)*%
X91820000Y-115570000D02*
X93470000Y-115570000D01*
X100920000Y-116830000D02*
X101725000Y-116025000D01*
X96620000Y-115200000D02*
X98250000Y-116830000D01*
X98250000Y-116830000D02*
X100920000Y-116830000D01*
X93840000Y-115200000D02*
X96620000Y-115200000D01*
X93470000Y-115570000D02*
X93840000Y-115200000D01*
%TO.N,/LED2*%
X70670000Y-85100000D02*
X73380000Y-87810000D01*
X56209000Y-85100000D02*
X70670000Y-85100000D01*
X79290000Y-82960000D02*
X80650000Y-81600000D01*
X78030000Y-87810000D02*
X79290000Y-86550000D01*
X73380000Y-87810000D02*
X78030000Y-87810000D01*
X99400000Y-81600000D02*
X102800000Y-78200000D01*
X80650000Y-81600000D02*
X99400000Y-81600000D01*
X54005000Y-87304000D02*
X56209000Y-85100000D01*
X79290000Y-86550000D02*
X79290000Y-82960000D01*
%TO.N,Net-(D2-A)*%
X59090000Y-87304000D02*
X56545000Y-87304000D01*
%TO.N,/ENC_B*%
X94980000Y-82350000D02*
X101275000Y-82350000D01*
X93600000Y-83770000D02*
X93580000Y-83750000D01*
X93580000Y-83750000D02*
X94980000Y-82350000D01*
X101275000Y-82350000D02*
X105340000Y-78285000D01*
X93600000Y-87000000D02*
X93600000Y-83770000D01*
X105340000Y-78285000D02*
X105340000Y-78200000D01*
%TO.N,Net-(U2A-OUT)*%
X89800000Y-118000000D02*
X88510000Y-116710000D01*
X84200000Y-106250000D02*
X83350000Y-105400000D01*
X93830000Y-118000000D02*
X89800000Y-118000000D01*
X84200000Y-107950000D02*
X84200000Y-106250000D01*
X83350000Y-105400000D02*
X79020000Y-105400000D01*
X86850000Y-107950000D02*
X84200000Y-107950000D01*
X88510000Y-109610000D02*
X86850000Y-107950000D01*
X88510000Y-116710000D02*
X88510000Y-109610000D01*
X95000000Y-116830000D02*
X93830000Y-118000000D01*
X79020000Y-105400000D02*
X77750000Y-106670000D01*
%TO.N,Net-(U2A--)*%
X77750000Y-116830000D02*
X79520000Y-118600000D01*
X86200000Y-112490000D02*
X84200000Y-110490000D01*
X84450000Y-118600000D02*
X86200000Y-116850000D01*
X74500000Y-116830000D02*
X77750000Y-116830000D01*
X79520000Y-118600000D02*
X84450000Y-118600000D01*
X86200000Y-116850000D02*
X86200000Y-112490000D01*
%TO.N,Net-(U2A-+)*%
X84200000Y-113030000D02*
X82880000Y-113030000D01*
X82880000Y-113030000D02*
X81000000Y-111150000D01*
X81000000Y-111150000D02*
X81000000Y-106670000D01*
%TO.N,/OPA_OUT*%
X105250000Y-106670000D02*
X101755000Y-106670000D01*
X88400000Y-105550000D02*
X86150000Y-105550000D01*
X100175000Y-105100000D02*
X101750000Y-106675000D01*
X86150000Y-105550000D02*
X84850000Y-104250000D01*
X84850000Y-104250000D02*
X84850000Y-100100000D01*
X89800000Y-106950000D02*
X88400000Y-105550000D01*
X101755000Y-106670000D02*
X101750000Y-106675000D01*
X94050000Y-105100000D02*
X100175000Y-105100000D01*
X89800000Y-108470000D02*
X89800000Y-106950000D01*
X81460000Y-96710000D02*
X79290000Y-96710000D01*
X93380000Y-108930000D02*
X93380000Y-105770000D01*
X84850000Y-100100000D02*
X81460000Y-96710000D01*
X93380000Y-105770000D02*
X94050000Y-105100000D01*
X91820000Y-110490000D02*
X89800000Y-108470000D01*
X91820000Y-110490000D02*
X93380000Y-108930000D01*
%TO.N,/ENC_A*%
X106330000Y-81470000D02*
X107880000Y-79920000D01*
X108250000Y-83750000D02*
X109250000Y-84750000D01*
X106330000Y-83750000D02*
X108250000Y-83750000D01*
X107880000Y-79920000D02*
X107880000Y-78200000D01*
X106330000Y-83750000D02*
X106330000Y-81470000D01*
%TO.N,/TEMP_SIG*%
X105340000Y-120250000D02*
X105340000Y-116920000D01*
X108750000Y-116830000D02*
X105250000Y-116830000D01*
X105340000Y-116920000D02*
X105250000Y-116830000D01*
%TO.N,/MCU_ADC_CH1*%
X102800000Y-120250000D02*
X102800000Y-126460000D01*
%TO.N,/EXT_ADC_CH1*%
X110420000Y-124420000D02*
X110420000Y-126460000D01*
X107880000Y-121880000D02*
X110420000Y-124420000D01*
X107880000Y-120250000D02*
X107880000Y-121880000D01*
%TO.N,/LED1*%
X76750000Y-86550000D02*
X76750000Y-82500000D01*
X98060000Y-80400000D02*
X100260000Y-78200000D01*
X53975000Y-82000000D02*
X56075000Y-84100000D01*
X72570000Y-84100000D02*
X75020000Y-86550000D01*
X76750000Y-82500000D02*
X78850000Y-80400000D01*
X75020000Y-86550000D02*
X76750000Y-86550000D01*
X78850000Y-80400000D02*
X98060000Y-80400000D01*
X56075000Y-84100000D02*
X72570000Y-84100000D01*
%TO.N,Net-(D1-A)*%
X59090000Y-82000000D02*
X56515000Y-82000000D01*
%TO.N,Net-(ENC1-PadA)*%
X98500000Y-83750000D02*
X96170000Y-83750000D01*
X93500000Y-90925000D02*
X94900000Y-89525000D01*
X94900000Y-89525000D02*
X94900000Y-85020000D01*
X101750000Y-87000000D02*
X98500000Y-83750000D01*
X93500000Y-93750000D02*
X93500000Y-90925000D01*
X94900000Y-85020000D02*
X96170000Y-83750000D01*
X106330000Y-87000000D02*
X101750000Y-87000000D01*
%TO.N,Net-(ENC1-PadB)*%
X93500000Y-98750000D02*
X90000000Y-95250000D01*
X86450000Y-83750000D02*
X83420000Y-83750000D01*
X90000000Y-95250000D02*
X90000000Y-89920000D01*
X87700000Y-85000000D02*
X86450000Y-83750000D01*
X87700000Y-87620000D02*
X87700000Y-85000000D01*
X90000000Y-89920000D02*
X87700000Y-87620000D01*
%TO.N,/IR_VOUT*%
X59282500Y-99000000D02*
X64500000Y-99000000D01*
X69330000Y-94170000D02*
X76750000Y-94170000D01*
X64500000Y-99000000D02*
X69330000Y-94170000D01*
%TO.N,/ENC_SW*%
X114500000Y-88800000D02*
X115000000Y-88300000D01*
X112050000Y-84050000D02*
X112050000Y-79830000D01*
X115000000Y-87000000D02*
X112050000Y-84050000D01*
X114500000Y-89920000D02*
X114500000Y-88800000D01*
X112050000Y-79830000D02*
X110420000Y-78200000D01*
X115000000Y-88300000D02*
X115000000Y-87000000D01*
%TO.N,Net-(ENC1-PadS1)*%
X111250000Y-100080000D02*
X111250000Y-97000000D01*
X111250000Y-97000000D02*
X108000000Y-93750000D01*
X111250000Y-100080000D02*
X114500000Y-100080000D01*
%TO.N,/TEMP_MON*%
X60750000Y-119840000D02*
X60750000Y-115825000D01*
X55750000Y-124840000D02*
X60750000Y-119840000D01*
X60750000Y-115825000D02*
X62285000Y-114290000D01*
X62285000Y-114290000D02*
X64000000Y-114290000D01*
%TO.N,Net-(J1-Pin_2)*%
X55520000Y-111750000D02*
X61460000Y-111750000D01*
X61460000Y-111750000D02*
X64000000Y-109210000D01*
%TD*%
M02*
